<?xml version="1.0" encoding="UTF-8" standalone="no"?>
<svg
   width="157"
   height="60"
   viewBox="0 0 157 60"
   fill="none"
   version="1.1"
   id="svg17"
   sodipodi:docname="Eljur_logo.svg"
   inkscape:version="1.3.2 (091e20e, 2023-11-25, custom)"
   xmlns:inkscape="http://www.inkscape.org/namespaces/inkscape"
   xmlns:sodipodi="http://sodipodi.sourceforge.net/DTD/sodipodi-0.dtd"
   xmlns="http://www.w3.org/2000/svg"
   xmlns:svg="http://www.w3.org/2000/svg">
  <sodipodi:namedview
     id="namedview17"
     pagecolor="#ffffff"
     bordercolor="#000000"
     borderopacity="0.25"
     inkscape:showpageshadow="2"
     inkscape:pageopacity="0.0"
     inkscape:pagecheckerboard="0"
     inkscape:deskcolor="#d1d1d1"
     inkscape:zoom="8.6242038"
     inkscape:cx="78.5"
     inkscape:cy="29.973781"
     inkscape:window-width="1920"
     inkscape:window-height="1001"
     inkscape:window-x="-9"
     inkscape:window-y="-9"
     inkscape:window-maximized="1"
     inkscape:current-layer="svg17" />
  <path
     d="M50.3211 45.0001C52.5944 44.8622 53.299 42.9972 52.2676 41.553C49.2243 37.315 47.0236 34.2526 43.9875 30.0073C40.4358 34.9493 37.6685 38.8099 33.2307 45.0001H50.3211Z"
     fill="url(#paint0_linear_37_374)"
     id="path1" />
  <path
     d="M50.3211 45.0001C52.5944 44.8622 53.299 42.9972 52.2676 41.553C49.2243 37.315 47.0236 34.2526 43.9875 30.0073C40.4358 34.9493 37.6685 38.8099 33.2307 45.0001H50.3211Z"
     fill="url(#paint1_linear_37_374)"
     id="path2" />
  <path
     d="M50.0232 15H20.0625C16.6705 15 15 16.6618 15 20.0435V39.9637C15 43.193 16.5325 44.8549 19.6339 45H33.2379C36.9858 39.7678 39.6296 36.0813 43.2466 31.045C43.3846 30.8563 43.5154 30.6676 43.6534 30.479L43.2975 30.9652C43.421 30.791 43.5444 30.6168 43.6679 30.4499C43.7478 30.3411 43.8277 30.2395 43.9003 30.1306C44.2562 29.6299 44.5976 29.1582 44.9317 28.701C44.968 28.6502 45.0116 28.5922 45.0479 28.5341C47.8661 24.5936 49.7545 21.9594 52.2312 18.5123C53.3062 17.0102 52.529 15 50.0232 15ZM20.7452 22.2496C19.8881 22.2496 19.1909 21.553 19.1909 20.6967C19.1909 19.8403 19.8881 19.1437 20.7452 19.1437C21.6023 19.1437 22.2995 19.8403 22.2995 20.6967C22.2995 21.553 21.6023 22.2496 20.7452 22.2496Z"
     fill="url(#paint2_linear_37_374)"
     id="path3" />
  <path
     d="M20.7452 22.2496C21.6037 22.2496 22.2996 21.5543 22.2996 20.6967C22.2996 19.839 21.6037 19.1437 20.7452 19.1437C19.8868 19.1437 19.1909 19.839 19.1909 20.6967C19.1909 21.5543 19.8868 22.2496 20.7452 22.2496Z"
     fill="white"
     id="path4" />
  <path
     d="M72.8503 37.653C75.0582 37.653 76.8182 36.9603 78.1195 35.5749C79.4101 34.2001 80.0607 32.2712 80.0607 29.7988C80.0607 27.3263 79.4101 25.3974 78.1195 24.012C76.8182 22.6372 75.0582 21.9445 72.8503 21.9445C71.0157 21.9445 69.5437 22.3921 68.4451 23.2873C67.3465 24.1825 66.5892 25.4081 66.1838 26.964H69.5757C70.205 25.5786 71.293 24.8859 72.8503 24.8859C74.8556 24.8859 76.3168 26.1327 76.6688 28.4879H71.5383V31.1096H76.6688C76.4982 32.2925 76.0715 33.1877 75.3889 33.7951C74.6956 34.4026 73.8529 34.7116 72.8503 34.7116C71.293 34.7116 70.205 34.0189 69.5757 32.6335H66.1838C66.5998 34.2001 67.3571 35.4257 68.4558 36.3102C69.5544 37.2054 71.0157 37.653 72.8503 37.653Z"
     fill="#333333"
     id="path5" />
  <path
     d="M81.4793 37.7702C83.6339 37.7702 85.0846 37.0775 85.8312 35.6814C86.5672 34.296 86.9405 31.9408 86.9405 28.6052V25.1097H91.207V37.4399H94.4816V22.1577H83.6659V28.2748C83.6659 30.0119 83.5806 31.3227 83.4206 32.2286C83.25 33.1344 83.0153 33.7312 82.706 34.0403C82.3966 34.3493 81.9593 34.4985 81.3727 34.4985H81.1487V37.7702H81.4793Z"
     fill="#333333"
     id="path6" />
  <path
     d="M99.2921 37.4399L104.316 30.4595V37.4399H107.59V30.4595L112.614 37.4399H116.337L110.652 29.6922L116.006 22.1577H112.294L107.59 28.9249V22.1577H104.316V28.9249L99.6228 22.1577H95.9109L101.265 29.6922L95.5802 37.4399H99.2921Z"
     fill="#333333"
     id="path7" />
  <path
     d="M122.449 37.4399L129.008 22.1577H125.617L122.566 29.4684H122.449L119.067 22.1577H115.569L120.817 33.4008L119.067 37.4399H122.449Z"
     fill="#333333"
     id="path8" />
  <path
     d="M133.595 37.4399V32.6335H136.646C138.214 32.6335 139.504 32.1433 140.507 31.1629C141.499 30.1824 142 28.9249 142 27.4009C142 25.877 141.499 24.6194 140.507 23.6283C139.504 22.6479 138.214 22.1577 136.646 22.1577H130.31V37.4399H133.595ZM133.595 25.1097H136.326C137.83 25.1097 138.725 25.9835 138.725 27.4009C138.725 28.8183 137.83 29.6922 136.326 29.6922H133.595V25.1097Z"
     fill="#333333"
     id="path9" />
  <defs
     id="defs17">
    <linearGradient
       id="paint0_linear_37_374"
       x1="37.7046"
       y1="36.9964"
       x2="51.891"
       y2="44.9199"
       gradientUnits="userSpaceOnUse">
      <stop
         stop-color="#BE1414"
         id="stop9" />
      <stop
         offset="0.9898"
         stop-color="#FF3B29"
         id="stop10" />
    </linearGradient>
    <linearGradient
       id="paint1_linear_37_374"
       x1="36.4143"
       y1="36.2768"
       x2="50.6006"
       y2="44.2004"
       gradientUnits="userSpaceOnUse">
      <stop
         stop-color="#BE1414"
         id="stop11" />
      <stop
         offset="0.1384"
         stop-color="#CC1C18"
         id="stop12" />
      <stop
         offset="0.4757"
         stop-color="#E82D21"
         id="stop13" />
      <stop
         offset="0.7709"
         stop-color="#F93727"
         id="stop14" />
      <stop
         offset="0.9898"
         stop-color="#FF3B29"
         id="stop15" />
    </linearGradient>
    <linearGradient
       id="paint2_linear_37_374"
       x1="14.6362"
       y1="18.871"
       x2="43.1523"
       y2="34.7982"
       gradientUnits="userSpaceOnUse">
      <stop
         stop-color="#BE1414"
         id="stop16" />
      <stop
         offset="0.9898"
         stop-color="#FF3B29"
         id="stop17" />
    </linearGradient>
  </defs>
  <path
     style="fill:#ffffff;stroke-width:0.115953"
     d="m 71.548313,37.50546 c -2.18502,-0.342636 -3.768832,-1.484021 -4.683551,-3.375235 -0.257437,-0.532259 -0.500767,-1.085146 -0.540735,-1.228637 l -0.07267,-0.260894 h 1.620134 1.620134 l 0.300785,0.513251 c 0.674589,1.151099 1.692498,1.630149 3.299601,1.552867 0.830396,-0.03993 1.107296,-0.105662 1.618519,-0.384203 1.01571,-0.553411 1.75474,-1.622809 1.943605,-2.812454 l 0.07823,-0.492799 h -2.56578 -2.56578 v -1.217504 -1.217503 h 2.56578 2.56578 l -0.07823,-0.4928 C 76.46527,26.899905 75.72624,25.830507 74.71053,25.277095 c -0.511223,-0.27854 -0.788123,-0.34427 -1.618519,-0.384202 -1.607103,-0.07728 -2.625012,0.401768 -3.299601,1.552866 l -0.300785,0.513251 h -1.620134 -1.620134 l 0.07267,-0.260893 c 0.03997,-0.143492 0.284248,-0.698294 0.542844,-1.232894 1.12158,-2.318658 3.074844,-3.430031 6.009421,-3.419254 2.260776,0.0083 3.63551,0.540225 5.046735,1.952722 1.418307,1.419586 1.913144,2.771698 1.995763,5.453303 0.0633,2.054447 -0.15111,3.214114 -0.851317,4.60454 -0.803054,1.594651 -2.471548,2.90113 -4.246732,3.325312 -0.782311,0.186934 -2.463613,0.250444 -3.272428,0.123614 z"
     id="path17" />
  <path
     style="fill:#ffffff;stroke-width:0.115953"
     d="m 81.224889,36.149011 v -1.623568 l 0.583548,-0.05607 c 0.722025,-0.06938 1.070935,-0.371063 1.377844,-1.191349 0.380931,-1.018131 0.475121,-2.161147 0.55177,-6.695859 l 0.07399,-4.377216 h 5.315732 5.315732 v 7.594904 7.594904 h -1.565362 -1.565362 v -6.145495 -6.145494 h -2.18656 -2.186561 l -0.06684,3.217688 c -0.10782,5.190547 -0.540981,7.042051 -1.942237,8.3019 -0.683026,0.614099 -1.554152,0.937217 -2.878577,1.067722 l -0.827115,0.0815 z"
     id="path18" />
  <path
     style="fill:#ffffff;stroke-width:0.115953"
     d="m 95.807132,37.249815 c 0.411898,-0.512245 5.399678,-7.36116 5.444738,-7.47638 0.0306,-0.0783 -1.08435,-1.74405 -2.477711,-3.701659 -1.393365,-1.957609 -2.575118,-3.628485 -2.626117,-3.713058 -0.07548,-0.125163 0.237308,-0.152653 1.681314,-0.147769 l 1.774041,0.006 2.313993,3.356629 c 1.2727,1.846146 2.35541,3.356629 2.40602,3.356629 0.0506,0 0.092,-1.513183 0.092,-3.362629 v -3.36263 h 1.56536 1.56536 v 3.369473 c 0,1.997534 0.043,3.342888 0.10564,3.304182 0.0581,-0.03591 1.13901,-1.552942 2.40203,-3.371184 l 2.29638,-3.305894 3.34605,0.0307 3.34606,0.0307 1.66173,3.594534 c 0.91395,1.976994 1.72452,3.594535 1.80125,3.594535 0.0767,0 0.82118,-1.630585 1.65432,-3.623523 l 1.5148,-3.623523 h 1.60352 c 0.88194,0 1.60352,0.01357 1.60352,0.03015 0,0.01658 -1.45354,3.421242 -3.23009,7.565916 l -3.23009,7.53577 -1.63273,0.03213 -1.63273,0.03213 0.86784,-2.003324 0.86784,-2.003325 -2.5445,-5.449778 c -1.39948,-2.997379 -2.57945,-5.439247 -2.62217,-5.426375 -0.11825,0.03563 -5.08261,7.032889 -5.08385,7.165666 -5.9e-4,0.06377 1.23344,1.796811 2.7423,3.851193 1.50886,2.054382 2.74338,3.763236 2.74338,3.797452 0,0.03422 -0.77802,0.06221 -1.72893,0.06221 h -1.72893 l -2.46219,-3.424159 c -1.35421,-1.883289 -2.5068,-3.45173 -2.56132,-3.485426 -0.0545,-0.0337 -0.0991,1.507176 -0.0991,3.42416 v 3.485425 h -1.56536 -1.56536 v -3.478582 c 0,-1.91322 -0.0392,-3.478582 -0.0872,-3.478582 -0.0479,0 -1.20892,1.563855 -2.57995,3.475232 l -2.492781,3.475233 -1.782477,0.0033 c -1.411166,0.0027 -1.758199,-0.02684 -1.66593,-0.141591 z"
     id="path19" />
  <path
     style="fill:#ffffff;stroke-width:0.115953"
     d="m 130.38885,29.799852 v -7.594904 l 3.39162,0.002 c 3.72939,0.0022 4.52355,0.09547 5.54435,0.651062 3.139,1.708459 3.51763,6.375606 0.69803,8.604367 -1.09481,0.865404 -1.60421,0.990932 -4.21321,1.038236 l -2.29007,0.04152 v 2.426303 2.426304 h -1.56536 -1.56536 z m 6.99383,-0.22597 c 0.89378,-0.318764 1.35476,-1.046558 1.35476,-2.138893 0,-0.819546 -0.13531,-1.226539 -0.55815,-1.678775 -0.53477,-0.571949 -0.88747,-0.652447 -2.85873,-0.652447 h -1.80099 v 2.319054 2.319055 l 1.7103,-0.0051 c 1.13657,-0.0034 1.85875,-0.05803 2.15281,-0.162904 z"
     id="path20" />
</svg>
