<?xml version="1.0" standalone="no"?>
<!DOCTYPE svg PUBLIC "-//W3C//DTD SVG 20010904//EN"
 "http://www.w3.org/TR/2001/REC-SVG-20010904/DTD/svg10.dtd">
<svg version="1.0" xmlns="http://www.w3.org/2000/svg"
 width="150.000000pt" height="100.000000pt" viewBox="0 0 150.000000 100.000000"
 preserveAspectRatio="xMidYMid meet">

<g transform="translate(0.000000,100.000000) scale(0.100000,-0.100000)"
fill="#fff" stroke="none">
<path d="M612 844 c-165 -82 -163 -299 3 -387 30 -16 58 -21 110 -21 104 0
183 48 219 136 61 145 -52 298 -219 298 -46 0 -74 -7 -113 -26z m219 -12 c201
-105 123 -385 -106 -385 -124 0 -225 95 -225 213 0 40 45 125 78 149 84 59
169 67 253 23z"/>
<path d="M785 732 c-16 -10 -81 -40 -143 -66 -127 -55 -136 -69 -62 -98 55
-21 129 -23 175 -4 35 15 62 50 46 61 -6 3 -15 -4 -21 -15 -15 -29 -63 -50
-112 -50 -47 0 -133 34 -124 49 3 5 58 30 123 56 64 25 126 53 137 61 30 20
63 17 80 -8 22 -31 20 -43 -14 -93 -32 -47 -35 -55 -21 -55 6 0 20 18 32 40
24 42 34 49 42 28 2 -7 3 1 2 17 -4 43 -21 81 -40 89 -30 11 -69 6 -100 -12z"/>
<path d="M5 270 c0 -89 3 -120 13 -120 9 0 12 29 12 110 l0 110 70 0 70 0 0
-110 c0 -67 4 -110 10 -110 6 0 10 47 10 120 l0 120 -92 0 -93 0 0 -120z"/>
<path d="M228 270 l3 -120 65 0 c41 0 63 4 59 10 -3 6 -28 10 -56 10 l-49 0 0
45 0 45 45 0 c25 0 45 5 45 10 0 6 -20 10 -45 10 l-45 0 0 45 0 45 55 0 c30 0
55 5 55 10 0 6 -29 10 -67 10 l-68 0 3 -120z"/>
<path d="M431 283 c-24 -59 -45 -114 -48 -120 -3 -7 1 -13 8 -13 8 0 30 41 52
100 34 89 57 124 57 87 0 -27 68 -180 84 -189 18 -10 22 -23 -52 162 -16 41
-36 76 -44 78 -10 2 -28 -31 -57 -105z"/>
<path d="M620 270 c0 -155 10 -157 100 -22 l65 97 3 -98 c4 -141 22 -122 22
24 0 92 -3 120 -12 117 -7 -2 -39 -42 -71 -89 -86 -125 -83 -125 -79 -9 4 87
2 100 -12 100 -14 0 -16 -16 -16 -120z"/>
<path d="M840 270 c0 -100 3 -120 15 -120 10 0 15 10 15 29 0 17 10 42 23 56
l22 26 39 -51 c35 -46 76 -81 76 -64 0 3 -23 35 -51 71 l-50 64 32 42 c18 23
37 48 42 55 7 8 5 12 -6 12 -8 0 -38 -31 -67 -70 -29 -38 -55 -70 -59 -70 -4
0 -5 32 -3 70 4 59 2 70 -12 70 -14 0 -16 -16 -16 -120z"/>
<path d="M1129 323 c-15 -38 -36 -92 -48 -120 -16 -42 -18 -53 -7 -53 8 0 19
14 25 30 10 29 12 30 69 30 57 0 60 -1 72 -30 7 -16 18 -30 25 -30 18 0 -76
234 -96 238 -9 2 -23 -21 -40 -65z m66 -25 c11 -29 21 -56 23 -60 2 -5 -19 -8
-47 -8 -28 0 -51 2 -51 4 0 13 44 116 49 116 3 0 15 -24 26 -52z"/>
<path d="M1310 270 c0 -73 4 -120 10 -120 6 0 10 25 10 55 l0 55 70 0 70 0 0
-55 c0 -37 4 -55 13 -55 9 0 12 31 12 120 0 89 -3 120 -12 120 -9 0 -13 -18
-13 -55 l0 -55 -70 0 -70 0 0 55 c0 30 -4 55 -10 55 -6 0 -10 -47 -10 -120z"/>
</g>
</svg>
