<?xml version="1.0" standalone="no"?>
<!DOCTYPE svg PUBLIC "-//W3C//DTD SVG 20010904//EN"
 "http://www.w3.org/TR/2001/REC-SVG-20010904/DTD/svg10.dtd">
<svg version="1.0" xmlns="http://www.w3.org/2000/svg"
 width="500.000000pt" height="172.000000pt" viewBox="0 0 500.000000 172.000000"
 preserveAspectRatio="xMidYMid meet">

<g transform="translate(0.000000,172.000000) scale(0.100000,-0.100000)"
fill="#fff" stroke="none">
<path d="M759 1710 c-285 -34 -537 -208 -664 -459 -158 -315 -106 -697 131
-957 l53 -59 2 110 c2 142 5 127 -41 225 -54 116 -74 219 -67 337 11 164 71
303 180 420 137 146 295 216 492 216 362 2 650 -267 682 -639 7 -86 -16 -209
-58 -309 -27 -65 -29 -79 -29 -199 l0 -130 31 30 c83 77 174 256 203 396 58
281 -28 569 -229 772 -179 180 -443 275 -686 246z"/>
<path d="M420 385 l0 -365 235 0 235 0 0 65 0 65 -155 0 -155 0 0 300 0 300
-80 0 -80 0 0 -365z"/>
<path d="M730 496 l0 -256 80 0 80 0 0 191 0 192 83 -5 c100 -5 141 -26 177
-90 22 -38 25 -55 25 -143 0 -78 -4 -108 -19 -138 -23 -47 -76 -84 -133 -93
l-43 -7 0 -65 0 -65 68 6 c37 3 84 13 105 22 60 25 121 88 153 158 27 58 29
70 29 187 -1 113 -3 130 -26 181 -31 66 -84 120 -148 151 -42 21 -62 23 -238
26 l-193 3 0 -255z"/>
<path d="M1746 652 c-5 -8 115 -440 129 -462 10 -16 44 -11 53 8 11 20 132
435 132 451 0 6 -13 11 -29 11 -33 0 -29 10 -92 -227 -18 -68 -35 -123 -38
-123 -3 0 -27 78 -52 173 -43 164 -47 172 -71 175 -14 2 -29 -1 -32 -6z"/>
<path d="M2127 653 c-4 -3 -7 -109 -7 -235 l0 -228 140 0 140 0 0 25 c0 24 -1
24 -107 27 l-108 3 0 80 0 80 93 3 c90 3 92 3 92 27 0 25 -1 25 -95 25 l-95 0
0 70 0 70 98 0 c54 0 101 2 104 5 3 3 3 17 0 30 -4 25 -4 25 -126 25 -68 0
-126 -3 -129 -7z"/>
<path d="M2565 650 c-66 -27 -105 -114 -105 -235 0 -98 12 -139 53 -183 78
-82 213 -47 232 61 13 78 12 82 -20 82 -28 0 -30 -3 -37 -48 -8 -61 -31 -87
-74 -87 -50 0 -81 43 -89 125 -13 120 13 214 66 235 54 23 99 -17 99 -86 0
-20 5 -24 30 -24 27 0 30 3 30 30 0 99 -97 167 -185 130z"/>
<path d="M2814 645 c-13 -32 4 -45 56 -45 l50 0 0 -205 0 -205 30 0 30 0 0
205 0 205 55 0 c54 0 55 0 55 30 l0 30 -135 0 c-111 0 -137 -3 -141 -15z"/>
<path d="M3229 637 c-47 -31 -70 -83 -76 -175 -7 -105 10 -185 50 -229 78 -85
205 -50 237 65 16 60 12 220 -8 272 -33 85 -129 117 -203 67z m124 -57 c45
-53 48 -239 6 -309 -17 -28 -24 -32 -56 -29 -59 5 -77 40 -81 154 -5 118 3
159 33 190 33 33 68 31 98 -6z"/>
<path d="M3518 654 c-5 -4 -8 -110 -8 -236 l0 -228 30 0 29 0 3 98 3 97 35 3
35 3 50 -101 c45 -91 52 -100 77 -100 15 0 28 5 28 10 0 6 -21 52 -46 102
l-46 91 24 19 c12 9 26 18 29 18 13 0 31 61 31 101 -1 45 -20 81 -57 105 -26
17 -204 32 -217 18z m189 -76 c16 -15 23 -33 23 -58 0 -53 -26 -72 -97 -74
l-58 -1 -3 64 c-4 88 -2 91 60 91 39 0 57 -5 75 -22z"/>
<path d="M4215 648 c-3 -7 -4 -112 -3 -233 l3 -220 143 -3 142 -3 0 26 0 25
-110 0 -110 0 -2 208 -3 207 -28 3 c-16 2 -29 -2 -32 -10z"/>
<path d="M4568 654 c-5 -4 -8 -110 -8 -236 l0 -228 70 0 c117 0 180 38 205
124 39 131 4 280 -76 321 -32 17 -180 32 -191 19z m161 -70 c35 -25 52 -77 52
-164 0 -127 -28 -169 -114 -173 l-42 -2 -3 165 c-1 90 0 170 2 177 7 18 77 16
105 -3z"/>
<path d="M3848 444 c-4 -3 -4 -12 -1 -20 4 -11 36 -14 160 -14 142 0 154 1
151 18 -3 15 -20 17 -154 20 -82 1 -153 0 -156 -4z"/>
</g>
</svg>
