<?xml version="1.0" standalone="no"?>
<!DOCTYPE svg PUBLIC "-//W3C//DTD SVG 20010904//EN"
 "http://www.w3.org/TR/2001/REC-SVG-20010904/DTD/svg10.dtd">
<svg version="1.0" xmlns="http://www.w3.org/2000/svg"
 width="1080.000000pt" height="1080.000000pt" viewBox="0 0 1080.000000 1080.000000"
 preserveAspectRatio="xMidYMid meet">

<g transform="translate(0.000000,1080.000000) scale(0.100000,-0.100000)"
fill="#F26F21FF" stroke="none">
<path d="M7000 9223 c-166 -28 -332 -147 -442 -317 -94 -146 -183 -372 -227
-576 -48 -225 -112 -861 -137 -1362 -6 -112 -10 -138 -23 -143 -11 -4 -24 4
-41 26 -110 145 -202 252 -310 360 -227 228 -419 352 -684 442 -105 36 -133
41 -211 41 -106 1 -149 -17 -224 -92 -89 -89 -220 -308 -289 -482 -96 -243
-154 -642 -113 -782 47 -163 300 -259 733 -276 l170 -7 -118 -80 c-129 -87
-713 -522 -812 -604 -65 -54 -74 -77 -45 -107 16 -15 35 -16 190 -10 95 4 200
4 233 0 l60 -7 -72 -136 c-295 -562 -479 -823 -799 -1137 -136 -132 -288 -263
-481 -412 -59 -45 -116 -94 -127 -109 -27 -33 -27 -94 -1 -148 47 -98 220
-250 465 -410 437 -285 862 -464 1490 -625 421 -109 814 -167 1250 -185 309
-13 533 37 623 140 42 47 41 75 -7 216 -75 216 -132 482 -163 764 -17 158 -17
695 0 880 20 210 68 545 78 545 2 0 57 -42 122 -93 204 -161 214 -166 242
-132 14 17 13 22 -147 530 -115 366 -233 747 -233 756 0 4 48 -22 108 -58 149
-90 416 -219 538 -259 347 -113 492 -79 599 141 82 169 164 451 186 636 14
124 6 382 -15 480 -14 63 -49 144 -78 179 -115 139 -547 192 -926 114 -174
-36 -356 -99 -577 -201 -77 -36 -147 -65 -155 -66 -38 -4 -13 49 111 243 327
509 439 700 584 995 210 427 270 642 244 872 -23 204 -106 331 -268 413 -77
39 -212 58 -301 43z m251 -72 c123 -47 206 -132 250 -256 30 -84 37 -260 15
-375 -50 -267 -232 -641 -613 -1264 -75 -121 -176 -291 -225 -376 -49 -85 -93
-158 -97 -162 -3 -4 -29 8 -55 27 -62 44 -141 74 -217 82 l-59 6 0 41 c0 231
80 1105 126 1368 41 242 157 537 269 686 88 117 236 216 360 241 69 14 184 5
246 -18z m-2119 -1534 c323 -109 608 -327 895 -687 l92 -114 -52 -29 c-66 -36
-94 -63 -134 -129 -44 -72 -67 -167 -59 -240 3 -32 4 -58 2 -58 -2 0 -50 18
-107 41 -240 95 -481 135 -749 126 -236 -9 -437 -55 -601 -137 -33 -17 -64
-28 -67 -25 -17 16 -13 163 8 292 44 275 118 510 227 713 78 147 145 226 238
279 40 23 190 7 307 -32z m2870 -717 c133 -27 202 -55 244 -97 76 -76 99 -186
91 -438 -8 -245 -34 -382 -122 -637 -54 -157 -75 -204 -115 -263 l-32 -47 -40
62 c-22 34 -79 101 -127 149 -301 305 -732 493 -1183 518 l-117 6 28 41 c49
72 66 132 65 226 -1 62 -7 101 -24 143 -12 32 -20 60 -18 63 2 2 47 23 99 48
288 134 574 220 819 247 112 12 320 1 432 -21z m-1611 -120 c177 -54 267 -181
257 -363 -3 -69 -9 -92 -38 -145 -38 -72 -73 -105 -150 -141 -47 -22 -69 -26
-150 -26 -86 0 -101 3 -162 32 -131 62 -207 167 -216 298 -16 258 205 424 459
345z m-1136 -310 c232 -20 383 -53 557 -122 69 -27 82 -36 99 -69 10 -21 33
-54 50 -74 35 -40 37 -39 -66 -55 -287 -44 -742 -63 -978 -41 -223 21 -439 85
-509 152 -22 21 -38 44 -36 51 16 50 305 144 493 161 87 8 276 6 390 -3z m823
-364 c20 -14 61 -32 89 -41 29 -10 51 -21 48 -25 -3 -4 -118 -102 -256 -216
-139 -115 -453 -376 -698 -581 -245 -205 -446 -371 -448 -370 -1 2 18 77 43
167 61 224 60 221 34 245 -21 19 -37 20 -311 20 -159 0 -288 3 -287 7 10 26
560 451 850 655 l127 90 150 7 c147 6 453 38 541 55 69 14 78 13 118 -13z
m697 4 c196 -23 356 -69 566 -165 316 -143 540 -309 659 -490 l40 -60 -33 -17
c-88 -47 -343 2 -592 114 -190 85 -442 230 -640 367 -97 67 -232 167 -262 194
l-23 20 38 23 c43 27 102 30 247 14z m-192 -164 c78 -57 180 -129 227 -160
l85 -56 49 -162 c27 -90 88 -289 137 -443 105 -336 199 -655 192 -655 -2 0
-34 24 -71 53 -190 151 -353 267 -375 267 -35 0 -50 -23 -98 -147 -24 -62 -46
-113 -49 -113 -3 0 -36 100 -74 223 -195 631 -291 947 -332 1086 l-44 153 27
22 c25 19 64 27 161 34 16 1 71 -33 165 -102z m-349 -103 c115 -476 374 -1340
414 -1386 9 -10 25 -17 36 -15 17 2 31 31 77 155 30 84 57 155 60 157 2 3 28
-16 57 -42 l53 -47 -26 -140 c-68 -366 -97 -754 -83 -1105 11 -285 51 -541
123 -797 19 -67 35 -125 35 -128 0 -4 -21 12 -47 35 -73 64 -190 138 -383 240
-535 285 -1150 530 -1647 654 -368 92 -754 131 -1234 125 l-264 -4 121 96
c547 436 821 782 1145 1442 l82 167 54 0 c47 0 54 -2 49 -17 -72 -231 -116
-383 -116 -405 0 -35 25 -47 56 -27 22 14 194 157 963 801 234 196 431 357
436 357 6 1 24 -52 39 -116z m-2109 -2363 c150 -11 313 -27 357 -36 l27 -5
-29 -52 c-64 -114 -78 -286 -32 -405 61 -159 244 -297 428 -323 212 -30 400
67 489 251 36 76 59 186 53 251 -2 21 0 39 5 39 14 0 330 -122 487 -188 220
-93 761 -367 882 -448 125 -83 242 -195 251 -242 12 -61 -26 -101 -141 -148
-113 -45 -223 -57 -477 -51 -641 16 -1340 159 -1940 398 -670 266 -1279 704
-1219 877 10 31 76 68 145 81 62 12 547 13 714 1z m612 -79 c157 -33 289 -69
493 -135 l135 -44 3 -63 c7 -129 -38 -248 -125 -330 -172 -162 -441 -152 -630
24 -100 94 -143 189 -143 317 0 116 57 260 103 260 12 0 86 -13 164 -29z"/>
<path d="M6969 8996 c-46 -16 -121 -70 -146 -105 -60 -80 -78 -156 -38 -156
15 0 29 19 56 72 19 40 44 82 55 94 29 33 97 69 144 77 23 4 42 12 43 17 3 15
-73 16 -114 1z"/>
<path d="M6181 6708 c-69 -19 -121 -77 -121 -132 0 -37 31 -31 41 8 17 64 96
109 181 105 66 -4 75 16 12 25 -57 7 -70 7 -113 -6z"/>
<path d="M6305 3433 c6 -5 33 -15 60 -21 72 -18 220 -92 290 -145 72 -54 88
-51 25 5 -66 60 -136 102 -216 131 -74 27 -176 46 -159 30z"/>
<path d="M6110 3342 c0 -4 43 -20 96 -35 191 -54 407 -159 508 -249 53 -46 75
-44 30 3 -99 104 -309 210 -524 263 -98 25 -110 27 -110 18z"/>
<path d="M5946 3221 c5 -4 38 -16 74 -26 104 -28 229 -79 377 -154 169 -86
275 -155 359 -234 36 -33 68 -56 72 -52 10 10 -96 106 -213 193 -131 96 -277
168 -468 231 -142 47 -226 64 -201 42z"/>
<path d="M2511 4684 c-158 -88 -311 -226 -409 -367 -94 -137 -226 -427 -201
-443 14 -8 11 -12 51 87 102 257 315 516 561 684 48 32 87 62 87 67 0 15 -25
8 -89 -28z"/>
<path d="M3121 4501 c-219 -132 -418 -321 -555 -526 -126 -189 -245 -494 -272
-696 -11 -82 17 -58 36 32 55 250 162 476 339 714 138 185 349 381 514 478 46
27 60 47 34 47 -8 0 -51 -22 -96 -49z"/>
<path d="M7850 3264 c0 -3 9 -40 19 -82 129 -513 90 -1136 -95 -1504 -36 -72
-42 -98 -21 -98 28 0 136 246 181 413 54 200 61 257 61 507 -1 251 -12 350
-71 591 -40 168 -44 179 -59 179 -8 0 -15 -3 -15 -6z"/>
<path d="M8338 3005 c-3 -3 7 -43 23 -88 49 -143 62 -247 56 -462 -6 -212 -19
-288 -73 -429 -22 -57 -31 -93 -25 -99 41 -41 161 375 161 558 0 130 -46 347
-102 478 -19 45 -28 54 -40 42z"/>
</g>
</svg>
