<?xml version="1.0" encoding="UTF-8" standalone="no"?>
<!-- Generator: Adobe Illustrator 28.1.0, SVG Export Plug-In . SVG Version: 6.00 Build 0)  -->

<svg
   version="1.1"
   id="Слой_1"
   x="0px"
   y="0px"
   viewBox="0 0 714 734"
   xml:space="preserve"
   sodipodi:docname="shortLogoYearFamily.svg"
   width="714"
   height="734"
   inkscape:version="1.3.2 (091e20e, 2023-11-25, custom)"
   xmlns:inkscape="http://www.inkscape.org/namespaces/inkscape"
   xmlns:sodipodi="http://sodipodi.sourceforge.net/DTD/sodipodi-0.dtd"
   xmlns="http://www.w3.org/2000/svg"
   xmlns:svg="http://www.w3.org/2000/svg"><defs
   id="defs2" /><sodipodi:namedview
   id="namedview2"
   pagecolor="#ffffff"
   bordercolor="#000000"
   borderopacity="0.25"
   inkscape:showpageshadow="2"
   inkscape:pageopacity="0.0"
   inkscape:pagecheckerboard="0"
   inkscape:deskcolor="#d1d1d1"
   inkscape:zoom="0.70520833"
   inkscape:cx="960"
   inkscape:cy="538.13885"
   inkscape:window-width="1920"
   inkscape:window-height="1001"
   inkscape:window-x="-9"
   inkscape:window-y="-9"
   inkscape:window-maximized="1"
   inkscape:current-layer="Слой_1" />
	<style
   type="text/css"
   id="style1">
	.st0{fill:#FF6699;}
	.st1{fill:#fff;}
</style>
	<g
   id="g2"
   transform="translate(-604.07681,-171.5805)">
	<path
   class="st0"
   d="m 1023.64,881.75 3.17,-5.04 L 838.62,585.94 C 824.81,564.63 811.8,544.23 799.56,524.77 787.33,505.33 777.3,485.1 769.45,464.08 c -7.83,-21.01 -11.77,-44.06 -11.77,-69.16 0,-28.24 5.05,-49.87 15.06,-64.93 10.05,-15.06 25.74,-22.59 47.07,-22.59 20.06,0 35.74,5.64 47.02,16.93 11.3,11.29 18.99,26.05 23.07,44.23 4.08,18.2 6.12,38.27 6.12,60.22 v 32 h 127.96 V 426.9 c 0,-45.17 -6.72,-84.84 -20.22,-119.03 -13.48,-34.19 -34.96,-61 -64.47,-80.46 -29.47,-19.44 -68.06,-29.18 -115.73,-29.18 -65.23,0 -114.16,17.57 -146.79,52.7 -32.62,35.14 -48.95,84.08 -48.95,146.79 0,31.38 4.4,59.75 13.2,85.16 8.78,25.41 20.38,49.72 34.79,72.93 14.45,23.21 30.11,47.05 47.07,71.51 l 156.2,237.14 10.85,17.27 h 133.71 z"
   id="path1" />
		<path
   class="st1"
   d="m 1120.46,524.78 c -12.25,19.46 -25.27,39.85 -39.06,61.17 l -191.47,295.8 h 140.12 l 10.86,-17.27 156.22,-237.14 c 16.96,-24.46 32.62,-48.3 47.05,-71.51 14.43,-23.21 26.01,-47.52 34.82,-72.93 8.78,-25.41 13.18,-53.79 13.18,-85.16 0,-62.72 -16.33,-111.65 -48.95,-146.79 -32.62,-35.13 -81.54,-52.7 -146.77,-52.7 -47.7,0 -86.27,9.74 -115.75,29.18 -29.49,19.46 -50.99,46.27 -64.47,80.46 -13.48,34.19 -20.22,73.86 -20.22,119.03 V 460.8 H 1024 v -32 c 0,-21.95 2.02,-42.02 6.12,-60.22 4.08,-18.18 11.77,-32.94 23.05,-44.23 11.28,-11.29 26.96,-16.93 47.05,-16.93 21.31,0 37.02,7.53 47.05,22.59 10.03,15.06 15.06,36.69 15.06,64.93 0,25.1 -3.91,48.15 -11.77,69.16 -7.86,21.01 -17.87,41.24 -30.1,60.68 z"
   id="path2" />
</g>
</svg>
