<svg width="420" height="300" viewBox="0 0 420 300" fill="none" xmlns="http://www.w3.org/2000/svg">
<path fill-rule="evenodd" clip-rule="evenodd" d="M107.853 273.69L160.562 266.714C162.512 266.45 164.475 266.318 166.438 266.32V292.498C165.631 292.498 164.823 292.549 164.02 292.652L111.311 299.618C101.59 300.899 91.7179 298.936 83.2273 294.034C74.7368 289.132 68.1029 281.564 64.3557 272.507L44.0481 223.376C43.426 221.906 42.6165 220.523 41.6396 219.261L9.18668 177.075C3.22885 169.304 0 159.786 0 149.995C0 140.203 3.22885 130.685 9.18668 122.914L41.5881 80.7287C42.5674 79.4679 43.3772 78.0843 43.9967 76.6131L64.3557 27.4828C68.1061 18.4282 74.7409 10.864 83.231 5.96381C91.721 1.06359 101.591 -0.898684 111.311 0.381415L163.969 7.33682C164.788 7.44781 165.613 7.50178 166.438 7.49873V33.6792C164.458 33.6834 162.477 33.5523 160.51 33.2858L107.801 26.3201C103.803 25.8009 99.7444 26.6118 96.2528 28.6276C92.7611 30.6433 90.0303 33.7519 88.4818 37.4735L68.1742 86.6037C66.6978 90.2118 64.7455 93.6064 62.3691 96.6973L29.9677 138.882C27.4997 142.075 26.1609 145.996 26.1609 150.031C26.1609 154.065 27.4997 157.986 29.9677 161.179L62.4206 203.292C64.797 206.387 66.7493 209.785 68.2257 213.396L88.5332 262.547C90.0763 266.272 92.8065 269.383 96.2998 271.398C99.7932 273.413 103.854 274.219 107.853 273.69ZM224.962 273.689L172.309 266.713C170.361 266.449 168.4 266.317 166.439 266.319V292.497C167.246 292.497 168.052 292.548 168.854 292.651L221.507 299.617C231.218 300.898 241.08 298.935 249.561 294.033C258.043 289.13 264.669 281.563 268.413 272.505L288.699 223.375C289.32 221.906 290.129 220.522 291.105 219.26L300.012 207.669C290.441 212.977 279.429 215.999 267.71 215.999C266.305 215.999 264.909 215.956 263.525 215.87L244.261 262.546C242.719 266.271 239.992 269.382 236.503 271.397C233.013 273.412 228.956 274.218 224.962 273.689ZM262.972 82.6654L244.312 37.4733C242.765 33.7518 240.037 30.6432 236.55 28.6274C233.062 26.6117 229.008 25.8008 225.013 26.32L172.36 33.2857C170.396 33.5522 168.417 33.6833 166.439 33.6791V7.4987C167.263 7.50175 168.087 7.44778 168.906 7.33679L221.507 0.381413C231.217 -0.898681 241.077 1.06359 249.557 5.96378C258.038 10.864 264.666 18.4281 268.413 27.4827L288.75 76.6128C289.369 78.084 290.178 79.4676 291.156 80.7284L298.14 89.8304C289.016 85.1442 278.672 82.4997 267.71 82.4997C266.117 82.4997 264.537 82.5555 262.972 82.6654Z" fill="#fff"/>
<path d="M374.272 196.678C364.898 196.678 356.794 194.725 349.961 190.818C343.216 186.824 338.003 181.311 334.324 174.278C330.644 167.159 328.805 158.824 328.805 149.274C328.805 139.724 330.601 131.432 334.192 124.4C337.872 117.28 343.128 111.767 349.961 107.86C356.794 103.953 364.898 102 374.272 102C383.645 102 391.749 103.953 398.582 107.86C405.415 111.767 410.671 117.28 414.351 124.4C418.118 131.432 420.001 139.68 420.001 149.144C420.001 158.694 418.118 167.029 414.351 174.148C410.671 181.268 405.371 186.824 398.45 190.818C391.617 194.725 383.558 196.678 374.272 196.678ZM374.272 179.488C382.156 179.488 388.157 176.84 392.274 171.544C396.392 166.161 398.45 158.738 398.45 149.274C398.45 139.724 396.392 132.344 392.274 127.135C388.244 121.839 382.244 119.191 374.272 119.191C366.212 119.191 360.167 121.839 356.137 127.135C352.195 132.344 350.224 139.724 350.224 149.274C350.224 158.738 352.195 166.161 356.137 171.544C360.167 176.84 366.212 179.488 374.272 179.488Z" fill="#fff"/>
<path d="M267.148 196.678C260.753 196.678 254.708 195.723 249.014 193.813C243.319 191.816 238.633 189.168 234.953 185.869L241.392 169.851C245.422 172.976 249.452 175.277 253.482 176.753C257.511 178.229 261.848 178.967 266.491 178.967C274.2 178.967 280.376 177.1 285.019 173.367C289.75 169.547 292.728 163.86 293.955 156.307H252.824V140.679H293.561C292.247 133.907 289.312 128.741 284.756 125.181C280.289 121.535 274.463 119.711 267.279 119.711C262.549 119.711 258.125 120.406 254.007 121.795C249.977 123.184 245.772 125.485 241.392 128.697L234.953 112.809C239.071 109.51 243.976 106.905 249.671 104.995C255.453 102.998 261.541 102 267.936 102C277.836 102 286.333 103.953 293.429 107.86C300.525 111.767 305.957 117.28 309.724 124.4C313.578 131.432 315.506 139.724 315.506 149.274C315.506 158.911 313.578 167.289 309.724 174.409C305.957 181.441 300.438 186.911 293.166 190.818C285.983 194.725 277.31 196.678 267.148 196.678Z" fill="#fff"/>
<path d="M124.445 195.243V103.43H142.448L172.54 170.499L202.632 103.43H220.504V195.243H201.844V144.192L178.322 195.243H166.496L143.105 144.713V195.243H124.445Z" fill="#fff"/>
</svg>
