<?xml version="1.0" encoding="UTF-8" standalone="no"?>
<svg
   width="199"
   height="48"
   viewBox="0 0 199 48"
   fill="none"
   version="1.1"
   id="svg12"
   sodipodi:docname="ModumLab.svg"
   inkscape:version="1.3.2 (091e20e, 2023-11-25, custom)"
   xmlns:inkscape="http://www.inkscape.org/namespaces/inkscape"
   xmlns:sodipodi="http://sodipodi.sourceforge.net/DTD/sodipodi-0.dtd"
   xmlns="http://www.w3.org/2000/svg"
   xmlns:svg="http://www.w3.org/2000/svg">
  <sodipodi:namedview
     id="namedview12"
     pagecolor="#ffffff"
     bordercolor="#000000"
     borderopacity="0.25"
     inkscape:showpageshadow="2"
     inkscape:pageopacity="0.0"
     inkscape:pagecheckerboard="0"
     inkscape:deskcolor="#d1d1d1"
     inkscape:zoom="6.8040201"
     inkscape:cx="99.5"
     inkscape:cy="24.029911"
     inkscape:window-width="1920"
     inkscape:window-height="1001"
     inkscape:window-x="-9"
     inkscape:window-y="-9"
     inkscape:window-maximized="1"
     inkscape:current-layer="svg12" />
  <path
     d="M42 11.8001C42 11.8 42 11.8 42 11.7999C42 10.8059 41.1941 10 40.2001 10C40.2 10 40.2 10 40.1999 10V10C40.1991 10 40.1987 10 40.1984 10C28.1431 10.0004 18.563 20.1275 19.2313 32.1642C19.2314 32.1645 19.2314 32.1649 19.2314 32.1658L19.4241 35.6345C19.4337 35.8071 19.4385 35.8934 19.4514 35.9665C19.5469 36.5096 19.987 36.926 20.5346 36.9912C20.6083 37 20.6947 37 20.8676 37H22.08C29.4812 37 33.1817 37 35.9455 35.4236C37.8123 34.3588 39.3588 32.8123 40.4236 30.9455C42 28.1817 42 24.4812 42 17.08V11.8001Z"
     fill="#77D9FE"
     id="path1" />
  <g
     style="mix-blend-mode:overlay"
     opacity="0.2"
     id="g2">
    <path
       d="M42 11.8001C42 11.8 42 11.8 42 11.7999C42 10.8059 41.1941 10 40.2001 10C40.2 10 40.2 10 40.1999 10V10C40.1991 10 40.1987 10 40.1984 10C28.1431 10.0004 18.563 20.1275 19.2313 32.1642C19.2314 32.1645 19.2314 32.1649 19.2314 32.1658L19.4241 35.6345C19.4337 35.8071 19.4385 35.8934 19.4514 35.9665C19.5469 36.5096 19.987 36.926 20.5346 36.9912C20.6083 37 20.6947 37 20.8676 37H22.08C29.4812 37 33.1817 37 35.9455 35.4236C37.8123 34.3588 39.3588 32.8123 40.4236 30.9455C42 28.1817 42 24.4812 42 17.08V11.8001Z"
       fill="url(#paint0_linear_1851_15526)"
       id="path2" />
  </g>
  <path
     d="M6 15.1998C6 13.9849 6.98487 13 8.19976 13V13C20.039 13 29.4475 22.9457 28.7907 34.7667L28.5759 38.6345C28.5663 38.8071 28.5615 38.8934 28.5486 38.9665C28.4531 39.5096 28.013 39.926 27.4654 39.9912C27.3917 40 27.3053 40 27.1324 40H25.92C18.5188 40 14.8183 40 12.0545 38.4236C10.1877 37.3588 8.6412 35.8123 7.57642 33.9455C6 31.1817 6 27.4812 6 20.08V15.1998Z"
     fill="#0195FF"
     id="path3" />
  <g
     style="mix-blend-mode:overlay"
     opacity="0.2"
     id="g4">
    <path
       d="M6 15.1998C6 13.9849 6.98487 13 8.19976 13V13C20.039 13 29.4475 22.9457 28.7907 34.7667L28.5759 38.6345C28.5663 38.8071 28.5615 38.8934 28.5486 38.9665C28.4531 39.5096 28.013 39.926 27.4654 39.9912C27.3917 40 27.3053 40 27.1324 40H25.92C18.5188 40 14.8183 40 12.0545 38.4236C10.1877 37.3588 8.6412 35.8123 7.57642 33.9455C6 31.1817 6 27.4812 6 20.08V15.1998Z"
       fill="url(#paint1_linear_1851_15526)"
       id="path4" />
  </g>
  <path
     fill-rule="evenodd"
     clip-rule="evenodd"
     d="M28.6707 36.9302L28.7908 34.7668C29.1281 28.696 26.8107 23.1198 22.8727 19.1313C20.3444 22.8148 18.9634 27.3359 19.2314 32.1643L19.2315 32.1659L19.41 35.378C19.4206 35.5697 19.426 35.6656 19.4395 35.747C19.55 36.4093 20.0872 36.9175 20.7547 36.9911C20.8366 37.0001 20.9327 37.0001 21.1248 37.0001H22.0801C24.6997 37.0001 26.8557 37.0001 28.6707 36.9302Z"
     fill="#0068FA"
     id="path5" />
  <g
     style="mix-blend-mode:overlay"
     opacity="0.2"
     id="g6">
    <path
       fill-rule="evenodd"
       clip-rule="evenodd"
       d="M28.6707 36.9302L28.7908 34.7668C29.1281 28.696 26.8107 23.1198 22.8727 19.1313C20.3444 22.8148 18.9634 27.3359 19.2314 32.1643L19.2315 32.1659L19.4242 35.6346C19.4338 35.8072 19.4386 35.8936 19.4515 35.9666C19.547 36.5097 19.9871 36.9261 20.5347 36.9913C20.6084 37.0001 20.6948 37.0001 20.8677 37.0001H22.0801C24.6997 37.0001 26.8557 37.0001 28.6707 36.9302Z"
       fill="url(#paint2_linear_1851_15526)"
       id="path6" />
  </g>
  <path
     d="M69.834 17.662C68.04 17.662 66.714 18.338 65.856 19.716C65.05 18.338 63.828 17.662 62.164 17.662C60.526 17.662 59.278 18.286 58.446 19.56V18H55.638V31H58.446V23.72C58.446 21.458 59.642 20.288 61.332 20.288C62.892 20.288 63.776 21.328 63.776 23.122V31H66.584V23.72C66.584 21.432 67.676 20.288 69.418 20.288C70.978 20.288 71.94 21.328 71.94 23.122V31H74.748V22.94C74.748 19.716 72.772 17.662 69.834 17.662ZM84.1492 31.338C86.0732 31.338 87.6852 30.688 89.0112 29.362C90.3372 28.036 91.0132 26.424 91.0132 24.5C91.0132 22.576 90.3372 20.964 89.0112 19.638C87.6852 18.312 86.0732 17.662 84.1492 17.662C82.2512 17.662 80.6132 18.312 79.2872 19.638C77.9612 20.964 77.2852 22.576 77.2852 24.5C77.2852 26.424 77.9612 28.036 79.2872 29.362C80.6132 30.688 82.2512 31.338 84.1492 31.338ZM81.2632 27.438C80.4832 26.658 80.0932 25.67 80.0932 24.5C80.0932 23.33 80.4832 22.342 81.2632 21.562C82.0432 20.782 83.0052 20.392 84.1492 20.392C85.2932 20.392 86.2552 20.782 87.0352 21.562C87.8152 22.342 88.2052 23.33 88.2052 24.5C88.2052 25.67 87.8152 26.658 87.0352 27.438C86.2552 28.218 85.2932 28.608 84.1492 28.608C83.0052 28.608 82.0432 28.218 81.2632 27.438ZM104.108 19.846C103.042 18.39 101.534 17.662 99.5583 17.662C97.7643 17.662 96.2563 18.312 94.9823 19.638C93.7083 20.964 93.0843 22.576 93.0843 24.5C93.0843 26.398 93.7083 28.036 94.9823 29.362C96.2563 30.688 97.7643 31.338 99.5583 31.338C101.534 31.338 103.042 30.61 104.108 29.128V31H106.916V12.8H104.108V19.846ZM97.0623 27.49C96.2823 26.684 95.8923 25.696 95.8923 24.5C95.8923 23.304 96.2823 22.316 97.0623 21.536C97.8423 20.73 98.8303 20.34 100 20.34C101.17 20.34 102.158 20.73 102.938 21.536C103.718 22.316 104.108 23.304 104.108 24.5C104.108 25.696 103.718 26.684 102.938 27.49C102.158 28.27 101.17 28.66 100 28.66C98.8303 28.66 97.8423 28.27 97.0623 27.49ZM119.211 24.968C119.211 27.49 117.885 28.712 115.909 28.712C114.115 28.712 112.997 27.646 112.997 25.696V18H110.189V25.982C110.189 29.31 112.191 31.338 115.181 31.338C117.027 31.338 118.353 30.662 119.211 29.336V31H122.019V18H119.211V24.968ZM139.759 17.662C137.965 17.662 136.639 18.338 135.781 19.716C134.975 18.338 133.753 17.662 132.089 17.662C130.451 17.662 129.203 18.286 128.371 19.56V18H125.563V31H128.371V23.72C128.371 21.458 129.567 20.288 131.257 20.288C132.817 20.288 133.701 21.328 133.701 23.122V31H136.509V23.72C136.509 21.432 137.601 20.288 139.343 20.288C140.903 20.288 141.865 21.328 141.865 23.122V31H144.673V22.94C144.673 19.716 142.697 17.662 139.759 17.662ZM157.506 31V12.02H154.698V31H157.506ZM171.322 19.846C170.256 18.39 168.748 17.662 166.772 17.662C164.978 17.662 163.47 18.312 162.196 19.638C160.922 20.964 160.298 22.576 160.298 24.5C160.298 26.398 160.922 28.036 162.196 29.362C163.47 30.688 164.978 31.338 166.772 31.338C168.748 31.338 170.256 30.61 171.322 29.128V31H174.13V18H171.322V19.846ZM164.276 27.49C163.496 26.684 163.106 25.696 163.106 24.5C163.106 23.304 163.496 22.316 164.276 21.536C165.056 20.73 166.044 20.34 167.214 20.34C168.384 20.34 169.372 20.73 170.152 21.536C170.932 22.316 171.322 23.304 171.322 24.5C171.322 25.696 170.932 26.684 170.152 27.49C169.372 28.27 168.384 28.66 167.214 28.66C166.044 28.66 165.056 28.27 164.276 27.49ZM185.021 17.662C183.045 17.662 181.537 18.39 180.471 19.846V12.8H177.663V31H180.471V29.128C181.537 30.61 183.045 31.338 185.021 31.338C186.815 31.338 188.323 30.688 189.597 29.362C190.871 28.036 191.495 26.398 191.495 24.5C191.495 22.576 190.871 20.964 189.597 19.638C188.323 18.312 186.815 17.662 185.021 17.662ZM181.641 27.49C180.861 26.684 180.471 25.696 180.471 24.5C180.471 23.304 180.861 22.316 181.641 21.536C182.421 20.73 183.409 20.34 184.579 20.34C185.749 20.34 186.737 20.73 187.517 21.536C188.297 22.316 188.687 23.304 188.687 24.5C188.687 25.696 188.297 26.684 187.517 27.49C186.737 28.27 185.749 28.66 184.579 28.66C183.409 28.66 182.421 28.27 181.641 27.49Z"
     fill="#262A40"
     id="path7" />
  <defs
     id="defs12">
    <linearGradient
       id="paint0_linear_1851_15526"
       x1="42"
       y1="17.875"
       x2="20.625"
       y2="33.25"
       gradientUnits="userSpaceOnUse">
      <stop
         stop-color="white"
         id="stop7" />
      <stop
         offset="1"
         id="stop8" />
    </linearGradient>
    <linearGradient
       id="paint1_linear_1851_15526"
       x1="8.625"
       y1="26.5"
       x2="28.5"
       y2="37"
       gradientUnits="userSpaceOnUse">
      <stop
         stop-color="white"
         id="stop9" />
      <stop
         offset="1"
         id="stop10" />
    </linearGradient>
    <linearGradient
       id="paint2_linear_1851_15526"
       x1="22.5137"
       y1="19.8762"
       x2="22.5137"
       y2="37.0001"
       gradientUnits="userSpaceOnUse">
      <stop
         stop-color="white"
         id="stop11" />
      <stop
         offset="1"
         id="stop12" />
    </linearGradient>
  </defs>
  <path
     style="fill:#ffffff;stroke-width:0.146972"
     d="m 55.775849,24.470827 v -6.466765 h 1.322748 1.322747 v 0.841832 0.841833 L 58.86526,19.14918 c 0.244153,-0.2962 0.822855,-0.724323 1.286004,-0.951383 0.716395,-0.351214 1.01759,-0.411679 2.017865,-0.405086 1.446148,0.0095 2.319089,0.383133 3.140458,1.344053 l 0.560427,0.655643 0.354136,-0.418985 c 1.763848,-2.086844 5.310254,-2.171699 7.118379,-0.170321 1.201091,1.329465 1.390106,2.379341 1.39159,7.729506 l 0.0011,4.004985 h -1.396233 -1.396234 v -4.413878 c 0,-3.395408 -0.04626,-4.524589 -0.200474,-4.893679 -0.674559,-1.614448 -3.123792,-1.911272 -4.381685,-0.531019 -0.767981,0.842687 -0.855802,1.453376 -0.855802,5.951054 v 3.887522 h -1.314908 -1.314907 l -0.04458,-4.519387 c -0.03904,-3.957704 -0.07627,-4.577311 -0.299566,-4.985458 -1.060858,-1.939091 -4.340812,-1.414198 -4.953684,0.792741 -0.09043,0.325652 -0.154508,2.241244 -0.154989,4.633633 l -8.2e-4,4.078471 H 57.09859 55.775842 Z"
     id="path12" />
  <path
     style="fill:#ffffff;stroke-width:0.146972"
     d="m 82.480427,31.070524 c -2.279494,-0.536442 -4.412157,-2.693231 -4.943929,-4.999857 -0.366216,-1.58851 -0.04201,-3.696583 0.77406,-5.033114 0.574263,-0.940509 1.871658,-2.137961 2.81409,-2.59731 3.420168,-1.667017 7.525346,-0.234702 9.153483,3.193693 0.91535,1.927467 0.82833,4.403354 -0.218191,6.207972 -0.855977,1.476044 -2.270649,2.612079 -3.874268,3.111181 -0.95702,0.297858 -2.703381,0.353208 -3.705245,0.117435 z m 3.533976,-2.810697 c 1.447267,-0.680296 2.334585,-2.315568 2.208983,-4.071019 -0.167854,-2.345988 -1.800423,-3.851389 -4.144878,-3.822014 -1.049133,0.01315 -1.597719,0.192711 -2.462649,0.806085 -1.7965,1.274005 -2.110593,4.32589 -0.62396,6.062687 1.202575,1.404939 3.301867,1.833056 5.022504,1.024261 z"
     id="path13" />
  <path
     style="fill:#ffffff;stroke-width:0.146972"
     d="m 97.734418,30.975549 c -2.431812,-0.868563 -4.082694,-2.857944 -4.483193,-5.402432 -0.498058,-3.164309 1.258898,-6.317027 4.158951,-7.46291 0.576529,-0.227801 1.113911,-0.305156 2.16331,-0.311403 1.262544,-0.0075 1.487704,0.03491 2.351554,0.443057 0.52542,0.248252 1.2364,0.733978 1.57995,1.079392 l 0.62463,0.628026 v -3.544617 -3.544618 h 1.32274 1.32275 v 9.038774 9.038774 h -1.32275 -1.32274 V 29.95582 28.974047 l -0.52057,0.60817 c -0.30929,0.361329 -0.91466,0.802176 -1.49151,1.086162 -0.84134,0.414189 -1.1495,0.484154 -2.308643,0.524157 -1.005582,0.0347 -1.520625,-0.01917 -2.074479,-0.216987 z m 4.335792,-2.769883 c 0.89574,-0.487228 1.65709,-1.42805 1.92274,-2.376009 0.24917,-0.88912 0.10808,-2.614783 -0.27487,-3.361795 -0.42898,-0.836801 -1.49563,-1.737388 -2.34271,-1.977975 -1.01456,-0.288154 -2.419986,-0.217017 -3.203204,0.162132 -0.844226,0.408683 -1.872497,1.561125 -2.115413,2.370865 -0.105531,0.351779 -0.187788,1.08481 -0.182792,1.628958 0.01785,1.944718 1.051657,3.322977 2.964665,3.952468 0.202087,0.0665 0.834834,0.100299 1.406104,0.07512 0.81208,-0.0358 1.21033,-0.139155 1.82548,-0.47376 z"
     id="path14" />
  <path
     style="fill:#ffffff;stroke-width:0.146972"
     d="m 113.43771,30.959481 c -0.98849,-0.341595 -1.73968,-0.92565 -2.27404,-1.768078 -0.80502,-1.269107 -0.86123,-1.703666 -0.86123,-6.657887 v -4.529454 h 1.32274 1.32275 l 0.003,4.298929 c 0.003,3.865005 0.0306,4.358269 0.27456,4.886817 0.51676,1.11968 1.25116,1.543205 2.67594,1.543205 1.4304,0 2.34661,-0.520313 2.9762,-1.690177 0.29942,-0.556381 0.31879,-0.814345 0.3614,-4.813331 l 0.045,-4.225443 h 1.31447 1.31447 v 6.466765 6.466765 h -1.32275 -1.32274 v -0.823093 -0.823093 l -0.78889,0.720996 c -0.50791,0.464198 -1.06356,0.809707 -1.56008,0.970065 -0.99398,0.32102 -2.51465,0.310979 -3.48105,-0.02299 z"
     id="path15" />
  <path
     style="fill:#ffffff;stroke-width:0.146972"
     d="m 125.58752,24.470827 v -6.466765 h 1.32275 1.32274 v 0.808346 c 0,0.44459 0.0332,0.808345 0.0739,0.808345 0.0406,0 0.30573,-0.256643 0.58912,-0.570317 1.58354,-1.752794 4.94614,-1.695719 6.37488,0.108205 l 0.48308,0.609945 0.65316,-0.672046 c 0.90724,-0.933482 1.77015,-1.291339 3.14273,-1.303317 2.16457,-0.01889 3.52458,0.745803 4.40916,2.479128 l 0.5144,1.007963 0.0442,4.828639 0.0442,4.828639 h -1.33019 -1.3302 v -4.378016 c 0,-4.247881 -0.01,-4.397509 -0.33068,-5.033789 -0.46437,-0.920868 -1.33728,-1.364738 -2.49483,-1.268599 -1.04917,0.08714 -1.7056,0.480213 -2.17713,1.303682 -0.35898,0.626912 -0.36219,0.666354 -0.40663,5.004307 l -0.0448,4.372415 h -1.305 -1.305 l -0.0464,-4.445901 c -0.0451,-4.317572 -0.0562,-4.464249 -0.38575,-5.081578 -0.74289,-1.391765 -2.95152,-1.623786 -4.10566,-0.431306 -0.92955,0.960436 -0.97661,1.223678 -1.03799,5.806828 l -0.0556,4.151957 h -1.30919 -1.30918 z"
     id="path16" />
  <path
     style="fill:#ffffff;stroke-width:0.146972"
     d="m 154.83493,21.531388 v -9.406203 h 1.32275 1.32275 v 9.406203 9.406204 h -1.32275 -1.32275 z"
     id="path17" />
  <path
     style="fill:#ffffff;stroke-width:0.146972"
     d="m 165.04948,31.02546 c -2.17015,-0.68813 -3.97,-2.622338 -4.47384,-4.807821 -0.38856,-1.685448 -0.0717,-3.8742 0.76837,-5.307679 0.493,-0.841249 1.79456,-2.054479 2.68882,-2.506346 2.20469,-1.114027 4.86853,-0.795437 6.55019,0.783388 0.4263,0.400232 0.79413,0.727695 0.81741,0.727695 0.0233,0 0.0423,-0.429893 0.0423,-0.955317 v -0.955318 h 1.32275 1.32275 v 6.466765 6.466765 h -1.32275 -1.32275 v -0.986535 -0.986536 l -0.69811,0.666752 c -0.38397,0.366714 -0.86859,0.771637 -1.07694,0.899828 -1.0583,0.651133 -3.35012,0.896461 -4.61823,0.494359 z m 3.54382,-2.509593 c 0.97651,-0.289995 1.85944,-1.075691 2.36149,-2.101447 0.52507,-1.072802 0.56443,-2.661473 0.0918,-3.707256 -0.68214,-1.50949 -2.06179,-2.382298 -3.77867,-2.390491 -2.5045,-0.01195 -4.2143,1.706375 -4.19615,4.217079 0.0217,3.000075 2.59032,4.852578 5.52149,3.982115 z"
     id="path18" />
  <path
     style="fill:#ffffff;stroke-width:0.146972"
     d="m 183.274,31.034225 c -0.95311,-0.314851 -1.46967,-0.634194 -2.18836,-1.352887 l -0.67759,-0.677586 v 0.966919 0.966921 h -1.32275 -1.32274 v -9.038774 -9.038774 h 1.32274 1.32275 v 3.558545 3.558544 l 0.69812,-0.677398 c 0.88679,-0.860479 1.66796,-1.248694 2.95762,-1.469846 5.03492,-0.863393 8.96159,4.841306 6.67901,9.703331 -0.57436,1.223431 -2.2191,2.820735 -3.35358,3.256864 -1.08017,0.415249 -3.21402,0.541841 -4.11522,0.244141 z m 2.67084,-2.520989 c 0.93396,-0.277355 1.96422,-1.171533 2.41042,-2.092035 0.46202,-0.953158 0.48284,-2.748507 0.0431,-3.714037 -0.72389,-1.589293 -1.97657,-2.380564 -3.78722,-2.392232 -0.8969,-0.0058 -1.23435,0.06378 -1.9077,0.393218 -1.00404,0.491232 -1.79022,1.380211 -2.0782,2.349957 -1.04252,3.510538 1.85663,6.483533 5.31964,5.455129 z"
     id="path19" />
</svg>
