<?xml version="1.0" encoding="UTF-8"?> <svg xmlns="http://www.w3.org/2000/svg" width="139" height="14" viewBox="0 0 139 14" fill="none"> <g clip-path="url(#clip0_819_3755)"> <path d="M4.72827 2.26232H0.78302V0.233337H10.8716V2.26232H6.92634V12.7173H4.72827V2.26232Z" fill="white"></path> <path d="M15.3527 0.233337H24.5958V2.20596H17.5507V5.44673H23.8067V7.41933H17.5225V10.7728H24.6803V12.7454H15.3527V0.233337Z" fill="white"></path> <path d="M28.8794 6.46237C28.8794 2.96804 31.5565 0.00909424 35.3046 0.00909424C37.4745 0.00909424 38.8271 0.629073 40.0952 1.69992L38.7144 3.36256C37.7562 2.54533 36.798 2.03808 35.22 2.03808C32.9092 2.03808 31.162 4.03889 31.162 6.4906C31.162 9.05494 32.8528 10.9431 35.4173 10.9431C36.6009 10.9431 37.6716 10.5767 38.4325 9.98489V7.64595H35.2481V5.7297H40.5743V10.9713C39.3344 12.014 37.5872 12.9157 35.3609 12.9157C31.4438 12.9157 28.8794 10.1541 28.8794 6.46237Z" fill="white"></path> <path d="M45.5333 0.233337H51.0849C54.0156 0.233337 55.7064 1.81144 55.7064 4.20677C55.7064 6.26398 54.4665 7.47568 52.7193 7.98294L56.101 12.7173H53.5084L50.4086 8.37751H47.7032V12.7173H45.5333V0.233337ZM50.944 6.4048C52.522 6.4048 53.5084 5.58766 53.5084 4.29131C53.5084 2.96684 52.5502 2.23415 50.9157 2.23415H47.7314V6.43303H50.944V6.4048Z" fill="white"></path> <path d="M64.9777 0.149414H67.0066L72.5019 12.7179H70.1911L68.9229 9.70251H63.0332L61.7369 12.7179H59.4826L64.9777 0.149414ZM68.1339 7.75815L65.964 2.77019L63.8223 7.75815H68.1339Z" fill="white"></path> <path d="M78.2512 2.26232H74.3058V0.233337H84.4226V2.26232H80.4774V12.7173H78.2793V2.26232H78.2512Z" fill="white"></path> <path d="M88.875 0.233337H98.1182V2.20596H91.0731V5.44673H97.3292V7.41933H91.0731V10.7728H98.2309V12.7454H88.9033V0.233337H88.875Z" fill="white"></path> <path d="M102.402 6.46237C102.402 2.91168 105.051 0.00909424 108.827 0.00909424C111.138 0.00909424 112.518 0.798146 113.702 1.95354L112.293 3.58801C111.307 2.65806 110.236 2.03808 108.798 2.03808C106.403 2.03808 104.684 4.01071 104.684 6.4906C104.684 8.94224 106.403 10.9431 108.798 10.9431C110.32 10.9431 111.307 10.3231 112.377 9.30857L113.786 10.7458C112.49 12.0984 111.053 12.9439 108.714 12.9439C105.107 12.9157 102.402 10.0977 102.402 6.46237Z" fill="white"></path> <path d="M118.239 0.233337H120.437V5.41849H126.382V0.233337H128.58V12.7173H126.382V7.44756H120.437V12.7173H118.239V0.233337Z" fill="white"></path> <path d="M133.4 11.0002H134.217V12.9164H134.64V11.0002H135.429V10.6057H133.4V11.0002Z" fill="white"></path> <path d="M137.88 10.6057L137.064 12.0147L136.218 10.6057H135.851V12.9164H136.275V11.4228L136.922 12.5501H137.177L137.852 11.4228V12.9164H138.247V10.6057H137.88Z" fill="white"></path> </g> <defs> <clipPath id="clip0_819_3755"> <rect width="138.833" height="14" fill="white"></rect> </clipPath> </defs> </svg> 