<?xml version="1.0" encoding="UTF-8" standalone="no"?>
<!-- Generator: Adobe Illustrator 28.1.0, SVG Export Plug-In . SVG Version: 6.00 Build 0)  -->

<svg
   version="1.1"
   id="Слой_1"
   x="0px"
   y="0px"
   viewBox="0 0 1619 1346"
   xml:space="preserve"
   sodipodi:docname="logoYearFamily.svg"
   inkscape:version="1.3.2 (091e20e, 2023-11-25, custom)"
   width="1619"
   height="1346"
   xmlns:inkscape="http://www.inkscape.org/namespaces/inkscape"
   xmlns:sodipodi="http://sodipodi.sourceforge.net/DTD/sodipodi-0.dtd"
   xmlns="http://www.w3.org/2000/svg"
   xmlns:svg="http://www.w3.org/2000/svg"><defs
   id="defs13" /><sodipodi:namedview
   id="namedview13"
   pagecolor="#ffffff"
   bordercolor="#000000"
   borderopacity="0.59215686"
   inkscape:showpageshadow="2"
   inkscape:pageopacity="0.0"
   inkscape:pagecheckerboard="0"
   inkscape:deskcolor="#d1d1d1"
   inkscape:zoom="0.70520833"
   inkscape:cx="960"
   inkscape:cy="539.55687"
   inkscape:window-width="1920"
   inkscape:window-height="1001"
   inkscape:window-x="-9"
   inkscape:window-y="-9"
   inkscape:window-maximized="1"
   inkscape:current-layer="Слой_1" />
	<g
   fill="#ffffff"
   id="g1"
   transform="translate(2.8360413,148.89217)">
		<path
   d="M 297.38646,655.72585 239.91028,570.00694 103.05218,375.39176 C 88.1891,355.30601 74.48227,335.75193 61.80555,316.70985 49.17088,297.66777 39.01689,277.70016 31.32257,256.84643 23.60722,235.99269 19.76006,212.69716 19.76006,186.95983 c 0,-51.47467 14.31648,-91.626485 42.88641,-120.475137 28.59094,-28.828963 71.45632,-43.243444 128.61716,-43.243444 41.77219,0 75.57677,7.994917 101.39271,23.945368 25.85798,15.970142 44.67334,37.966011 56.48813,66.026993 11.8358,28.06098 17.72218,60.61171 17.72218,97.69158 v 27.80499 H 254.75233 v -26.2887 c 0,-18.0181 -1.78694,-34.48055 -5.3608,-49.42672 -3.57387,-14.92646 -10.30115,-27.03699 -20.22388,-36.31188 -9.8807,-9.27489 -23.62957,-13.90249 -41.2046,-13.90249 -18.68921,0 -32.4381,6.18326 -41.24662,18.53008 -8.76648,12.36653 -13.20228,30.10894 -13.20228,53.28633 0,20.59775 3.44773,39.52167 10.30114,56.7521 6.87444,17.25011 15.66195,33.85039 26.38355,49.80085 10.7216,15.97014 22.11593,32.70827 34.22503,50.19469 l 164.88142,238.64631 52.59891,75.67601 H 297.38646 Z"
   id="path1"
   style="stroke-width:2.03465" />
		<g
   id="g9"
   transform="matrix(2.1022747,0,0,1.9691915,-1166.5115,-577.4212)">
	<path
   d="M 669.53,791.35 V 669.37 h 42.42 v 8.86 h -31.23 v 113.13 h -11.19 z"
   id="path2" />
			<path
   d="m 751,793.25 c -8.01,0 -14.24,-1.76 -18.67,-5.28 -4.43,-3.52 -7.53,-8.72 -9.29,-15.62 -1.77,-6.89 -2.64,-15.4 -2.64,-25.54 V 713.9 c 0,-10.13 0.87,-18.64 2.64,-25.54 1.76,-6.89 4.86,-12.1 9.29,-15.62 4.43,-3.51 10.66,-5.27 18.67,-5.27 8.16,0 14.46,1.76 18.89,5.27 4.43,3.52 7.52,8.69 9.29,15.51 1.76,6.83 2.64,15.37 2.64,25.64 v 32.92 c 0,10.13 -0.88,18.65 -2.64,25.54 -1.77,6.9 -4.86,12.11 -9.29,15.62 -4.43,3.51 -10.73,5.28 -18.89,5.28 z m 0,-8.44 c 5.91,0 10.27,-1.51 13.09,-4.54 2.81,-3.02 4.61,-7.35 5.38,-12.98 0.77,-5.63 1.16,-12.31 1.16,-20.05 v -33.77 c 0,-7.88 -0.39,-14.59 -1.16,-20.15 -0.77,-5.56 -2.57,-9.84 -5.38,-12.87 -2.82,-3.02 -7.18,-4.54 -13.09,-4.54 -5.91,0 -10.23,1.52 -12.98,4.54 -2.74,3.03 -4.51,7.32 -5.28,12.87 -0.77,5.56 -1.16,12.28 -1.16,20.15 v 33.77 c 0,7.74 0.39,14.42 1.16,20.05 0.77,5.63 2.54,9.95 5.28,12.98 2.75,3.03 7.07,4.54 12.98,4.54 z"
   id="path3" />
			<path
   d="m 785.8,819.63 v -36.09 c 3.38,-1.82 6.29,-4.4 8.76,-7.7 2.46,-3.3 4.58,-7.84 6.33,-13.61 1.76,-5.77 3.3,-13.26 4.64,-22.48 1.33,-9.22 2.5,-20.65 3.49,-34.3 l 2.74,-36.09 h 48.33 v 113.75 h 10.76 v 36.51 H 862 l -0.85,-28.28 h -65.43 l -1.05,28.28 h -8.87 z m 12.67,-36.51 h 50.65 V 677.81 h -28.07 l -2.74,29.76 c -1.13,12.53 -2.22,23.11 -3.27,31.76 -1.06,8.66 -2.22,15.83 -3.49,21.53 -1.26,5.7 -2.95,10.31 -5.07,13.83 -2.1,3.51 -4.78,6.32 -8.01,8.43 z"
   id="path4" />
			<path
   d="m 938.29,793.25 c -9.14,0 -15.9,-2.14 -20.26,-6.43 -4.36,-4.3 -7.21,-10.03 -8.55,-17.2 -1.33,-7.17 -2,-15.2 -2,-24.06 v -28.7 c 0,-11.96 0.91,-21.56 2.74,-28.81 1.82,-7.24 4.99,-12.48 9.49,-15.72 4.51,-3.23 10.7,-4.85 18.58,-4.85 8.45,0 14.81,1.72 19.11,5.17 4.29,3.45 7.13,8.17 8.54,14.14 1.4,5.98 2.11,12.7 2.11,20.15 v 4.85 H 957.5 v -4.85 c 0,-8.3 -0.68,-14.67 -2.01,-19.1 -1.34,-4.43 -3.42,-7.52 -6.23,-9.29 -2.82,-1.76 -6.48,-2.64 -10.98,-2.64 -5.48,0 -9.64,1.3 -12.45,3.91 -2.81,2.6 -4.71,6.79 -5.7,12.56 -0.98,5.77 -1.48,13.51 -1.48,23.22 v 31.66 c 0,13.23 1.3,22.79 3.91,28.7 2.6,5.91 7.91,8.86 15.93,8.86 5.48,0 9.61,-1.19 12.35,-3.59 2.74,-2.39 4.54,-6.12 5.38,-11.18 0.85,-5.07 1.27,-11.61 1.27,-19.63 v -4.64 h 10.55 v 4.43 c 0,8.16 -0.64,15.48 -1.9,21.95 -1.26,6.47 -4.02,11.61 -8.24,15.4 -4.2,3.79 -10.74,5.69 -19.61,5.69 z"
   id="path5" />
			<path
   d="m 1011.74,793.25 c -6.47,0 -12.03,-1.3 -16.67,-3.91 -4.64,-2.6 -8.2,-7.31 -10.66,-14.14 -2.46,-6.82 -3.69,-16.49 -3.69,-29.02 v -32.5 c 0,-12.8 1.26,-22.51 3.79,-29.13 2.53,-6.61 6.15,-11.11 10.87,-13.51 4.71,-2.38 10.23,-3.58 16.57,-3.58 7.6,0 13.57,1.62 17.94,4.85 4.36,3.24 7.45,8.41 9.29,15.51 1.82,7.11 2.74,16.5 2.74,28.18 v 11.61 H 991.9 v 19.42 c 0,9.71 0.67,17.31 2.01,22.79 1.33,5.48 3.49,9.36 6.44,11.6 2.95,2.25 6.75,3.38 11.39,3.38 2.95,0 5.91,-0.49 8.86,-1.48 2.95,-0.98 5.42,-3.3 7.39,-6.96 1.97,-3.66 2.95,-9.36 2.95,-17.1 v -9.08 h 10.98 v 8.02 c 0,10.41 -2.14,18.86 -6.44,25.32 -4.29,6.5 -12.2,9.73 -23.74,9.73 z M 991.9,720.86 h 39.04 v -9.49 c 0,-7.32 -0.39,-13.61 -1.16,-18.89 -0.77,-5.27 -2.5,-9.36 -5.17,-12.24 -2.67,-2.88 -6.9,-4.33 -12.67,-4.33 -4.51,0 -8.26,0.95 -11.3,2.85 -3.02,1.9 -5.24,5.42 -6.64,10.55 -1.41,5.14 -2.11,12.56 -2.11,22.27 v 9.28 z"
   id="path6" />
			<path
   d="m 1055.92,791.35 1.05,-121.99 h 8.65 l 29.34,89.27 29.34,-89.27 h 9.08 l 0.84,121.99 h -9.71 l -0.42,-93.5 -27.23,80.62 h -3.59 l -27.01,-80.2 -0.42,93.08 z"
   id="path7" />
			<path
   d="M 1150.13,791.35 V 669.37 h 11.19 v 48.96 c 0.14,0 0.98,0 2.53,0 1.54,0 3.94,0 7.17,0 8.3,0 14.98,1.09 20.05,3.27 5.07,2.18 8.97,5.03 11.71,8.54 2.74,3.52 4.61,7.46 5.6,11.82 0.98,4.36 1.48,8.79 1.48,13.29 0,4.36 -0.53,8.69 -1.58,12.98 -1.06,4.3 -2.95,8.16 -5.71,11.6 -2.74,3.46 -6.72,6.23 -11.92,8.34 -5.2,2.11 -11.96,3.17 -20.26,3.17 h -20.26 z m 11.19,-7.59 h 9.08 c 8.29,0 14.49,-1.34 18.57,-4.01 4.08,-2.67 6.83,-6.15 8.24,-10.45 1.4,-4.29 2.11,-8.97 2.11,-14.03 0,-4.92 -0.68,-9.6 -2.01,-14.03 -1.34,-4.43 -4.01,-8.09 -8.02,-10.98 -4.01,-2.88 -10.17,-4.33 -18.47,-4.33 -0.14,0 -1.26,0 -3.37,0 -2.11,0 -4.15,0 -6.12,0 v 57.83 z"
   id="path8" />
			<path
   d="M 1224.23,791.35 V 669.37 h 9.71 v 101.09 l 43.05,-101.09 h 9.29 v 121.99 h -9.71 V 691.1 l -42.84,100.25 z"
   id="path9" />
</g>
		<g
   id="g13"
   transform="matrix(2.1022747,0,0,1.9691915,-1166.5115,-577.4212)">
	<path
   d="m 696.34,626.22 -22.82,-36.34 79.8,-123.29 c 5.74,-8.88 11.17,-17.38 16.28,-25.49 5.1,-8.1 9.27,-16.53 12.54,-25.29 3.27,-8.76 4.9,-18.36 4.9,-28.82 0,-11.77 -2.1,-20.79 -6.28,-27.06 -4.18,-6.28 -10.73,-9.41 -19.61,-9.41 -8.37,0 -14.91,2.35 -19.61,7.06 -4.7,4.71 -7.91,10.86 -9.61,18.44 -1.71,7.58 -2.55,15.95 -2.55,25.1 v 13.34 h -53.34 v -14.12 c 0,-18.83 2.81,-35.36 8.43,-49.61 5.62,-14.25 14.58,-25.43 26.87,-33.53 12.29,-8.1 28.36,-12.16 48.24,-12.16 27.19,0 47.58,7.32 61.17,21.96 13.59,14.65 20.4,35.04 20.4,61.18 0,13.08 -1.83,24.9 -5.49,35.49 -3.67,10.59 -8.5,20.72 -14.51,30.4 -6.01,9.67 -12.54,19.61 -19.61,29.8 l -65.11,98.83 h 96.49 v 43.53 H 696.34 Z"
   id="path10" />
			<path
   d="m 918.55,630.93 c -18.57,0 -33.93,-3.92 -46.08,-11.76 -12.16,-7.84 -21.31,-18.69 -27.45,-32.55 -6.15,-13.85 -9.22,-29.8 -9.22,-47.85 v -140.8 c 0,-18.57 2.94,-34.84 8.82,-48.83 5.88,-13.98 14.9,-24.91 27.06,-32.75 12.15,-7.84 27.78,-11.77 46.86,-11.77 19.08,0 34.72,3.92 46.86,11.77 12.16,7.84 21.18,18.76 27.07,32.75 5.88,13.99 8.82,30.26 8.82,48.83 v 140.79 c 0,18.04 -3.08,33.99 -9.22,47.85 -6.15,13.86 -15.3,24.71 -27.45,32.55 -12.15,7.84 -27.51,11.77 -46.07,11.77 z m 0,-46.67 c 8.11,0 14.11,-2.48 18.04,-7.45 3.92,-4.96 6.54,-10.98 7.85,-18.04 1.29,-7.06 1.95,-13.98 1.95,-20.79 V 398.75 c 0,-7.32 -0.58,-14.57 -1.76,-21.77 -1.18,-7.19 -3.73,-13.27 -7.65,-18.24 -3.93,-4.96 -10.08,-7.45 -18.44,-7.45 -8.37,0 -14.51,2.49 -18.43,7.45 -3.93,4.97 -6.48,11.05 -7.65,18.24 -1.18,7.19 -1.77,14.45 -1.77,21.77 v 139.23 c 0,6.8 0.71,13.72 2.16,20.79 1.43,7.06 4.11,13.08 8.03,18.04 3.94,4.97 9.83,7.45 17.67,7.45 z"
   id="path11" />
			<path
   d="m 997.72,626.22 v -38.43 l 78.44,-121.19 c 5.74,-8.88 11.17,-17.38 16.28,-25.49 5.1,-8.1 9.27,-16.53 12.54,-25.29 3.27,-8.76 4.9,-18.36 4.9,-28.82 0,-11.77 -2.1,-20.79 -6.28,-27.06 -4.18,-6.28 -10.73,-9.41 -19.61,-9.41 -8.37,0 -14.91,2.35 -19.61,7.06 -4.7,4.71 -7.91,10.86 -9.61,18.44 -1.71,7.58 -2.55,15.95 -2.55,25.1 v 13.34 H 998.9 v -14.12 c 0,-18.83 2.81,-35.36 8.43,-49.61 5.62,-14.25 14.58,-25.43 26.87,-33.53 12.29,-8.1 28.36,-12.16 48.24,-12.16 27.19,0 47.58,7.32 61.17,21.96 13.59,14.65 20.4,35.04 20.4,61.18 0,13.08 -1.83,24.9 -5.49,35.49 -3.67,10.59 -8.5,20.72 -14.51,30.4 -6.01,9.67 -12.54,19.61 -19.61,29.8 l -65.11,98.83 h 96.49 v 43.53 H 997.72 Z"
   id="path12" />
			<path
   d="m 1234.85,626.22 v -78.05 h -94.91 V 501.9 l 82.75,-193.35 h 63.14 v 196.48 h 28.45 v 43.14 h -28.45 v 78.05 z m -49.42,-121.19 h 49.42 V 366.98 Z"
   id="path13" />
</g>
	</g>
</svg>
