<svg xmlns="http://www.w3.org/2000/svg" width="78" height="78" viewBox="0 0 78 78">
  <g id="logo" transform="translate(-637.895 -15.895)">
    <g id="Сгруппировать_27" data-name="Сгруппировать 27" transform="translate(637.895 15.895)">
      <path id="Контур_5" data-name="Контур 5" d="M773.634,57.692h0l-19.54-7.824-19.54,7.824h0l-7.824,19.54,7.824,19.54h0l19.54,7.824,19.54-7.824h0l7.824-19.54Z" transform="translate(-715.094 -38.232)" fill="#003981"/>
      <path id="Контур_6" data-name="Контур 6" d="M775.321,84.51a1.272,1.272,0,0,0-1.475.085l-.036.027a.559.559,0,0,0-.063.051l-.021.015-.015.015a.2.2,0,0,1-.085.028l-.019,0-.025.008a.245.245,0,0,1-.083.019.16.16,0,0,1-.076-.023l-.025-.011-.032-.013-.017-.006a.173.173,0,0,1-.078-.044l-.017-.019-.013-.015-.017-.019-.025-.026a1.065,1.065,0,0,0-.818-.392l-.055,0h0a.338.338,0,0,1-.348-.309A1,1,0,0,0,770.755,83a.34.34,0,0,1-.4-.233.941.941,0,0,0-1.823.057.339.339,0,0,1-.479.227.9.9,0,0,0-1.293.686.336.336,0,0,1-.494.25,1.253,1.253,0,0,0-1.738.583.694.694,0,0,0-.044.114,1.272,1.272,0,0,0-.076.411,1.064,1.064,0,0,0,.053.278H775.9a1.31,1.31,0,0,0-.447-.761h-.133Zm-1.846.174,0,0h0Zm-17.554-2.2a.342.342,0,0,1-.2.263.353.353,0,0,1-.328-.032,1.146,1.146,0,0,0-1.738,1.329.345.345,0,0,1-.049.316.336.336,0,0,1-.267.133l-.028,0h-.017l-.044,0a.994.994,0,0,0-.435.11.965.965,0,0,0-.2.121.98.98,0,0,0-.29.347,1.487,1.487,0,0,1,.11.3h11.318a1.765,1.765,0,0,1-.021-.278,1.791,1.791,0,0,1,.025-.292.924.924,0,0,0-.532,0,.332.332,0,0,1-.286-.04.125.125,0,0,1-.036-.034.343.343,0,0,1-.1-.172.12.12,0,0,1-.013-.044.961.961,0,0,0-1.593-.625.343.343,0,0,1-.354.057.333.333,0,0,1-.2-.3,1.183,1.183,0,0,0-1.178-1.136l-.01.008-.061,0,0,0a1.143,1.143,0,0,0-.421.1.335.335,0,0,1-.292-.006.331.331,0,0,1-.176-.227,1.313,1.313,0,0,0-2.583.1Zm3.041-.434a1.667,1.667,0,0,1,.316-.059l0,0,.032-.008.146-.008a1.712,1.712,0,0,1,1.668,1.312,1.517,1.517,0,0,1,.708-.178,1.5,1.5,0,0,1,1.452,1.131,1.529,1.529,0,0,1,.7.07l.061.019a1.789,1.789,0,0,1,1.623-1.03,1.843,1.843,0,0,1,.621.11,1.428,1.428,0,0,1,1.789-.924,1.478,1.478,0,0,1,1.36-.934h.027a1.486,1.486,0,0,1,1.344.9c.059-.006.117-.009.178-.009a1.544,1.544,0,0,1,1.494,1.221,1.611,1.611,0,0,1,1.053.49,1.8,1.8,0,0,1,1.786-.235l-.006-1.924V81.98a2.93,2.93,0,0,0-1.831-2.159l-.045-.017v-.472a.1.1,0,0,0-.1-.1h-.231V77.766a.746.746,0,0,0-.178-.5.856.856,0,0,0-.235-.165.928.928,0,0,1-.153-.095.889.889,0,0,1-.231-.528l-.009-.053.049-.025a.372.372,0,0,0,.214-.335.376.376,0,0,0-.237-.35l-.044-.019v-.6h.206a.1.1,0,0,0,0-.2h-.206v-.233a.1.1,0,1,0-.2,0v.233h-.206a.1.1,0,0,0-.1.1.1.1,0,0,0,.1.1h.206v.6l-.043.019a.373.373,0,0,0-.021.685l.047.025-.01.053a.652.652,0,0,1-.381.621.862.862,0,0,0-.239.167.743.743,0,0,0-.178.5l0,0v.047l0,.006v1.413H771a.1.1,0,0,0-.1.1v.485l-.044.017a2.889,2.889,0,0,0-1.1.778l-.021.023h-5.658l-.04-.053a.776.776,0,0,0-1.392.017.241.241,0,0,1-.212.133h-.15V78.3a1.522,1.522,0,0,0-.954-1.415l-.044-.019v-.892c0-.047-.045-.072-.07-.081l-.091-.032.059-.078a.424.424,0,0,0,.1-.239.625.625,0,0,0-.2-.443.916.916,0,0,1-.248-.636l-.009-.027,0-.659h.15a.1.1,0,0,0,0-.2h-.15v-.2a.1.1,0,1,0-.2,0v.2h-.148a.1.1,0,1,0,0,.2h.148v.663l-.011.023a.919.919,0,0,1-.248.636.624.624,0,0,0-.193.443.434.434,0,0,0,.1.239l.06.078-.091.032c-.026.009-.072.034-.072.081v.911l-.042.017a1.534,1.534,0,0,0-.911,1.4V81.06h-1.1A1.857,1.857,0,0,1,758.962,82.054Zm2.111-4a.244.244,0,1,1,.489,0V78.5h-.489Zm-1.1,0a.244.244,0,1,1,.489,0V78.5h-.489Zm-9.408,6.88a.341.341,0,0,1-.294-.032.336.336,0,0,1-.146-.218.1.1,0,0,1-.01-.03.132.132,0,0,0-.013-.042c-.006-.021-.013-.04-.017-.059a1.07,1.07,0,0,0-.157-.377.658.658,0,0,0-.044-.057l-.015-.019a1.062,1.062,0,0,0-.8-.409h0l-.032,0h0a1.055,1.055,0,0,0-.881.481,1.077,1.077,0,0,0-.161.384c-.006.021-.011.042-.019.062a.206.206,0,0,0-.015.051l0,.021a.338.338,0,0,1-.165.24.345.345,0,0,1-.311.013,1.07,1.07,0,0,0-1.039.074.331.331,0,0,1-.292.042.341.341,0,0,1-.212-.2.639.639,0,0,0-.078-.14.739.739,0,0,0-1.345.269.336.336,0,0,1-.2.248.341.341,0,0,1-.314-.021.985.985,0,0,0-1.235.161h8.957A.963.963,0,0,0,750.561,84.934Zm11,3.922h13.392l1.182-2.954h-13.6Zm14.59-4.246a1.836,1.836,0,0,1,.25.627l.252-.627Zm-33.911.566a1.5,1.5,0,0,1,.8-.574,1.326,1.326,0,0,1,.877,0l.032.009a.826.826,0,0,1,.11.036l0,0a1.093,1.093,0,0,1,.057-.116l.013-.023a1.256,1.256,0,0,1,2.2-.04,1.569,1.569,0,0,1,1.132-.1,1.617,1.617,0,0,1,1.021-1.123,1.69,1.69,0,0,1,.3-.072,1.515,1.515,0,0,1,.25-.021A1.622,1.622,0,0,1,750.6,84.37a1.406,1.406,0,0,1,.865.1,1.376,1.376,0,0,1,.267.138,1.284,1.284,0,0,1,.163.136c.015-.023.034-.047.053-.072l.036-.047.028-.042a.712.712,0,0,1,.068-.095,1.583,1.583,0,0,1,1-.525,1.683,1.683,0,0,1,2.369-1.831,1.853,1.853,0,0,1,.865-1.077h-.008v-1.8h.28v-.375H756v-.36l.062-.008c.273-.028.434-.129.494-.312a.362.362,0,0,0-.655-.3l-.008.011v.051l-.068,0h-.006c-.288,0-.57-.682-.979-2.346l0-.74h.275v-.494H754.9v-.22l.063-.008c.142-.015.225-.066.258-.159a.182.182,0,0,0-.1-.22.178.178,0,0,0-.229.072V73.9l-.068,0h-.006c-.151,0-.309-.229-.578-1.314l0-4.984.091-.008h-.091v-.29l.074.006c.08.006.354.011.455-.1a.185.185,0,0,0,.03-.169.109.109,0,0,0-.034-.062.076.076,0,0,0-.045-.025c-.028.009-.061.083-.072.129v.053h-.049a.131.131,0,0,1-.119-.023,1.133,1.133,0,0,1-.284-.668l-.155-.08a1.865,1.865,0,0,1-.39-.46,1.341,1.341,0,0,0-.691-.631v-.765a.2.2,0,0,1,.047-.051h.138v-.242l.193,0V64.1h-.059c-.1,0-.178-.051-.176-.116v-.017c0-.155-.136-.292-.335-.358v-.475l.011-.009h.108v-.051l-.026,0c-.045,0-.081-.025-.081-.053v-.008c-.142-1.131-.191-6.654-.129-7.219a.458.458,0,0,0-.009-.882l-.047-.095.013-.282.269-.184.042-.269.142-.282.241-.409.479-.411-.314-.036s-.25.276-.42.108l-.013.239-.114.157-.042-.157-.184.085.1.24-.168.028v-.782l.282.061V52.8l-.282-.07v-.708l-.1-.027v.721l-.3-.072V52.8l.3.051v.6l-.155.155v.169l-.155.282.155.127-.14.212v.17l.127.085.043.261a.459.459,0,0,0-.03.882c0,.29-.087,6.065-.233,7.22v.008c0,.028-.036.053-.081.053l-.026,0v.051h.11l.012.009v.475c-.2.066-.337.2-.335.358v.017c0,.064-.079.116-.178.116h-.059l0,.117.191,0v.242h.138a.175.175,0,0,1,.047.051v.759a1.34,1.34,0,0,0-.7.638,1.924,1.924,0,0,1-.377.453l-.167.085a1.132,1.132,0,0,1-.284.668.131.131,0,0,1-.119.023l-.063-.019.01-.047a.2.2,0,0,0-.068-.116c-.011,0-.027.008-.046.025a.12.12,0,0,0-.034.062.184.184,0,0,0,.03.169c.1.116.373.11.454.1l.074-.006v.29l-.091.008h.091v4.967c-.271,1.1-.428,1.331-.579,1.331h-.006l-.068,0v-.049a.182.182,0,0,0-.229-.072.177.177,0,0,0-.095.22c.03.093.114.144.256.159l.063.008v.22h-.216v.494h.275v.723c-.4,1.659-.7,2.363-.981,2.363h-.006l-.068,0v-.051L749,77.9a.362.362,0,0,0-.655.3c.061.184.222.284.494.312l.063.008v.36h-.591v.375h.28v3.937l-.093-.03a.8.8,0,0,0-.248-.047.821.821,0,0,0-.546.208.3.3,0,0,1-.5-.214,1.019,1.019,0,0,0-1.013-.979l-.009.006-.051,0h0a.926.926,0,0,0-.366.083.311.311,0,0,1-.259-.006.3.3,0,0,1-.161-.2,1.132,1.132,0,0,0-2.227.091.3.3,0,0,1-.178.235.3.3,0,0,1-.294-.03.992.992,0,0,0-1.556.814,1.017,1.017,0,0,0,.059.331.3.3,0,0,1-.042.282.3.3,0,0,1-.261.121l-.057,0a.884.884,0,0,0-.708.373l-.083.117-.049-.153a.615.615,0,0,0-1.208.051.209.209,0,0,1-.119.157.2.2,0,0,1-.2-.019.535.535,0,0,0-.3-.1l-.015,0a.213.213,0,0,1-.047-.006l-.025,0a.723.723,0,0,0-.339.083l-.027.008-.026.011a.219.219,0,0,1-.106,0l-.036-.011a.24.24,0,0,1-.1-.078l0,0-.026-.04-.013-.027a.807.807,0,0,0-.776-.589.8.8,0,0,0-.383.1.237.237,0,0,1-.22,0,.242.242,0,0,1-.127-.18.571.571,0,0,0-.822-.436.239.239,0,0,1-.207,0,.234.234,0,0,1-.129-.163.6.6,0,0,0-1.159-.036.24.24,0,0,1-.282.165.617.617,0,0,0-.5.1l-.04.028-.04-.028a.963.963,0,0,1-.3-.312l-.038-.062.078-.044.008-.019.015-.021.009.013,0-.009,0-.025,0-.011-.011-.023-.006-.019-.04-.032-.027-.019c-.123-.021-.206-.17-.244-.258l-.03-.074-.011-.03a1.057,1.057,0,0,0-.185-.341,1.159,1.159,0,0,0-.161-.133.888.888,0,0,1-.085-.062.269.269,0,0,1-.119-.172l0-.447a.1.1,0,0,0-.1-.1h-.191v-.174a.382.382,0,0,0-.244-.331l-.045-.017V78.032l.045-.017a1.056,1.056,0,0,1,.369-.074,1.067,1.067,0,0,1,.369.078l.045.017v.229a.1.1,0,0,0,.038.08.108.108,0,0,0,.089.015,2.367,2.367,0,0,1,.574-.117,1.219,1.219,0,0,1,.354.057l.03.011c.18.078.258.112.294.133a.1.1,0,0,0,.1-.006.1.1,0,0,0,.045-.083V77a.1.1,0,0,0-.051-.085,1.574,1.574,0,0,0-1.184-.169l-.089.025v-.212a.1.1,0,0,0-.055-.089,1.5,1.5,0,0,0-.572-.138,1.076,1.076,0,0,0-.532.133l0,0-.025.023a.083.083,0,0,0-.038.07v3.9l-.044.019a.378.378,0,0,0-.235.331v.17h-.191a.1.1,0,0,0-.1.1v.441a.283.283,0,0,1-.119.178c-.026.021-.053.04-.08.059a.984.984,0,0,0-.167.136,1.021,1.021,0,0,0-.186.341l-.015.038-.028.066c-.038.087-.119.237-.246.256a.061.061,0,0,1-.023.021l-.017.008-.017.009-.006.017-.006.015-.011.028h0v.019l.006.009.026.045.017.006.063.038-.04.061a.969.969,0,0,1-.377.364l-.023.023a.085.085,0,0,0-.026.025.16.16,0,0,0-.013.032l0,.017,0,.015,0,.013v.013l.013.013-.04.064h0l.053-.045a.1.1,0,0,0,.059.025h.3V84.61h-.814l.333.829h13.272Zm10.631-7.236-.428,0-.428,0L752.01,76.4a.439.439,0,1,1,.875,0Zm.028-4.2-.456,0-.456,0L751.98,72.2a.468.468,0,1,1,.935,0Zm.021-3-.477,0-.477,0-.009-1.538a.487.487,0,0,1,.479-.489h.013a.487.487,0,0,1,.481.489Zm-.477-4.77a.575.575,0,1,1-.576.574A.576.576,0,0,1,752.447,65.969ZM761.74,85.9H728.97l1.183,2.954h30.611Zm-25.676,2.176a.3.3,0,1,1-.6,0v-.971a.3.3,0,0,1,.093-.214.3.3,0,0,1,.417,0,.3.3,0,0,1,.093.214Zm2.053,0a.3.3,0,1,1-.6,0v-.971a.3.3,0,0,1,.091-.214.3.3,0,0,1,.417,0,.29.29,0,0,1,.093.214Zm2.053,0a.3.3,0,0,1-.6,0v-.971a.292.292,0,0,1,.095-.214.3.3,0,0,1,.415,0,.3.3,0,0,1,.093.214Zm2.053,0a.3.3,0,1,1-.6,0v-.971a.29.29,0,0,1,.093-.214.3.3,0,0,1,.415,0,.3.3,0,0,1,.093.214Zm2.053,0a.3.3,0,1,1-.6,0v-.971a.29.29,0,0,1,.093-.214.3.3,0,0,1,.415,0,.3.3,0,0,1,.093.214Zm2.053,0a.3.3,0,1,1-.6,0v-.971a.3.3,0,0,1,.091-.214.3.3,0,0,1,.417,0,.3.3,0,0,1,.093.214Zm2.053,0a.3.3,0,1,1-.6,0v-.971a.289.289,0,0,1,.093-.214.3.3,0,0,1,.415,0,.3.3,0,0,1,.093.214Zm2.053,0a.3.3,0,1,1-.6,0v-.971a.29.29,0,0,1,.093-.214.3.3,0,0,1,.415,0,.289.289,0,0,1,.093.214Zm2.053,0a.3.3,0,1,1-.6,0v-.971a.29.29,0,0,1,.093-.214.3.3,0,0,1,.415,0,.289.289,0,0,1,.093.214Zm2.053,0a.3.3,0,1,1-.6,0v-.971a.292.292,0,0,1,.093-.214.3.3,0,0,1,.417,0,.3.3,0,0,1,.091.214Zm2.053,0a.3.3,0,1,1-.6,0v-.971a.29.29,0,0,1,.093-.214.3.3,0,0,1,.417,0,.3.3,0,0,1,.091.214ZM738.088,67.7a2.645,2.645,0,0,0,.7-1.011l.009-.023,1.042-.576c.049-.044.117-.021.278.034l.024.013c.216.182.309.265.5.449a.084.084,0,0,0,.1.045.689.689,0,0,0,.392-.424c0-.025,0-.042-.009-.047a1.859,1.859,0,0,0-.24-.072,1.234,1.234,0,0,1-.581-.3c-.066-.051-.079-.076-.083-.1l0-.021.009-.019a4.229,4.229,0,0,1,.222-.422,4.236,4.236,0,0,0,.223-.426l.017-.034.04-.006a2.7,2.7,0,0,0,.555-.18c.21-.081.451-.174.695-.242.051-.011.127-.028.172-.034l.04-.008-.051-.013a3.315,3.315,0,0,0-1.2-.119l-.168.006a2.042,2.042,0,0,1-.222.015c-.259.008-.424.025-.5.227l-.055.121a.979.979,0,0,1-.538.589c-.21.112-.3.091-.581-.047-.216-.11-.267-.116-.377-.091a.289.289,0,0,1-.133-.009l-.006,0c.07.059.146.121.239.208.061.057.115.119.155.165l.044.045c.019.017.2.176.142.276a1.758,1.758,0,0,1-.381.473,2.574,2.574,0,0,0-.265.278.553.553,0,0,0-.06.25,1.731,1.731,0,0,1-.025.182,4.709,4.709,0,0,1-.269.977.983.983,0,0,0,.142-.131Zm22.548-8.692a1.636,1.636,0,0,0,.759.377,1.379,1.379,0,0,0,.648.138c.163-.019.235-.009.318.068.129.119.833.638,1.216.9s1.346.869,1.409.9l.025.011.015.03c.006.013.025.055-.032.186-.062.148-.256.29-.759.559l-.161.087.061.129a.6.6,0,0,0,.165.227.773.773,0,0,1,.184.174.688.688,0,0,0,.182.151,1.482,1.482,0,0,0,.846.256h0a2.189,2.189,0,0,0,.428-.036l.08-.023-.01-.116c-.006-.095-.026-.322-.044-.507a1.258,1.258,0,0,1,.019-.477c.064-.153.129-.146.388-.114.153.017.831.076,1.479.129l1.233.1.267.2a2.644,2.644,0,0,0,1.32.468,3.17,3.17,0,0,0,.691-.015c-.036-.034-.089-.085-.159-.142l-.987-.826c-.4-.337-.831-.68-.934-.746a2.733,2.733,0,0,0-1.426-.362c-.71-.057-.854-.085-.907-.169a.124.124,0,0,1-.011-.112c.051-.14.108-.212.384-.489.076-.076.136-.138.18-.186l-.331,0-.447.006-.337.22c-.585.383-.648.341-1.714-.4a6.685,6.685,0,0,0-1.348-.841,5.685,5.685,0,0,0-2.129-.2c-.519,0-.909,0-1.055.017A3.092,3.092,0,0,0,760.636,59.012Zm4.431,38.2-.148.006c-.187.008-.377.015-.57.028l-.748.059c-.1.008-.206.021-.311.034l-.613.076c-.087.011-.174.023-.254.036l-.973.163-.185.032-.375.068c-.093.015-.186.028-.278.042l-.1.015c-.178.03-.36.053-.542.076l-.227.03-.25.027-.536.047a13.824,13.824,0,0,1-1.572.034,10.728,10.728,0,0,1-1.538-.172,12.307,12.307,0,0,1-1.5-.39c-.362-.116-.721-.244-1.1-.381-.148-.053-.3-.108-.453-.161a17.776,17.776,0,0,0-1.742-.526c-.273-.068-.585-.131-.958-.189-.121-.019-.252-.036-.381-.051l-.14-.019-.47-.04a16.244,16.244,0,0,0-1.928-.017,15.744,15.744,0,0,0-1.852.2l-.212.04c-.22.04-.445.08-.655.129l-.153.034c-.089.019-.178.038-.265.061l-.405.1c-.53.142-1.038.292-1.509.441l-1.127.356-.237.072-.322.1-.458.125-.167.04-.311.072c-.044.009-.089.017-.133.023l1.123.436.693-.136c.349-.074.7-.159,1.047-.241l1.144-.271c.085-.021.172-.04.258-.059l.242-.053c.083-.017.167-.036.25-.051.551-.112,1.051-.2,1.53-.256a15.8,15.8,0,0,1,1.579-.112l.2,0c.034,0,.072,0,.108,0s.064,0,.095,0l.4.011c.07,0,.136,0,.2.008l.6.04a11.64,11.64,0,0,1,3.034.731l.358.125c.405.144.826.292,1.267.43a13.42,13.42,0,0,0,1.835.443c.108.019.218.034.328.049l.157.023c.131.015.263.028.394.042L756.4,99c.133.008.263.017.392.023l.123,0c.121,0,.242.008.365.009a15.631,15.631,0,0,0,1.879-.108c.615-.072,1.2-.167,1.727-.28l.095-.021c.106-.023.21-.044.312-.068.134-.03.265-.062.4-.095.239-.055.475-.112.706-.167l.03-.008.365-.087c.085-.019.163-.034.241-.049l.449-.087.123-.025q.105-.023.216-.04l.661-.108c.144-.021.271-.038.4-.053.08-.009.161-.019.24-.03l1.477-.595C766.057,97.2,765.565,97.2,765.067,97.212ZM747.609,95.33c.335-.028.693-.042,1.091-.042.263,0,.545.006.852.019l.256.015.358.028c.133.015.271.028.4.045.388.053.7.108.981.17.638.138,1.235.318,1.782.494q.247.08.483.159c.377.125.735.242,1.093.348a12.346,12.346,0,0,0,1.5.354,10.963,10.963,0,0,0,1.526.138c.14,0,.284,0,.434,0-.225-.027-.445-.061-.659-.1a12.772,12.772,0,0,1-1.5-.39c-.364-.116-.723-.246-1.106-.384l-.445-.159c-.621-.214-1.157-.384-1.742-.525-.275-.07-.578-.131-.96-.191-.138-.021-.292-.04-.438-.057l-.083-.011-.468-.04a15.854,15.854,0,0,0-1.928-.017,14.8,14.8,0,0,0-1.56.153Zm5.745,4.547c-.369-.117-.735-.25-1.123-.388-.14-.051-.284-.1-.43-.153a18.2,18.2,0,0,0-1.742-.526c-.273-.068-.578-.129-.958-.189-.133-.021-.276-.038-.417-.057l-.574-.051a15.509,15.509,0,0,0-1.928-.019,14.7,14.7,0,0,0-1.557.153c.045,0,.089-.006.134-.008.339-.028.7-.042,1.091-.042.265,0,.547.006.852.019l.256.015.309.023c.148.015.3.03.445.051.373.049.7.106.981.17.665.142,1.269.329,1.782.492.153.051.307.1.455.151.388.129.754.25,1.119.358a12.885,12.885,0,0,0,1.5.354,10.689,10.689,0,0,0,1.526.136c.14,0,.284,0,.436,0-.225-.026-.447-.061-.661-.1A12.3,12.3,0,0,1,753.354,99.877Zm-21.08-9.457.356.028c.134.013.271.028.4.045.388.053.7.108.981.17.638.136,1.233.318,1.78.492.163.053.322.106.479.159.379.125.738.244,1.1.35a13.024,13.024,0,0,0,1.5.354,10.688,10.688,0,0,0,1.526.136c.14,0,.284,0,.432,0-.224-.028-.443-.061-.659-.1a13.265,13.265,0,0,1-1.5-.39c-.362-.117-.721-.246-1.1-.383-.148-.053-.3-.108-.449-.161-.536-.186-1.119-.377-1.742-.526-.273-.068-.578-.129-.958-.189-.14-.021-.294-.04-.441-.059l-.08-.009-.47-.04a15.472,15.472,0,0,0-1.928-.017c-.227.008-.47.027-.752.055l.025.061c.191-.006.379-.009.559-.009.237,0,.464.006.689.015Zm8.853,5.177-.138.009a16,16,0,0,1-1.943.023l-.566-.04c-.148-.015-.3-.03-.445-.051-.384-.051-.7-.1-.979-.17-.664-.142-1.269-.33-1.782-.492-.153-.049-.3-.1-.454-.15-.388-.129-.754-.252-1.121-.36a13.014,13.014,0,0,0-1.475-.348l.14.339.032.009c.369.119.737.25,1.125.39l.426.151a17.8,17.8,0,0,0,1.742.526c.275.068.578.129.96.189.131.021.275.038.413.055l.576.055a15.855,15.855,0,0,0,1.928.017A14.452,14.452,0,0,0,741.127,95.6Zm30.179-5.242-.528.076-.127.023-.43.08-.362.076c-.35.074-.706.159-1.051.24l-.405.1c-.242.059-.489.116-.737.174-.087.021-.172.04-.261.059l-.239.051c-.081.019-.165.038-.25.053-.551.11-1.051.193-1.528.254a15.3,15.3,0,0,1-1.579.112l-.2,0a1.832,1.832,0,0,1-.2,0l-.472-.011c-.044,0-.087,0-.131-.006l-.6-.042a11.521,11.521,0,0,1-3.034-.729l-.4-.142c-.392-.138-.8-.28-1.223-.415a13.614,13.614,0,0,0-1.833-.441c-.108-.019-.218-.034-.328-.049l-.157-.023c-.136-.015-.273-.03-.407-.044l-.267-.021c-.1-.006-.2-.013-.3-.017l-.184-.006c-.1,0-.2-.006-.3-.008a16.344,16.344,0,0,0-1.879.106c-.625.074-1.206.169-1.729.282l-.161.034-.246.055-.4.095c-.248.059-.494.117-.737.172l-.365.089c-.076.017-.148.03-.218.044l-.131.027-.339.066-.123.025c-.072.015-.144.028-.22.04l-.676.11c-.127.019-.252.034-.377.049-.1.011-.191.023-.286.036-.174.027-.348.044-.515.061L745.2,91c-.2.019-.394.038-.585.049l-.189.015c-.136.009-.269.019-.4.025l-.561.025c-.634.021-1.269.023-1.89,0q-.477-.02-.824-.04c.222.051.473.1.769.153.589.1,1.231.18,1.9.235a22.7,22.7,0,0,0,2.547.055l.083,0c.208-.008.42-.015.636-.03l.748-.059c.1-.008.2-.021.309-.034l.583-.074c.1-.011.2-.023.284-.038l1.536-.263.225-.034.155-.025c.169-.026.339-.049.511-.07l.26-.034c.083-.011.168-.019.252-.027l.532-.047c.413-.03.776-.044,1.111-.044.159,0,.312,0,.46.009a10.787,10.787,0,0,1,1.54.172,12.826,12.826,0,0,1,1.5.388c.362.116.72.246,1.1.383l.451.161c.5.172,1.093.371,1.742.526.275.07.58.129.958.189.134.021.278.038.418.057l.572.051a15.509,15.509,0,0,0,1.928.019,15.728,15.728,0,0,0,1.854-.2l.208-.04c.22-.04.445-.08.657-.131l.151-.032c.091-.019.18-.04.267-.061l.407-.1c.542-.146,1.049-.3,1.509-.443l1.123-.354c.081-.025.161-.049.241-.072l.32-.1c.106-.028.206-.055.307-.083l.055-.015c.032-.009.064-.019.1-.027l.473-.112a13.579,13.579,0,0,1,2.329-.254c.127,0,.242,0,.36,0l.123-.3c-.153-.017-.3-.03-.439-.042A13.6,13.6,0,0,0,771.306,90.355Zm-15.352,2.2c.142.051.288.1.435.155a17.5,17.5,0,0,0,1.742.526c.273.07.576.129.958.189.133.021.275.04.415.057l.106.013.47.04a15.85,15.85,0,0,0,1.928.017,14.646,14.646,0,0,0,1.557-.153c-.044,0-.089.008-.133.009a16.092,16.092,0,0,1-1.945.023l-.256-.015-.312-.025c-.148-.015-.3-.03-.441-.049-.373-.051-.693-.106-.981-.172-.663-.142-1.267-.328-1.782-.492-.153-.049-.3-.1-.451-.148-.388-.131-.756-.252-1.123-.36a12.557,12.557,0,0,0-1.5-.354,10.683,10.683,0,0,0-1.526-.138c-.138,0-.282,0-.434,0,.224.027.443.061.659.1a12.418,12.418,0,0,1,1.5.39C755.2,92.285,755.568,92.416,755.954,92.554Zm4-2.64h.079c.129,0,.256,0,.379.015a6.155,6.155,0,0,1,1.064.191c.261.066.523.148.8.233l.324.1a9.433,9.433,0,0,0,1.238.294,5.169,5.169,0,0,0,.661.061c.089,0,.187,0,.284,0l.379-.023a6.963,6.963,0,0,0,1.259-.227,6.649,6.649,0,0,0,.987-.35l-.074.023a7.281,7.281,0,0,1-1.276.275l-.17.017-.17.015c-.106,0-.218.009-.322.009h-.021a5.333,5.333,0,0,1-.68-.042,9.7,9.7,0,0,1-1.265-.256l-.339-.093c-.275-.076-.534-.146-.79-.2a6.266,6.266,0,0,0-1.047-.153,4.781,4.781,0,0,0-1.019.061C760.147,89.874,760.054,89.893,759.958,89.914Zm-16,.066c-.311-.061-.623-.136-.954-.214l-.358-.085a12.445,12.445,0,0,0-1.452-.252,6.691,6.691,0,0,0-.782-.044c-.1,0-.214.006-.322.009l-.466.034a9.8,9.8,0,0,0-1.5.273,8.9,8.9,0,0,0-1.168.379l.083-.023a10.421,10.421,0,0,1,1.513-.316l.462-.047c.116-.006.235-.013.345-.017l.221,0c.21,0,.4.008.578.023a12.5,12.5,0,0,1,1.483.216c.138.028.273.055.405.083.318.066.619.129.918.178a8.171,8.171,0,0,0,1.233.121A7.55,7.55,0,0,0,745.4,90.2c.108-.017.22-.04.335-.064-.182.008-.36.008-.538,0a8.432,8.432,0,0,1-1.246-.157Zm-9.7,3.534c.365.116.727.246,1.111.384l.439.157a18.007,18.007,0,0,0,1.742.526c.273.068.578.129.96.189.133.021.278.038.419.055l.572.053a16.259,16.259,0,0,0,1.926.019,15.292,15.292,0,0,0,1.854-.2l.212-.038c.218-.04.445-.081.655-.131l.155-.034c.089-.019.178-.038.263-.061l.405-.1c.543-.146,1.053-.294,1.509-.441l1.119-.352c.083-.025.165-.051.246-.074l.32-.1.358-.1c.034-.009.066-.019.1-.027l.475-.112a13.533,13.533,0,0,1,2.329-.254c.752-.023,1.4,0,1.886.017.3.013.58.028.818.044-.214-.047-.464-.1-.758-.155a18.436,18.436,0,0,0-1.9-.254,13.148,13.148,0,0,0-2.606.027l-.526.076c-.045.008-.095.015-.144.025l-.776.153c-.352.074-.712.159-1.058.242l-1.132.269c-.085.021-.171.038-.256.057l-.117.027-.136.028c-.081.019-.161.036-.24.051-.551.112-1.051.2-1.53.256a15.088,15.088,0,0,1-1.579.11l-.2.006c-.068,0-.136,0-.2,0-.133,0-.267-.008-.4-.009-.07,0-.136,0-.2-.008l-.6-.042a11.566,11.566,0,0,1-3.034-.731l-.384-.134c-.4-.14-.809-.284-1.24-.42a13.713,13.713,0,0,0-1.835-.441c-.106-.019-.212-.034-.32-.049l-.165-.023c-.114-.013-.229-.025-.345-.036l-.307-.027c-.11-.008-.218-.013-.326-.019l-.14,0c-.1,0-.2-.008-.29-.009l.439,1.1c.364.034.667.074.943.125A12.8,12.8,0,0,1,734.255,93.514Zm37.161-1.191c-.127.008-.256.017-.383.027l-.106.008-.337.036-.258.032c-.127.019-.252.038-.379.059-.053.011-.11.021-.165.032-.106.019-.21.038-.314.061a13.74,13.74,0,0,0-1.812.525c-.439.161-.856.328-1.259.492l-.341.136a11.543,11.543,0,0,1-3,.865l-.6.07-.123.009-.129.009-.352.025a1.779,1.779,0,0,1-.2.009l-.2.006a14.945,14.945,0,0,1-1.581-.04c-.483-.04-.987-.1-1.542-.187-.083-.011-.168-.027-.254-.04l-.256-.045c-.081-.013-.163-.027-.246-.044l-.742-.138-.411-.08c-.346-.066-.706-.136-1.058-.193l-.365-.059-.462-.064c-.034-.006-.068-.009-.1-.013l-.172-.017-.356-.034a13.468,13.468,0,0,0-2.606.089c-.619.08-1.238.191-1.89.341-.29.066-.542.133-.752.191.235-.027.511-.055.816-.083.437-.038,1.108-.089,1.884-.1a13.741,13.741,0,0,1,2.337.146c.1.021.206.042.312.061l.169.03.1.023.687.163.286.076,1.094.29c.46.127.973.252,1.528.375l.411.083c.087.021.178.036.269.051l.153.027c.218.04.451.072.678.1l.2.027a15.237,15.237,0,0,0,1.856.116,15.747,15.747,0,0,0,1.926-.106l.252-.03.316-.047c.14-.023.286-.047.419-.074.377-.08.68-.151.947-.233a18.1,18.1,0,0,0,1.719-.606l.443-.18c.373-.153.725-.3,1.081-.43a12.784,12.784,0,0,1,1.481-.458,10.967,10.967,0,0,1,1.528-.241,13.291,13.291,0,0,1,1.574-.036h.03l.386-.968-.254-.023A14.554,14.554,0,0,0,771.416,92.323Zm-.786,2.151a12.745,12.745,0,0,0-1.485.422c-.356.123-.71.258-1.085.4l-.466.178c-.509.187-1.106.4-1.759.572-.275.078-.583.146-.969.216-.144.026-.3.049-.451.07l-.555.064a15.992,15.992,0,0,1-1.943.064l-.133,0c.583.059,1.081.08,1.56.081a15.8,15.8,0,0,0,1.926-.1l.576-.08c.138-.023.28-.047.409-.072.367-.076.678-.151.949-.233a18.02,18.02,0,0,0,1.718-.606c.152-.061.3-.121.449-.182.371-.153.723-.3,1.076-.428a12.419,12.419,0,0,1,1.481-.458c.208-.049.428-.091.667-.129-.159,0-.3.009-.445.019A11,11,0,0,0,770.63,94.474Z" transform="translate(-713.555 -36.333)" fill="#fff"/>
      <path id="Контур_7" data-name="Контур 7" d="M780.181,82.724,769.03,54.874h0L741.181,43.724V54.017l20.5,8.208h0l8.208,20.5Z" transform="translate(-702.181 -43.724)" fill="#00b5f1"/>
      <path id="Контур_8" data-name="Контур 8" d="M731.737,54.875h0L720.586,82.724h10.293l8.208-20.5h0l20.5-8.208V43.724Z" transform="translate(-720.586 -43.724)" fill="#ff9d00"/>
      <path id="Контур_9" data-name="Контур 9" d="M769.03,92.168l11.151-27.849H769.888l-8.208,20.5-20.5,8.208v10.293L769.03,92.168h0Z" transform="translate(-702.181 -25.319)" fill="#00a48b"/>
      <path id="Контур_10" data-name="Контур 10" d="M759.586,93.026l-20.5-8.208h0l-8.208-20.5H720.586l11.151,27.849h0l27.849,11.151Z" transform="translate(-720.586 -25.319)" fill="#ef5713"/>
    </g>
  </g>
</svg>
