<?xml version="1.0" standalone="no"?>
<!DOCTYPE svg PUBLIC "-//W3C//DTD SVG 20010904//EN"
 "http://www.w3.org/TR/2001/REC-SVG-20010904/DTD/svg10.dtd">
<svg version="1.0" xmlns="http://www.w3.org/2000/svg"
 width="450.000000pt" height="427.000000pt" viewBox="0 0 450.000000 427.000000"
 preserveAspectRatio="xMidYMid meet">

<g transform="translate(0.000000,427.000000) scale(0.100000,-0.100000)"
fill="#00B09BFF"  stroke="none">
<path opacity="0.8" d="M1348 3700 c106 -191 235 -327 464 -487 77 -53 169 -124 204 -156 72
-66 144 -169 180 -258 22 -53 24 -66 13 -91 -7 -17 -9 -47 -5 -76 8 -63 37
-162 46 -162 4 0 16 30 26 68 17 59 20 113 13 202 -4 58 100 229 190 312 32
30 125 102 207 160 82 58 183 137 225 177 89 83 188 210 244 313 l39 72 -35
-22 c-464 -306 -1354 -306 -1818 -1 l-34 23 41 -74z"/>
<path d="M1367 3288 c-37 -198 -47 -271 -46 -358 l0 -75 16 45 c45 129 164
243 298 285 18 5 15 10 -25 42 -25 20 -83 74 -129 120 -47 46 -85 83 -86 83
-1 0 -13 -64 -28 -142z"/>
<path d="M3005 3340 c-50 -50 -107 -102 -128 -117 l-37 -26 78 -38 c117 -57
220 -175 246 -283 14 -59 17 -14 7 106 -9 108 -46 331 -68 419 l-8 29 -90 -90z"/>
<path d="M1679 3087 c-100 -28 -183 -99 -230 -196 -34 -68 -38 -196 -9 -273
28 -76 104 -159 178 -195 50 -25 68 -28 152 -28 83 0 102 3 150 27 183 90 256
294 169 474 -72 151 -254 235 -410 191z m195 -64 c64 -23 130 -83 164 -147 36
-69 38 -188 5 -256 -31 -63 -89 -119 -152 -148 -46 -21 -64 -24 -135 -20 -67
3 -92 9 -128 31 -98 57 -151 150 -151 262 0 77 17 127 65 187 75 95 214 133
332 91z"/>
<path d="M1706 2926 c-76 -29 -126 -98 -126 -176 0 -39 1 -40 34 -40 55 0 91
-54 67 -98 -17 -31 -14 -37 22 -50 111 -40 226 23 258 140 13 48 5 89 -27 146
-42 72 -147 108 -228 78z m190 -221 c15 -23 15 -27 0 -50 -9 -14 -22 -26 -29
-26 -56 -6 -89 48 -51 85 24 24 61 20 80 -9z"/>
<path d="M2639 3087 c-104 -30 -191 -105 -237 -206 -21 -45 -26 -71 -26 -136
0 -69 4 -90 31 -145 37 -80 100 -144 173 -179 47 -22 68 -26 150 -26 84 0 102
4 152 29 67 33 141 108 171 174 18 38 22 65 22 147 0 114 -17 160 -86 239 -80
91 -234 136 -350 103z m231 -83 c59 -32 121 -103 141 -161 21 -60 16 -160 -10
-220 -27 -62 -93 -126 -158 -155 -38 -17 -61 -20 -127 -16 -99 6 -145 27 -208
97 -147 163 -74 411 142 482 14 5 57 7 96 5 55 -2 82 -9 124 -32z"/>
<path d="M2642 2914 c-174 -86 -123 -346 70 -361 35 -3 66 1 91 11 36 16 37
17 22 39 -20 29 -19 49 6 81 15 19 30 26 55 26 33 0 34 1 34 40 0 56 -20 99
-63 137 -66 57 -136 66 -215 27z m48 -203 c15 -29 12 -49 -9 -70 -24 -24 -56
-18 -78 15 -14 22 -14 26 1 49 21 31 70 35 86 6z"/>
<path d="M1380 2334 c-146 -106 -263 -252 -317 -391 -37 -98 -44 -256 -14
-374 26 -107 105 -266 180 -366 120 -160 320 -337 457 -406 l52 -26 -55 105
c-100 191 -140 346 -150 576 l-6 136 -35 -51 c-19 -29 -58 -80 -86 -115 -60
-76 -61 -75 -108 68 -29 88 -32 106 -32 235 -1 122 2 149 23 214 14 41 47 108
74 148 45 68 66 91 54 59 -18 -47 -58 -259 -67 -357 -10 -107 0 -322 16 -338
13 -13 95 140 129 239 35 102 49 207 42 318 -6 97 -40 250 -74 330 l-19 44
-64 -48z"/>
<path d="M3033 2327 c-49 -128 -67 -226 -67 -377 0 -132 2 -152 28 -230 37
-113 126 -283 140 -269 16 16 26 231 16 338 -9 97 -47 300 -67 360 -14 39 59
-61 92 -126 53 -108 68 -186 62 -323 -4 -92 -11 -134 -36 -210 -17 -53 -36
-104 -44 -114 -12 -17 -16 -15 -50 27 -20 25 -59 77 -85 116 l-49 70 -6 -147
c-10 -223 -51 -376 -151 -567 l-54 -104 57 28 c79 41 207 139 304 236 320 316
427 679 287 969 -16 34 -53 93 -83 131 -52 68 -186 193 -245 227 l-29 18 -20
-53z"/>
<path d="M2021 2207 c-7 -28 -27 -76 -43 -106 -25 -45 -27 -53 -11 -46 69 29
70 29 112 8 22 -11 41 -19 41 -17 0 1 -10 19 -21 39 -12 19 -31 67 -43 105
l-22 69 -13 -52z"/>
<path d="M2457 2254 c-4 -4 -7 -17 -7 -28 0 -26 -35 -118 -56 -152 l-16 -24
37 16 c43 18 75 13 118 -18 l29 -21 -24 39 c-32 52 -56 111 -66 157 -4 21 -11
35 -15 31z"/>
<path d="M2235 2214 c-5 -30 -28 -86 -63 -157 -2 -5 10 -1 28 8 37 19 83 14
112 -12 23 -21 23 -10 -2 36 -27 51 -50 110 -50 132 0 34 -18 29 -25 -7z"/>
<path d="M1917 1931 c-3 -23 -21 -75 -41 -116 l-35 -75 31 16 c30 15 84 16
119 0 12 -5 9 7 -12 51 -16 32 -35 82 -42 112 l-14 54 -6 -42z"/>
<path d="M2342 1917 c-8 -31 -27 -83 -43 -115 -16 -31 -29 -59 -29 -61 0 -2
11 4 25 13 28 18 87 21 116 6 19 -11 29 3 10 14 -11 7 -59 141 -63 176 -2 17
-7 7 -16 -33z"/>
<path d="M2561 1949 c-1 -35 -33 -125 -61 -173 l-23 -38 40 21 c41 20 57 20
117 -5 18 -7 18 -4 -4 31 -13 22 -34 73 -47 115 -12 41 -22 63 -22 49z"/>
<path d="M2127 1918 c-3 -23 -21 -72 -39 -110 -36 -71 -36 -77 -4 -53 22 17
102 20 111 5 3 -5 10 -10 15 -10 5 0 -5 29 -21 65 -17 36 -33 83 -36 105 -7
52 -19 51 -26 -2z"/>
<path d="M1817 1640 c-3 -8 -10 -33 -16 -55 -6 -22 -21 -62 -35 -88 -19 -39
-21 -47 -7 -41 42 19 93 16 123 -6 17 -12 29 -19 27 -14 -2 5 -17 33 -32 62
-15 29 -34 76 -41 105 -8 28 -16 45 -19 37z"/>
<path d="M2027 1620 c-4 -20 -23 -69 -42 -109 -35 -72 -35 -73 -11 -57 31 20
86 21 112 1 33 -25 35 -17 8 38 -15 28 -35 77 -44 107 l-17 55 -6 -35z"/>
<path d="M2236 1612 c-3 -20 -19 -66 -36 -100 -36 -76 -36 -77 -8 -58 30 21
76 20 114 -3 l31 -19 -34 67 c-18 36 -36 83 -39 104 -9 51 -20 55 -28 9z"/>
<path d="M2446 1595 c-10 -33 -28 -80 -42 -104 -20 -36 -21 -42 -6 -35 37 16
92 16 117 0 13 -9 26 -16 28 -16 2 0 -12 30 -30 68 -18 37 -36 85 -41 107 l-8
40 -18 -60z"/>
<path d="M2666 1615 c-4 -22 -20 -67 -36 -100 -16 -33 -27 -61 -25 -63 2 -2
12 1 23 7 29 15 75 14 98 -4 33 -25 35 -17 8 38 -15 28 -35 77 -44 107 l-17
55 -7 -40z"/>
<path d="M1911 1298 c-8 -27 -26 -75 -42 -106 -16 -32 -29 -58 -29 -59 0 -1
18 8 40 20 38 21 41 21 85 6 l45 -17 -19 32 c-11 17 -30 63 -44 103 l-24 71
-12 -50z"/>
<path d="M2341 1306 c-6 -27 -25 -75 -42 -107 -16 -33 -28 -59 -26 -59 2 0 18
7 36 16 31 15 62 15 104 -2 17 -6 17 -3 -4 37 -12 24 -30 71 -39 103 l-17 60
-12 -48z"/>
<path d="M2555 1312 c-3 -22 -21 -68 -38 -103 -17 -35 -33 -68 -35 -72 -2 -4
11 1 30 13 39 24 69 25 108 5 l29 -15 -34 72 c-19 40 -35 82 -35 93 0 11 -4
26 -9 34 -6 10 -11 2 -16 -27z"/>
<path d="M2127 1306 c-3 -19 -21 -66 -40 -104 l-34 -70 31 19 c37 23 71 24
109 5 15 -8 27 -14 27 -13 0 1 -14 29 -30 61 -17 33 -33 77 -36 98 -8 47 -20
49 -27 4z"/>
<path d="M2026 1014 c-4 -22 -22 -70 -40 -107 -24 -49 -28 -66 -17 -61 64 26
71 26 111 6 22 -11 40 -18 40 -16 0 1 -10 19 -21 39 -12 19 -32 68 -44 107
l-23 72 -6 -40z"/>
<path d="M2450 1004 c-7 -27 -26 -75 -41 -106 -15 -32 -26 -58 -25 -58 2 0 17
7 32 15 32 17 74 12 113 -13 23 -15 23 -14 -7 44 -17 32 -37 83 -45 113 l-14
54 -13 -49z"/>
<path d="M2237 1008 c-4 -26 -37 -107 -65 -160 -2 -4 15 0 38 9 38 15 43 15
78 -3 20 -10 40 -20 44 -22 4 -2 -6 21 -22 50 -15 29 -34 73 -41 98 -17 60
-25 68 -32 28z"/>
<path d="M1865 626 c-53 -13 -78 -25 -138 -65 -35 -22 -37 -26 -22 -37 9 -7
47 -18 83 -24 65 -12 135 -6 186 15 14 6 17 5 12 -3 -5 -9 59 -12 260 -12
l268 0 -44 32 -43 32 34 16 c49 22 175 20 214 -3 17 -10 21 -15 10 -12 -73 23
-113 27 -168 16 -31 -7 -59 -16 -62 -21 -3 -5 20 -21 52 -36 45 -23 71 -28
127 -29 71 0 166 20 166 36 0 26 -133 91 -212 104 -55 9 -166 -21 -259 -69
l-84 -43 -70 38 c-126 67 -222 87 -310 65z m137 -36 c61 -17 52 -28 -10 -12
-56 14 -121 9 -177 -13 -12 -5 -17 -4 -12 1 27 30 132 42 199 24z"/>
</g>
</svg>
