<?xml version="1.0" standalone="no"?>
<!DOCTYPE svg PUBLIC "-//W3C//DTD SVG 20010904//EN"
 "http://www.w3.org/TR/2001/REC-SVG-20010904/DTD/svg10.dtd">
<svg version="1.0" xmlns="http://www.w3.org/2000/svg"
 width="1920.000000pt" height="768.000000pt" viewBox="0 0 1920.000000 768.000000"
 preserveAspectRatio="xMidYMid meet">

<g transform="translate(0.000000,768.000000) scale(0.100000,-0.100000)"
fill="#00b5f1" opacity="0.2" stroke="none">
<path d="M10056 7273 c-3 -3 -6 -64 -6 -134 0 -123 -1 -129 -25 -153 -25 -25
-33 -70 -15 -81 17 -11 11 -23 -18 -33 -66 -23 -132 -112 -132 -180 0 -27 -4
-31 -32 -34 -46 -4 -47 -26 -1 -30 l38 -3 3 -133 c2 -119 1 -133 -15 -139 -27
-10 -33 -23 -33 -78 l0 -50 -79 -28 c-313 -110 -550 -396 -604 -727 l-12 -75
-62 -3 c-80 -4 -86 -25 -10 -38 59 -10 72 -35 23 -44 -44 -8 -44 -28 1 -32
l38 -3 2 -177 c1 -140 -1 -179 -12 -188 -20 -17 -52 3 -58 37 -7 38 -36 115
-49 130 -17 20 -37 15 -69 -16 -24 -25 -28 -34 -22 -63 3 -18 13 -43 21 -56
13 -20 13 -24 -1 -40 -12 -14 -17 -44 -19 -127 l-3 -110 -53 -3 c-33 -2 -55
-8 -58 -16 -3 -8 8 -36 24 -62 38 -63 42 -120 43 -678 0 -457 3 -436 -58 -436
-19 0 -33 -5 -34 -12 -3 -38 4 -93 12 -96 5 -2 9 -46 9 -98 l0 -95 -82 3 -83
3 -3 29 c-2 18 -11 30 -23 33 -18 5 -19 18 -19 329 l0 323 33 3 32 3 0 65 0
65 -47 35 c-48 35 -48 35 -48 92 0 51 2 58 20 58 11 0 20 5 20 10 0 6 -9 10
-20 10 -13 0 -27 12 -38 32 -27 50 -82 107 -129 135 -24 14 -48 34 -54 44 -5
10 -8 60 -7 111 2 70 -2 100 -14 123 -30 58 -38 80 -40 128 -2 26 -7 47 -13
47 -5 0 -11 -21 -13 -47 -2 -27 -7 -52 -13 -57 -5 -6 -9 -20 -9 -32 0 -12 -7
-35 -15 -50 -17 -33 -20 -70 -5 -79 6 -3 10 -34 10 -69 0 -70 -6 -79 -74 -109
-60 -28 -99 -61 -131 -116 -26 -44 -34 -51 -62 -51 -17 0 -35 -4 -38 -10 -4
-6 5 -10 19 -10 25 0 26 -3 26 -54 l0 -55 -77 -43 -78 -44 0 -64 0 -65 40 -5
c23 -3 40 -10 39 -17 -1 -7 -2 -152 -2 -322 l-2 -310 -22 -3 c-18 -2 -24 -11
-26 -35 l-3 -33 -132 0 -132 0 -149 268 c-83 147 -218 389 -301 537 -84 149
-169 302 -190 340 -22 39 -46 82 -54 98 -12 20 -13 29 -5 35 384 248 597 402
557 402 -3 0 -161 -103 -350 -230 -241 -161 -351 -230 -371 -230 -34 0 -1043
167 -1049 174 -5 5 184 131 519 346 128 82 172 120 140 120 -5 0 -132 -80
-283 -178 -406 -264 -509 -333 -509 -342 0 -5 30 -60 68 -122 71 -120 205
-392 362 -738 146 -320 390 -954 390 -1013 0 -4 -8 -7 -19 -7 -10 0 -24 -7
-31 -15 -18 -22 -27 -11 -40 53 -7 31 -16 65 -21 75 -11 20 -42 23 -57 5 -12
-15 -17 -206 -7 -258 6 -32 1 -42 -69 -132 -42 -53 -76 -102 -76 -108 0 -7 22
-43 50 -81 l50 -69 0 -89 c0 -66 -4 -92 -15 -101 -21 -17 -19 -37 5 -43 19 -5
20 -14 20 -154 0 -155 5 -193 24 -193 8 0 11 51 11 172 l0 173 50 0 50 0 5
-255 c3 -140 9 -261 13 -267 9 -14 37 -18 37 -5 0 4 -5 13 -10 18 -7 7 -9 100
-8 260 3 241 4 249 23 249 19 0 20 -8 25 -255 3 -140 7 -256 8 -257 1 -2 8 -3
15 -3 9 0 12 58 12 257 0 223 2 258 15 258 13 0 16 -35 20 -235 5 -217 9 -260
28 -260 4 0 6 111 4 246 -3 200 -1 245 10 242 10 -4 13 -51 14 -217 1 -153 5
-219 14 -237 21 -38 28 -28 18 25 -4 26 -7 140 -6 252 3 203 3 204 26 207 l22
3 0 -230 c0 -230 6 -281 35 -281 17 0 20 21 5 36 -7 7 -9 69 -8 165 l3 154 65
0 65 0 5 -180 c3 -99 9 -186 13 -192 8 -13 47 -18 47 -7 0 4 -7 12 -16 18 -14
11 -16 48 -16 295 0 156 4 287 9 292 5 5 250 8 564 7 l554 -3 0 -528 c0 -504
1 -528 18 -525 17 3 18 28 17 523 -2 616 -2 593 -1 628 l1 27 218 0 c154 0
221 -3 230 -12 7 -7 45 -12 94 -12 l83 -1 3 -390 c1 -214 5 -397 10 -405 4 -8
9 167 12 390 l5 405 25 0 c30 0 42 -22 66 -120 9 -38 21 -80 27 -92 7 -15 8
-106 4 -260 -4 -131 -7 -266 -7 -300 0 -49 -3 -63 -15 -63 -19 0 -19 -26 0
-34 9 -3 21 4 30 17 12 19 15 76 15 324 1 222 4 304 13 310 7 5 32 8 57 8 l45
0 6 -60 c4 -33 10 -213 13 -400 8 -423 13 -505 32 -505 11 0 13 19 9 103 -3
56 -10 281 -15 501 l-10 398 25 63 c13 35 26 74 28 86 4 21 10 24 57 27 91 5
93 3 118 -93 13 -47 26 -115 29 -149 5 -61 5 -64 -18 -71 -45 -14 -81 -48
-105 -99 -24 -51 -24 -54 -24 -402 0 -288 3 -354 14 -370 12 -15 17 -16 27 -7
9 10 10 15 0 27 -9 11 -12 103 -11 357 l0 342 28 50 c24 44 74 88 86 76 3 -2
8 -180 13 -395 7 -310 11 -395 22 -408 18 -22 37 -5 23 20 -6 11 -13 205 -17
460 l-8 442 53 3 c28 2 54 0 58 -5 3 -5 13 -208 24 -450 20 -493 24 -536 45
-536 10 0 13 6 9 16 -13 35 -42 854 -30 854 5 0 24 -9 42 -20 65 -40 66 -49
72 -510 3 -228 9 -421 13 -427 11 -18 37 -16 37 2 0 8 -4 15 -10 15 -6 0 -10
131 -10 373 0 204 -4 398 -10 431 -10 65 -44 117 -94 146 -17 10 -37 24 -43
30 -23 20 -15 103 21 201 l34 94 68 0 69 0 26 -80 26 -80 6 -543 c6 -491 8
-546 24 -573 18 -30 43 -39 43 -15 0 8 -6 16 -14 19 -15 6 -25 275 -27 762
l-2 290 60 3 61 3 5 -53 c4 -29 9 -105 12 -168 3 -63 15 -270 26 -460 11 -189
17 -355 14 -367 -4 -16 0 -25 10 -29 9 -4 18 -4 21 -1 3 3 -2 133 -11 289 -49
868 -47 810 -25 936 l13 72 72 0 72 0 18 -62 c21 -70 23 -125 27 -865 3 -400
2 -432 -14 -427 -16 5 -35 -12 -25 -22 3 -3 19 -7 36 -9 l31 -4 0 584 0 583
61 4 c33 1 64 -1 68 -7 4 -5 13 -125 20 -265 6 -140 16 -329 21 -420 14 -255
29 -565 32 -675 l3 -100 -105 -5 c-63 -3 -104 -9 -103 -15 2 -7 226 -11 640
-13 564 -2 639 -4 650 -18 7 -10 13 -12 18 -4 4 6 2 16 -4 23 -6 8 -10 106
-10 257 -1 135 -4 467 -7 738 -5 345 -4 496 3 500 6 4 33 5 61 4 l49 -4 7 -91
c6 -96 24 -407 55 -963 10 -182 21 -337 25 -343 9 -13 16 -14 36 -1 12 7 12
12 -3 28 -13 15 -17 33 -15 68 l3 49 58 3 58 3 -3 487 -3 487 -29 59 c-27 54
-34 61 -94 88 l-65 30 7 116 c3 64 9 136 12 160 l7 43 61 -3 60 -3 18 -85 c10
-47 23 -98 29 -115 7 -18 15 -168 19 -365 5 -184 11 -427 14 -540 3 -113 6
-215 6 -227 0 -14 6 -23 16 -23 14 0 15 15 10 122 -3 68 -8 254 -11 413 -3
160 -8 361 -12 448 l-6 158 64 -3 c56 -3 64 -6 66 -23 3 -40 24 -348 43 -650
26 -395 27 -405 59 -386 9 6 10 13 2 27 -20 36 -34 313 -38 780 l-5 471 153 6
c84 4 199 7 256 7 l103 0 0 -507 c0 -484 1 -509 20 -533 22 -29 39 -20 21 13
-8 16 -11 137 -9 462 l3 440 560 0 560 0 3 -317 2 -316 -44 -17 c-64 -24 -89
-55 -84 -100 4 -31 0 -39 -29 -61 -37 -28 -42 -44 -14 -44 28 0 42 -23 35 -59
-5 -21 -12 -31 -25 -31 -26 0 -24 -23 4 -35 l22 -10 0 -445 0 -445 1270 -5
c716 -3 1275 -1 1283 4 8 5 12 36 12 87 l0 79 895 0 896 0 -3 103 c-3 110 1
102 -60 106 -17 1 -18 30 -18 461 l0 460 29 0 c16 0 34 7 41 15 11 13 7 21
-21 49 -19 18 -47 63 -63 99 -26 61 -31 67 -58 67 -25 0 -29 3 -22 18 27 61
11 142 -39 199 -29 33 -32 34 -79 28 -43 -6 -54 -4 -88 20 -21 15 -56 52 -77
82 -35 52 -38 61 -42 140 -3 75 -1 89 19 114 15 21 20 41 18 67 -3 35 -5 37
-40 40 -43 4 -44 4 -22 37 21 33 21 117 0 150 -25 38 -51 48 -93 34 -32 -10
-37 -9 -59 13 -35 34 -94 212 -99 295 -3 62 11 161 30 205 5 12 2 18 -6 19 -8
1 -21 2 -29 3 -13 1 -15 37 -15 256 0 251 2 272 25 338 16 42 6 82 -20 82 -13
0 -32 18 -52 48 -17 26 -53 64 -80 85 l-49 38 3 107 c3 106 3 107 28 110 53 6
54 11 6 62 -25 27 -46 58 -46 69 0 11 -18 41 -40 66 -40 46 -40 47 -40 129 0
45 4 86 10 92 6 6 3 80 -10 214 -51 528 -90 960 -90 998 0 22 5 44 10 47 15 9
12 48 -5 71 -8 10 -15 34 -15 52 0 26 5 34 26 42 28 11 24 30 -7 30 -10 0 -19
7 -19 15 0 8 -7 15 -15 15 -8 0 -15 -6 -15 -14 0 -7 -9 -16 -21 -19 -23 -6
-17 -27 7 -27 23 0 18 -72 -6 -93 -26 -22 -25 -45 2 -74 l22 -24 -18 -182 c-9
-100 -28 -292 -41 -427 -13 -135 -29 -301 -35 -370 -6 -69 -15 -154 -20 -190
-8 -53 -7 -66 5 -73 11 -6 15 -29 15 -94 0 -84 -1 -86 -35 -124 -26 -30 -35
-48 -35 -75 0 -29 -7 -44 -35 -70 -19 -18 -35 -35 -35 -38 0 -2 12 -6 28 -8
l27 -3 3 -111 3 -110 -50 -46 c-41 -38 -51 -53 -56 -92 -4 -25 -11 -49 -16
-52 -5 -3 -23 4 -39 16 -16 12 -35 18 -41 15 -14 -9 -2 -114 17 -161 11 -25
14 -90 14 -266 0 -128 -4 -239 -9 -247 -5 -8 -15 -11 -23 -8 -35 13 -38 -9 -9
-64 28 -51 29 -59 26 -156 -5 -134 -35 -248 -80 -300 -31 -36 -34 -37 -59 -24
-24 13 -28 12 -52 -10 -45 -42 -67 -97 -61 -151 6 -46 5 -48 -18 -48 -28 0
-30 -3 -39 -51 -5 -30 -2 -42 19 -67 24 -29 25 -36 25 -156 l0 -126 -53 -55
-54 -56 -56 7 -57 7 -44 -45 c-49 -49 -64 -88 -49 -128 7 -19 6 -29 -4 -39 -8
-7 -12 -19 -9 -27 3 -7 1 -16 -4 -19 -5 -3 -21 18 -36 47 -35 70 -136 218
-165 244 -21 18 -84 56 -224 134 -61 34 -63 37 -58 78 13 101 -158 212 -237
153 l-30 -21 -60 37 c-33 21 -60 41 -60 46 0 4 11 24 23 45 13 20 36 67 51
104 24 61 26 78 23 165 l-4 98 46 61 c25 33 70 107 99 165 62 121 77 199 48
244 -17 26 -16 29 8 91 30 75 32 94 10 140 -15 30 -15 39 1 99 13 54 14 76 5
120 -6 30 -16 57 -21 61 -7 4 -8 31 -4 70 8 74 -4 115 -47 156 -15 14 -28 32
-28 40 0 8 -11 25 -26 39 -23 22 -27 23 -52 8 -17 -9 -32 -29 -39 -54 -7 -22
-24 -80 -39 -130 -15 -49 -54 -143 -87 -207 -50 -99 -82 -143 -196 -278 -75
-88 -154 -186 -175 -217 l-40 -56 -28 33 c-21 26 -28 45 -28 78 0 39 5 49 44
86 56 53 69 74 102 170 21 63 26 90 21 137 -7 84 -30 118 -107 157 -62 32 -69
34 -146 29 -44 -2 -91 -10 -104 -17 -21 -11 -26 -10 -39 10 -35 52 -101 108
-147 125 -27 10 -57 28 -66 39 -16 19 -17 20 -24 3 -3 -10 -39 -32 -79 -51
-101 -47 -123 -78 -123 -176 -1 -97 13 -141 60 -195 38 -43 104 -75 156 -75
119 0 232 124 220 241 -2 28 1 35 25 47 45 22 146 33 192 21 72 -20 114 -47
135 -89 35 -69 23 -185 -23 -209 -12 -6 -44 -29 -72 -51 -27 -22 -56 -38 -64
-35 -8 3 -47 -8 -87 -25 -40 -16 -78 -30 -85 -30 -6 0 -56 -22 -110 -50 -82
-42 -107 -50 -153 -50 l-55 0 -27 49 c-14 28 -32 51 -38 53 -6 2 -105 2 -219
0 l-208 -3 -19 -45 -19 -44 -403 2 c-350 3 -403 5 -404 18 -1 8 -2 21 -3 28 0
6 -12 12 -26 12 l-25 0 0 324 0 325 38 3 37 3 3 65 3 65 -63 34 c-91 49 -98
57 -98 108 0 36 4 46 20 50 30 8 24 21 -12 25 -24 2 -36 11 -51 38 -30 56 -78
99 -139 128 -32 14 -61 34 -64 44 -7 23 -6 111 2 161 4 26 1 45 -10 62 -9 13
-16 33 -16 44 0 11 -4 23 -10 26 -5 3 -10 31 -10 61 0 84 -23 65 -32 -25 -3
-41 -13 -80 -21 -89 -25 -29 -40 -88 -28 -111 16 -28 13 -107 -4 -140 -8 -16
-25 -31 -38 -35 -36 -9 -111 -79 -138 -130 -18 -34 -30 -46 -46 -46 -30 0 -30
-18 0 -22 19 -3 22 -9 23 -52 2 -51 -1 -57 -70 -109 -36 -28 -37 -30 -34 -90
3 -62 3 -62 36 -65 l32 -3 0 -323 c0 -315 -1 -324 -20 -329 -14 -3 -20 -14
-20 -31 l0 -26 -100 0 -100 0 0 95 c0 84 2 95 20 105 13 7 20 21 20 38 0 48
-18 61 -90 64 l-65 3 -3 459 c-1 300 1 463 8 470 5 5 10 28 10 50 0 35 9 51
60 111 33 39 60 75 60 82 0 8 -22 13 -62 15 l-63 3 -3 114 c-2 94 -6 116 -20
127 -14 10 -17 29 -17 98 0 94 -14 127 -40 92 -8 -11 -21 -16 -30 -13 -44 17
-76 -49 -55 -114 17 -52 8 -71 -32 -67 l-33 3 0 185 c0 184 0 185 23 188 31 5
28 32 -4 32 -21 0 -25 4 -22 23 2 18 11 23 47 27 71 8 65 30 -8 30 -55 0 -61
2 -65 23 -35 199 -53 253 -127 383 -51 90 -167 217 -253 279 -72 51 -179 105
-256 130 -75 24 -80 29 -80 90 0 45 -3 53 -20 58 -20 5 -20 12 -18 139 l3 133
33 3 c38 4 45 32 8 32 -21 0 -24 6 -30 50 -8 58 -54 125 -103 149 -29 14 -32
19 -27 48 9 47 -2 78 -31 91 -25 12 -25 12 -25 141 0 118 -6 152 -24 134z m45
-303 c36 -20 18 -80 -23 -80 -27 0 -59 36 -51 57 12 33 39 41 74 23z m-81
-128 c0 -5 -6 -22 -14 -38 -8 -16 -16 -54 -18 -84 l-4 -55 -45 0 c-40 0 -44 3
-47 25 -4 37 38 111 77 137 36 24 51 28 51 15z m79 -16 c24 -25 40 -79 41
-133 l0 -33 -65 0 -65 0 0 53 c0 57 31 137 53 137 7 0 24 -11 36 -24z m86 -19
c35 -35 62 -104 52 -131 -4 -10 -19 -16 -42 -16 l-35 0 0 53 c0 33 -7 66 -20
90 -17 32 -18 37 -4 37 9 0 31 -15 49 -33z m43 -277 c2 -52 1 -114 -3 -138
l-6 -43 -157 3 -157 3 -3 138 -3 137 163 -2 163 -3 3 -95z m34 -218 c5 -5 8
-22 6 -38 -3 -25 -7 -29 -33 -27 -102 6 -305 2 -334 -7 -19 -5 -38 -7 -42 -4
-12 7 -11 82 1 86 23 7 394 -2 402 -10z m-227 -507 l0 -410 -155 0 -155 0 3
135 c1 74 9 178 18 230 29 168 100 340 174 420 34 37 43 41 77 38 l38 -3 0
-410z m140 383 c58 -68 145 -268 171 -392 16 -77 44 -308 44 -368 l0 -38 -158
0 -159 0 -6 98 c-9 128 -9 717 0 725 3 4 23 7 44 7 30 0 43 -6 64 -32z m154
-20 c86 -50 152 -123 204 -229 77 -156 106 -270 122 -467 l6 -83 -118 3 -118
3 -7 75 c-31 327 -80 511 -179 668 -21 35 -39 66 -39 69 0 13 79 -11 129 -39z
m-462 -6 c-37 -42 -115 -230 -138 -331 -17 -75 -39 -280 -39 -363 l0 -78 -136
0 -137 0 6 90 c11 143 41 251 111 385 49 95 198 253 286 303 54 30 77 28 47
-6z m-117 -6 c0 -1 -27 -24 -59 -49 -144 -114 -276 -373 -297 -585 -4 -37 -8
-74 -10 -82 -1 -8 -3 -23 -3 -32 -1 -16 -13 -18 -105 -18 -58 0 -107 4 -110 8
-8 14 24 170 49 239 54 143 155 281 276 379 88 71 259 164 259 140z m823 -88
c99 -65 229 -202 284 -299 51 -90 99 -231 109 -316 l7 -63 -141 0 c-163 0
-147 -13 -157 130 -13 210 -100 448 -205 563 -27 30 -50 58 -50 61 0 12 76
-26 153 -76z m5997 -213 c15 -18 6 -45 -13 -45 -21 0 -38 25 -31 44 8 20 28
21 44 1z m-5570 -520 l0 -25 -929 0 c-638 0 -932 3 -936 10 -4 6 -4 17 -1 25
5 13 132 15 936 15 l930 0 0 -25z m0 -70 c0 -13 -109 -15 -924 -15 -509 0
-927 4 -930 9 -3 4 -3 11 1 15 3 3 422 6 930 6 814 0 923 -2 923 -15z m0 -89
l0 -45 -927 2 -928 2 -3 28 c-7 61 -76 57 933 57 l925 0 0 -44z m5574 -103 c4
-71 11 -208 17 -306 6 -97 7 -182 4 -187 -3 -6 -19 -10 -36 -10 l-29 0 5 118
c3 64 8 206 11 315 3 108 10 197 14 197 4 0 11 -57 14 -127z m-58 -145 c-11
-315 -15 -358 -37 -358 -13 0 -19 7 -19 23 0 31 38 433 46 485 13 87 16 36 10
-150z m-7306 93 c0 -44 3 -86 6 -95 8 -20 -17 -30 -51 -22 -24 6 -25 8 -25
101 l0 95 35 0 35 0 0 -79z m308 -18 l-3 -98 -85 0 -85 0 -3 98 -3 97 91 0 91
0 -3 -97z m130 0 l-3 -98 -45 0 -45 0 -3 98 -3 97 51 0 51 0 -3 -97z m242 2
c0 -111 4 -108 -125 -103 l-80 3 -3 98 -3 97 106 0 105 0 0 -95z m118 -2 l-3
-98 -40 0 -40 0 -3 98 -3 97 46 0 46 0 -3 -97z m212 2 c0 -110 2 -108 -110
-103 l-65 3 -3 98 -3 97 91 0 90 0 0 -95z m128 -2 l-3 -98 -45 0 -45 0 -3 98
-3 97 51 0 51 0 -3 -97z m212 2 c0 -110 2 -108 -110 -103 l-65 3 -3 84 c-2 46
-1 90 2 98 4 9 29 13 91 13 l85 0 0 -95z m111 88 c0 -5 2 -45 3 -91 2 -92 -5
-105 -51 -100 l-28 3 -3 98 -3 97 41 0 c22 0 40 -3 41 -7z m207 -90 l-3 -97
-85 0 -85 -1 -3 84 c-2 46 -1 90 2 98 4 9 29 13 91 13 l86 0 -3 -97z m80 0
c-3 -90 -5 -98 -23 -98 -18 0 -20 8 -23 98 l-3 97 26 0 26 0 -3 -97z m-1653
-8 c0 -81 -2 -90 -19 -93 -32 -7 -46 25 -46 103 0 40 3 75 7 79 4 4 19 6 33 4
25 -3 25 -4 25 -93z m-307 17 c8 -20 16 -52 19 -69 5 -29 3 -33 -18 -33 -19 0
-29 11 -48 50 l-24 49 24 25 c27 28 28 28 47 -22z m2157 28 c3 -5 14 -10 23
-10 15 0 17 -9 16 -56 -1 -30 -6 -60 -12 -66 -17 -17 -42 -1 -42 27 0 14 -5
34 -11 44 -7 10 -9 30 -5 44 7 28 20 35 31 17z m5497 -404 c2 -39 -1 -61 -9
-63 -7 -3 -13 20 -17 69 -14 180 -17 269 -9 280 7 12 27 -154 35 -286z m-7477
234 c7 -11 -12 -50 -24 -50 -11 0 -22 40 -15 52 7 11 31 10 39 -2z m100 0 c7
-12 -5 -60 -15 -60 -13 0 -41 50 -35 60 8 13 42 13 50 0z m240 0 c9 -15 -4
-50 -20 -50 -13 0 -25 21 -25 46 0 16 36 19 45 4z m99 1 c6 -8 -21 -71 -30
-71 -9 0 -25 54 -20 67 6 15 42 18 50 4z m114 -104 l3 -108 -38 3 -38 3 -3 94
c-1 52 0 101 3 108 3 9 17 13 37 11 l33 -3 3 -108z m107 104 c6 -11 -14 -61
-25 -61 -11 0 -31 50 -25 61 4 5 15 9 25 9 10 0 21 -4 25 -9z m111 -4 c6 -16
-12 -67 -24 -67 -11 0 -42 66 -35 74 12 11 54 6 59 -7z m129 -97 l0 -105 -42
-3 -43 -3 0 104 c0 57 3 107 7 111 4 4 23 6 43 4 l35 -3 0 -105z m90 100 c10
-16 -16 -43 -28 -31 -11 11 -2 41 12 41 5 0 13 -5 16 -10z m89 2 c7 -12 -4
-52 -15 -52 -12 0 -31 39 -24 50 8 12 32 13 39 2z m121 -102 l0 -105 -37 -3
-38 -3 0 104 c0 57 3 107 7 111 4 4 21 6 38 4 l30 -3 0 -105z m90 99 c9 -14
-3 -59 -15 -59 -13 0 -32 48 -24 61 7 12 31 11 39 -2z m98 3 c9 -13 -5 -62
-18 -62 -14 0 -38 48 -30 61 7 11 42 12 48 1z m122 -2 c7 -12 14 -180 8 -197
-3 -7 -20 -13 -39 -13 l-34 0 0 103 c0 57 3 107 7 110 10 10 51 8 58 -3z m98
-4 c6 -16 -16 -40 -26 -29 -4 3 -7 15 -7 25 0 21 25 24 33 4z m77 0 c0 -8 -4
-17 -9 -21 -12 -7 -24 12 -16 25 9 15 25 12 25 -4z m148 -98 l3 -108 -41 0
-40 0 0 111 0 110 38 -3 37 -3 3 -107z m77 92 c0 -7 -6 -15 -12 -17 -8 -3 -13
4 -13 17 0 13 5 20 13 18 6 -3 12 -11 12 -18z m148 7 c3 -7 5 -51 6 -97 1 -82
-9 -123 -26 -106 -10 9 -17 180 -9 201 7 18 22 19 29 2z m-2158 -102 l0 -100
-41 -3 c-36 -3 -42 0 -48 20 -8 32 -8 173 1 182 4 4 25 6 48 4 l40 -3 0 -100z
m2085 89 c0 -8 -4 -12 -10 -9 -5 3 -10 10 -10 16 0 5 5 9 10 9 6 0 10 -7 10
-16z m-1746 -94 l1 -95 -37 -3 -38 -3 0 101 0 101 37 -3 36 -3 1 -95z m-459 0
c-4 -113 -15 -113 -15 -1 0 51 4 90 9 87 5 -3 8 -42 6 -86z m268 37 c16 -30
17 -36 2 -70 -8 -20 -18 -37 -21 -37 -3 0 -12 16 -20 36 -12 29 -13 41 -2 70
6 19 15 34 18 34 3 0 13 -15 23 -33z m96 -27 c-1 -61 -10 -75 -29 -41 -18 35
-5 101 20 101 5 0 9 -27 9 -60z m568 17 c16 -39 13 -70 -10 -101 -14 -19 -16
-17 -35 28 -20 45 -20 49 -5 82 20 42 31 40 50 -9z m940 16 c10 -30 -1 -93
-16 -93 -14 0 -23 56 -16 90 8 37 20 38 32 3z m71 -31 c-3 -29 -21 -34 -26 -7
-2 9 -1 29 3 43 6 24 8 25 16 9 6 -10 9 -30 7 -45z m239 1 c3 -26 1 -43 -7
-48 -6 -4 -13 -5 -16 -2 -9 9 -16 76 -10 93 10 26 27 4 33 -43z m-2009 -28
c-14 -31 -28 -16 -28 31 0 42 11 50 27 20 10 -20 11 -31 1 -51z m1082 8 c0
-35 -23 -47 -34 -17 -8 22 -8 69 1 78 12 12 33 -26 33 -61z m316 12 c6 -23
-11 -75 -24 -75 -10 0 -32 44 -32 65 0 7 5 26 11 42 10 27 11 28 25 8 8 -11
17 -29 20 -40z m-1058 8 c2 -20 -2 -32 -12 -36 -13 -5 -16 2 -16 34 0 48 23
50 28 2z m88 5 c19 -64 -12 -97 -36 -39 -9 22 -9 34 0 50 15 29 25 26 36 -11z
m574 -10 c0 -9 -4 -20 -10 -23 -6 -4 -10 9 -10 32 0 28 3 34 10 23 5 -8 10
-23 10 -32z m458 -25 c-3 -28 -3 -28 -16 -6 -10 17 -10 27 0 50 12 26 13 26
16 5 2 -12 2 -34 0 -49z m162 24 c0 -18 -4 -38 -9 -46 -12 -18 -25 40 -16 69
9 29 25 15 25 -23z m310 -2 c0 -19 -4 -37 -10 -40 -6 -4 -10 12 -10 40 0 28 4
44 10 40 6 -3 10 -21 10 -40z m-1276 19 c8 -20 -2 -54 -15 -54 -5 0 -9 16 -9
35 0 37 13 47 24 19z m646 -29 c0 -13 -4 -27 -10 -30 -6 -4 -10 8 -10 30 0 22
4 34 10 30 6 -3 10 -17 10 -30z m-160 0 c0 -14 -4 -25 -10 -25 -5 0 -10 11
-10 25 0 14 5 25 10 25 6 0 10 -11 10 -25z m-650 -15 c0 -16 -4 -30 -10 -30
-5 0 -10 14 -10 30 0 17 5 30 10 30 6 0 10 -13 10 -30z m340 10 c0 -11 -4 -20
-10 -20 -5 0 -10 9 -10 20 0 11 5 20 10 20 6 0 10 -9 10 -20z m-676 -81 c-5
-9 -54 -13 -54 -4 0 2 5 16 12 31 l12 26 18 -22 c10 -12 15 -26 12 -31z m226
32 c16 -32 12 -41 -20 -41 -16 0 -30 5 -30 11 0 16 20 49 30 49 5 0 14 -9 20
-19z m-342 -19 c3 -17 -2 -22 -17 -22 -22 0 -25 8 -15 35 9 22 28 14 32 -13z
m651 9 c12 -21 5 -31 -21 -31 -19 0 -22 8 -12 34 8 21 21 20 33 -3z m345 3
c10 -26 7 -34 -14 -34 -13 0 -20 7 -20 18 0 33 23 44 34 16z m623 -30 c-3 -4
-13 -4 -22 0 -13 5 -14 10 -4 28 l12 23 10 -23 c6 -12 7 -25 4 -28z m93 10 c0
-8 -9 -14 -20 -14 -19 0 -28 28 -13 43 9 9 33 -12 33 -29z m230 -6 c0 -4 -9
-8 -20 -8 -20 0 -28 29 -13 44 7 7 33 -21 33 -36z m-1173 17 c7 -20 -2 -29
-21 -22 -9 4 -13 13 -10 22 8 19 23 19 31 0z m531 -8 c2 -12 -3 -17 -17 -17
-12 0 -21 6 -21 13 0 31 32 34 38 4z m100 0 c2 -10 -3 -17 -12 -17 -10 0 -16
9 -16 21 0 24 23 21 28 -4z m-973 4 c7 -12 -12 -24 -25 -16 -11 7 -4 25 10 25
5 0 11 -4 15 -9z m648 -6 c1 -5 -6 -11 -15 -13 -11 -2 -18 3 -18 13 0 17 30
18 33 0z m927 0 c0 -8 -4 -15 -10 -15 -5 0 -10 7 -10 15 0 8 5 15 10 15 6 0
10 -7 10 -15z m-2872 -7 c7 -7 12 -22 12 -35 0 -19 -5 -23 -29 -23 -36 0 -48
26 -25 51 20 22 26 23 42 7z m3644 -23 c13 -29 10 -34 -26 -41 -31 -5 -43 14
-26 45 15 28 38 26 52 -4z m-608 -22 c3 -4 -9 -23 -28 -42 l-35 -36 -1201 5
-1200 5 -20 30 c-11 17 -20 33 -20 38 0 9 2494 10 2504 0z m-3036 -42 c9 -5
12 -27 10 -72 -3 -56 -5 -64 -23 -64 -17 0 -20 8 -23 59 -4 81 4 98 36 77z
m3626 -7 c12 -5 16 -21 16 -70 0 -62 -1 -64 -25 -64 -24 0 -25 2 -25 63 0 74
4 82 34 71z m4714 -57 c2 -10 -3 -24 -11 -30 -24 -20 -28 -67 -6 -80 11 -7 19
-18 19 -25 0 -10 -19 -12 -77 -10 l-78 3 -3 70 c-1 39 0 76 3 83 3 9 25 12 77
10 61 -3 73 -6 76 -21z m-11010 -52 c7 -35 15 -71 18 -80 14 -34 -15 -12 -40
33 -14 26 -32 54 -38 64 -14 20 4 48 31 48 14 0 20 -15 29 -65z m552 -20 c256
-42 472 -79 480 -81 11 -4 7 -12 -17 -33 -39 -33 -42 -45 -9 -37 27 7 42 -13
85 -114 13 -30 30 -66 38 -80 7 -14 22 -43 32 -65 10 -22 41 -88 69 -147 28
-58 74 -162 101 -230 27 -67 63 -153 80 -191 34 -76 57 -138 76 -212 8 -27 17
-58 20 -67 5 -13 2 -18 -9 -18 -9 0 -24 20 -37 50 l-21 49 -207 3 c-113 2
-211 2 -217 0 -6 -1 -24 -25 -40 -52 l-29 -50 -77 0 c-42 0 -79 -4 -82 -8 -4
-8 77 -144 130 -219 22 -31 -1 -31 -37 0 -26 22 -47 57 -136 227 -105 199
-339 641 -408 770 -40 74 -99 185 -131 245 -31 61 -84 159 -116 219 -32 60
-58 114 -58 119 0 5 12 7 28 4 15 -3 236 -40 492 -82z m5061 71 c3 -3 3 -23 1
-46 l-4 -40 -1177 2 -1176 3 -3 43 -3 42 1179 0 c648 0 1181 -2 1183 -4z
m-5541 -139 c0 -20 -25 1 -28 24 -2 23 -2 23 13 5 8 -11 15 -24 15 -29z m1150
31 c-1 -18 -48 -50 -61 -42 -7 4 -1 15 17 30 33 26 44 29 44 12z m1522 -33
c18 -8 42 -23 53 -32 26 -23 79 -92 74 -97 -2 -3 -44 -6 -94 -7 -73 -3 -95 0
-117 14 -24 17 -29 17 -57 3 -33 -18 -191 -23 -191 -7 0 5 15 29 33 52 67 88
195 120 299 74z m558 -86 c0 -100 -2 -110 -17 -107 -16 3 -18 18 -21 111 -3
102 -2 107 18 107 19 0 20 -6 20 -111z m98 69 c-3 -40 -5 -43 -33 -43 -28 0
-30 3 -33 43 l-3 42 36 0 36 0 -3 -42z m93 -63 c-1 -55 -6 -104 -11 -108 -4
-5 -16 -7 -26 -5 -17 3 -19 15 -22 111 l-3 108 32 -3 32 -3 -2 -100z m69 60
c0 -33 -4 -45 -14 -45 -22 0 -28 16 -20 55 10 53 34 46 34 -10z m161 -60 c-1
-55 -4 -101 -6 -103 -6 -7 -91 -11 -102 -4 -7 4 -15 49 -19 110 l-7 103 69 -3
69 -3 -4 -100z m91 75 c6 -39 -4 -53 -33 -48 -43 6 -39 78 5 78 19 0 25 -6 28
-30z m188 -74 c0 -75 -4 -106 -12 -109 -24 -8 -133 5 -140 17 -4 6 -8 53 -8
104 l0 92 80 0 80 0 0 -104z m88 67 c3 -31 1 -33 -27 -33 -29 0 -31 3 -31 36
0 33 2 35 28 32 22 -2 28 -8 30 -35z m242 -68 l0 -105 -99 0 -98 0 -7 38 c-3
20 -6 67 -6 105 l0 67 105 0 105 0 0 -105z m80 64 c0 -36 -2 -40 -22 -37 -19
2 -24 10 -26 41 -3 34 -1 37 22 37 24 0 26 -4 26 -41z m228 -66 l3 -101 -82
-4 c-45 -2 -88 1 -94 7 -8 6 -15 50 -19 108 l-6 98 98 -3 97 -3 3 -102z m94
72 c5 -42 3 -45 -33 -45 -22 0 -30 6 -35 25 -9 37 2 55 35 55 26 0 29 -4 33
-35z m228 -70 l0 -105 -80 0 c-44 0 -83 -1 -87 -2 -10 -4 -21 46 -29 133 l-7
79 102 0 101 0 0 -105z m94 73 c7 -37 -3 -51 -35 -46 -20 2 -25 10 -27 41 -3
35 -2 37 26 37 25 0 30 -5 36 -32z m146 -66 c3 -51 4 -97 2 -102 -2 -6 -25
-10 -52 -10 -55 0 -52 -7 -66 143 l-6 68 58 -3 59 -3 5 -93z m83 66 c6 -41 2
-48 -29 -48 -21 0 -24 4 -24 40 0 35 3 40 24 40 19 0 25 -6 29 -32z m145 -75
l3 -103 -49 0 -50 0 -6 58 c-4 31 -9 79 -12 105 l-6 48 58 -3 59 -3 3 -102z
m82 66 c0 -38 -1 -40 -27 -37 -47 5 -45 78 2 78 23 0 25 -4 25 -41z m80 -64
c0 -85 -3 -105 -14 -105 -22 0 -23 6 -31 113 l-7 97 26 0 26 0 0 -105z m778
83 c35 -9 61 -25 99 -64 75 -75 72 -84 -28 -84 -58 0 -89 5 -109 17 -27 15
-30 15 -54 0 -19 -13 -48 -17 -116 -17 -105 0 -108 5 -54 68 69 81 155 107
262 80z m-5123 -40 c0 -34 23 -75 46 -81 31 -8 35 -38 10 -59 -13 -10 -26 -18
-30 -18 -3 0 -25 32 -49 72 l-42 71 22 24 c26 28 43 25 43 -9z m220 -565 c182
-318 331 -583 333 -590 2 -8 -6 -13 -22 -13 -20 0 -29 9 -44 43 -10 23 -113
213 -227 422 -353 645 -385 704 -385 710 0 26 58 -71 345 -572z m-1344 509
c17 -28 26 -52 20 -52 -16 0 -83 88 -76 100 11 18 25 7 56 -48z m965 24 c9
-52 0 -66 -20 -28 -17 34 -16 62 3 62 6 0 13 -16 17 -34z m9784 -56 l0 -90
-55 0 c-51 0 -69 10 -45 25 6 3 10 25 10 48 0 33 6 48 32 74 51 53 58 46 58
-57z m115 0 l0 -85 -42 -3 -43 -3 0 84 c0 46 3 87 7 91 4 4 23 6 43 4 l35 -3
0 -85z m77 53 c14 -16 29 -42 33 -59 3 -18 15 -40 26 -50 31 -28 23 -34 -41
-34 l-60 0 0 85 c0 47 4 85 8 85 5 0 20 -12 34 -27z m-6968 -19 c3 -9 6 -41 6
-72 0 -31 9 -205 21 -386 11 -180 18 -335 15 -343 -4 -10 -20 -13 -58 -11
l-53 3 3 405 c2 223 6 408 8 412 9 14 52 8 58 -8z m327 -35 c4 -24 12 -118 18
-209 14 -195 29 -386 36 -452 l6 -48 -31 6 c-27 6 -31 3 -45 -29 -17 -41 -32
-54 -47 -39 -6 6 -7 152 -2 410 6 355 9 402 23 405 29 8 36 1 42 -44z m649
-64 c21 -181 67 -700 63 -707 -7 -13 -118 -9 -131 4 -9 9 -12 114 -12 409 l0
398 28 3 c15 2 30 1 34 -2 4 -3 12 -50 18 -105z m-1247 -293 c5 -216 6 -399 3
-407 -6 -16 -91 -22 -100 -7 -4 8 1 181 19 646 3 82 8 154 11 158 3 5 18 8 32
6 l27 -3 8 -393z m916 376 c5 -13 12 -57 15 -98 7 -75 34 -324 60 -560 8 -69
10 -129 6 -133 -4 -4 -34 -7 -66 -5 l-59 3 -12 305 c-6 168 -12 351 -12 408
l-1 102 30 0 c22 0 33 -6 39 -22z m555 0 c17 -82 86 -782 78 -790 -5 -5 -31
-8 -58 -6 l-49 3 -11 275 c-7 151 -15 335 -18 408 l-7 132 30 0 c24 0 32 -5
35 -22z m227 -15 c1 -21 3 -51 5 -68 3 -28 9 -99 35 -434 5 -73 14 -163 18
-200 5 -36 5 -70 1 -74 -4 -5 -29 -7 -56 -5 l-49 3 -6 95 c-6 82 -14 672 -10
708 0 6 14 12 31 12 28 0 30 -3 31 -37z m-2119 -263 c5 -556 6 -515 -21 -518
-13 -2 -27 0 -31 5 -10 10 -23 787 -13 796 3 4 19 7 35 7 l28 0 2 -290z m170
160 c21 -387 28 -543 28 -608 l0 -73 -42 3 -43 3 3 395 c2 217 6 398 9 403 3
4 12 7 21 5 14 -3 18 -23 24 -128z m-2412 61 c17 -34 18 -41 4 -51 -8 -7 -17
-11 -19 -8 -8 7 -18 98 -12 98 4 0 16 -18 27 -39z m1617 -63 c82 -50 155 -97
163 -105 12 -11 11 -13 -7 -13 -11 0 -83 38 -159 85 -77 47 -143 85 -148 85
-9 0 -162 -81 -260 -137 -32 -19 -68 -33 -80 -31 -15 2 7 19 79 60 55 31 136
76 180 101 44 25 81 46 82 46 2 1 69 -40 150 -91z m-2649 32 c-5 -17 -38 16
-38 38 0 14 3 13 21 -5 12 -11 20 -26 17 -33z m6352 -47 c85 -47 162 -91 170
-99 37 -35 -28 -9 -175 71 -86 47 -161 85 -168 85 -7 0 -74 -38 -150 -85 -127
-78 -167 -97 -167 -77 0 13 305 200 320 196 8 -3 85 -44 170 -91z m-3990 67
c0 -5 -27 -23 -60 -40 l-60 -30 0 40 0 40 60 0 c33 0 60 -4 60 -10z m398 -37
c2 -26 -1 -43 -8 -43 -15 0 -120 71 -120 82 0 5 28 8 63 6 l62 -3 3 -42z
m3292 30 c0 -9 -117 -83 -131 -83 -10 0 -13 73 -2 83 9 10 133 9 133 0z m388
-21 c7 -51 -4 -54 -67 -19 -34 17 -61 36 -61 40 0 4 28 7 63 5 56 -3 62 -5 65
-26z m-5208 -12 c6 -11 10 -26 8 -33 -5 -26 26 -84 53 -100 16 -9 29 -22 29
-29 -1 -12 -48 -54 -54 -46 -18 22 -106 183 -106 193 0 15 27 34 47 35 7 0 17
-9 23 -20z m1378 -55 c56 -33 102 -63 102 -67 0 -5 -104 -8 -231 -8 -136 0
-228 4 -225 9 4 5 43 28 88 51 44 23 95 51 112 61 17 11 36 18 42 17 5 -2 56
-30 112 -63z m563 -16 c4 -41 7 -195 8 -342 1 -237 -1 -268 -15 -274 -9 -3
-20 0 -25 8 -10 16 -12 672 -2 683 18 17 29 -7 34 -75z m178 72 c11 -7 13 -63
6 -342 -4 -184 -11 -338 -16 -343 -25 -27 -30 24 -36 343 -5 280 -4 334 8 342
17 11 21 11 38 0z m235 -108 c-18 -441 -25 -566 -30 -574 -8 -13 -44 -11 -49
4 -2 6 -9 125 -15 262 -6 138 -13 287 -17 333 l-6 82 61 0 61 0 -5 -107z m281
-225 c-4 -183 -8 -339 -10 -345 -5 -14 -110 -19 -118 -5 -3 4 -8 159 -12 345
l-8 337 77 0 77 0 -6 -332z m331 -5 c-4 -185 -9 -340 -12 -345 -7 -11 -131
-10 -138 1 -3 5 -13 121 -21 258 -8 136 -17 287 -20 336 l-6 87 102 0 102 0
-7 -337z m318 300 c3 -21 6 -101 7 -178 0 -77 4 -211 7 -298 7 -166 4 -183
-35 -175 -13 2 -21 19 -29 58 -7 30 -15 63 -19 73 -8 20 -35 23 -53 5 -9 -9
-13 -8 -17 3 -4 13 -45 490 -45 531 0 16 11 18 89 18 l88 0 7 -37z m318 -283
c1 -176 2 -330 2 -342 1 -21 -3 -23 -54 -23 l-54 0 -23 210 c-12 116 -27 260
-33 320 -6 61 -13 120 -15 133 -5 22 -4 22 85 22 l90 0 2 -320z m243 308 c10
-32 29 -660 21 -669 -6 -5 -20 -9 -32 -9 -25 0 -29 13 -38 115 -27 288 -47
497 -52 533 l-5 42 51 0 c32 0 52 -5 55 -12z m228 -325 c4 -212 3 -341 -3
-347 -6 -6 -11 -4 -15 5 -6 16 -75 620 -75 656 0 20 5 23 43 23 l44 0 6 -337z
m156 195 c-1 -158 -12 -141 -25 40 -6 91 -5 102 10 102 14 0 16 -17 15 -142z
m788 109 c32 -18 84 -46 115 -62 32 -17 58 -33 58 -37 0 -5 -104 -8 -232 -8
-167 0 -229 3 -221 11 18 18 197 128 210 128 6 1 37 -14 70 -32z m-6213 6 c3
-10 8 -36 11 -58 l6 -40 -25 45 c-14 25 -25 51 -26 58 0 19 28 14 34 -5z
m1070 -59 c53 -92 45 -95 -33 -12 -38 40 -42 49 -31 63 7 8 15 15 19 15 4 0
24 -30 45 -66z m9621 -54 c0 -114 -4 -120 -61 -106 -23 6 -24 9 -24 105 0 54
3 101 7 105 4 4 23 6 43 4 l35 -3 0 -105z m143 6 c3 -107 -1 -116 -50 -116
-56 0 -58 4 -58 109 0 54 3 101 7 105 4 4 28 6 53 4 l45 -3 3 -99z m97 94 c11
-18 15 -172 4 -191 -11 -21 -49 -25 -67 -7 -13 13 -17 189 -5 201 10 11 61 8
68 -3z m-10862 -45 c21 -44 21 -55 3 -55 -19 0 -23 7 -31 53 -9 47 6 48 28 2z
m1011 -117 c-10 -16 -22 -8 -38 26 -24 50 -19 55 14 17 16 -19 27 -38 24 -43z
m-954 6 c12 -19 19 -38 15 -42 -9 -10 -67 57 -60 68 11 18 23 11 45 -26z
m2700 -4 l0 -40 -385 0 -385 0 0 40 0 40 385 0 385 0 0 -40z m3728 -7 l-3 -38
-385 0 -385 0 -3 23 c-8 54 -23 52 393 52 l386 0 -3 -37z m-5232 -18 c9 -14
14 -31 11 -39 -3 -7 12 -35 34 -61 21 -26 39 -51 39 -56 0 -10 -49 -44 -54
-38 -10 12 -96 167 -96 174 0 11 31 45 41 45 5 0 16 -11 25 -25z m7782 13 c7
-7 12 -20 12 -30 0 -9 16 -34 36 -54 l37 -36 -6 -82 c-4 -66 -2 -84 10 -99 24
-25 28 -113 9 -176 -14 -47 -14 -56 -1 -81 22 -42 18 -87 -10 -148 -29 -62
-31 -78 -10 -86 11 -4 15 -21 15 -62 0 -48 -8 -73 -51 -162 -29 -58 -74 -134
-102 -171 l-50 -66 3 -70 c5 -111 2 -136 -24 -202 -46 -118 -173 -270 -263
-315 -63 -32 -76 -34 -93 -13 -12 14 -15 13 -31 -3 -14 -16 -30 -19 -86 -17
-37 1 -76 5 -85 9 -11 5 -18 4 -18 -3 0 -6 -9 -11 -20 -11 -11 0 -20 5 -20 10
0 6 -13 10 -30 10 -24 0 -33 7 -50 40 -24 48 -26 129 -5 191 9 23 22 71 30
106 12 53 25 76 74 135 102 120 112 155 97 318 l-7 75 50 80 c28 44 105 143
172 220 203 233 276 365 335 602 9 37 21 76 26 86 10 20 39 22 56 5z m-8984
-56 c32 -35 36 -45 26 -57 -7 -8 -16 -15 -21 -15 -9 0 -42 60 -54 99 -10 32 4
25 49 -27z m1006 -18 c7 -30 9 -58 7 -61 -9 -8 -58 97 -52 107 16 26 34 7 45
-46z m69 -31 c23 -43 28 -59 20 -70 -22 -25 -37 -13 -48 37 -11 53 -14 90 -7
90 3 0 18 -25 35 -57z m959 -281 c2 -282 0 -322 -13 -322 -13 0 -15 42 -15
326 0 256 3 325 13 322 9 -4 13 -80 15 -326z m67 3 c0 -297 -1 -320 -17 -323
-17 -3 -18 17 -18 323 0 306 1 326 18 323 16 -3 17 -26 17 -323z m405 0 c0
-315 -1 -325 -19 -325 -19 0 -20 10 -23 244 -3 229 -4 246 -24 272 -34 46 -66
65 -115 66 -57 1 -104 -23 -126 -65 -15 -27 -18 -67 -21 -274 -4 -230 -5 -243
-23 -243 -18 0 -19 14 -21 321 -2 176 -1 323 1 325 2 2 87 4 188 4 l183 0 0
-325z m70 0 c0 -318 0 -325 -20 -325 -20 0 -20 7 -20 318 0 175 3 322 7 325 3
4 12 7 20 7 11 0 13 -61 13 -325z m60 0 c0 -282 -2 -325 -15 -325 -13 0 -15
43 -15 325 0 282 2 325 15 325 13 0 15 -43 15 -325z m7945 316 c3 -6 -4 -15
-15 -21 -35 -19 -53 -55 -40 -80 10 -18 6 -28 -26 -71 -38 -49 -74 -65 -74
-31 0 9 7 42 15 72 11 44 23 63 62 97 48 43 67 51 78 34z m220 -16 c41 -25 68
-63 91 -124 13 -35 21 -67 18 -72 -3 -5 -20 -9 -38 -9 -28 0 -39 8 -70 47 -30
39 -35 52 -30 79 5 29 2 35 -35 62 -22 16 -37 32 -34 36 9 9 74 -4 98 -19z
m-5040 -311 c0 -277 -2 -319 -15 -319 -13 0 -15 42 -18 310 -1 170 0 316 3
323 3 8 11 12 18 9 9 -3 12 -76 12 -323z m65 0 c0 -305 -1 -325 -17 -322 -17
3 -18 27 -21 313 -1 170 0 315 3 322 2 7 11 13 20 13 13 0 15 -40 15 -326z
m408 4 c-3 -323 -3 -323 -25 -326 l-21 -3 -4 248 c-3 217 -5 252 -21 276 -28
43 -63 61 -120 59 -58 -1 -91 -21 -122 -73 -18 -31 -20 -55 -23 -272 -3 -216
-5 -238 -20 -235 -15 3 -17 33 -20 313 -1 170 0 315 3 322 3 10 50 13 190 13
l185 0 -2 -322z m64 305 c2 -9 2 -155 0 -325 -2 -263 -5 -308 -17 -308 -13 0
-15 46 -15 325 0 275 2 325 14 325 8 0 16 -7 18 -17z m58 -308 c0 -282 -2
-325 -15 -325 -13 0 -15 42 -15 318 0 175 3 322 7 325 3 4 10 7 15 7 4 0 8
-146 8 -325z m4130 319 c0 -3 -13 -18 -29 -33 -26 -25 -36 -47 -55 -133 -4
-16 -13 -28 -21 -28 -18 0 -18 2 -5 71 9 45 18 60 53 91 40 36 57 45 57 32z
m-2568 -47 c60 -27 118 -72 118 -93 0 -10 -10 -8 -37 9 -32 19 -53 22 -138 22
-91 0 -104 -2 -147 -27 -53 -32 -58 -33 -58 -15 0 28 96 96 165 116 42 13 39
13 97 -12z m2808 -3 c25 -21 30 -32 25 -51 -4 -18 2 -34 25 -63 16 -21 30 -41
30 -44 0 -3 -70 -6 -155 -6 -85 0 -155 3 -155 6 0 3 14 23 31 44 26 33 31 45
25 72 -9 45 21 67 91 68 41 0 58 -5 83 -26z m222 -49 c27 -44 28 -75 3 -75
-11 0 -55 97 -55 121 0 19 27 -4 52 -46z m-10878 23 c3 -13 7 -44 10 -70 3
-27 9 -60 12 -75 6 -25 5 -26 -9 -13 -8 8 -27 43 -42 78 -27 60 -27 63 -10 82
23 26 34 25 39 -2z m2307 -14 c53 -27 59 -58 59 -314 l0 -230 -115 0 -115 0 0
229 c0 239 5 273 43 300 48 35 83 39 128 15z m3719 -9 c59 -30 60 -37 60 -303
l0 -243 -112 3 -113 3 0 230 c0 127 3 243 8 258 9 33 60 67 100 67 15 0 41 -7
57 -15z m-5950 -76 c24 -51 24 -51 5 -66 -19 -13 -21 -11 -32 34 -23 97 -10
112 27 32z m1015 -15 c20 -36 35 -67 33 -69 -2 -2 -24 12 -48 32 -25 19 -54
42 -65 50 -20 14 -20 14 4 34 13 10 27 19 31 19 5 0 25 -30 45 -66z m162 34
c4 -13 8 -27 8 -33 2 -18 33 -70 54 -89 12 -11 21 -24 21 -31 0 -12 -47 -42
-54 -34 -11 13 -96 170 -96 178 0 11 29 30 47 31 6 0 15 -10 20 -22z m6647 8
c48 -20 66 -51 66 -114 0 -60 -15 -95 -57 -133 -42 -40 -66 -49 -125 -49 -102
0 -179 78 -180 181 0 64 24 99 78 116 55 16 178 16 218 -1z m2341 -38 c32 -14
32 -28 0 -28 -14 0 -25 2 -25 4 0 2 -3 11 -6 20 -7 19 -3 20 31 4z m715 8 c0
-20 -16 -36 -36 -36 -28 0 -31 15 -6 29 17 11 42 14 42 7z m-9876 -89 l48 -42
-36 -18 -36 -17 -25 56 c-14 31 -25 58 -25 60 0 14 32 -3 74 -39z m9261 13 c4
-6 4 -24 0 -40 -6 -28 -10 -30 -51 -30 -39 0 -46 3 -54 26 -19 48 -14 54 44
54 30 0 58 -5 61 -10z m460 -10 c3 -11 3 -29 0 -40 -6 -19 -15 -20 -215 -20
-115 0 -211 3 -213 8 -3 4 -2 22 0 40 l5 32 208 0 c200 0 209 -1 215 -20z
m130 -12 c-10 -47 -12 -48 -54 -48 -36 0 -39 2 -44 33 -2 17 -3 35 0 40 2 4
27 7 54 7 l51 0 -7 -32z m-10815 -25 c0 -21 3 -68 7 -105 3 -38 2 -68 -3 -68
-5 0 -24 38 -43 85 l-34 84 24 20 c36 31 49 26 49 -16z m4090 -22 c0 -16 14
-72 30 -126 35 -114 39 -160 13 -152 -112 32 -112 32 -162 14 -65 -23 -71 -22
-71 12 0 36 44 179 63 205 13 18 15 18 37 -12 13 -18 27 -32 31 -32 3 0 10 23
13 52 8 60 12 68 32 68 9 0 14 -10 14 -29z m-4010 -78 c19 -37 36 -70 38 -74
5 -12 -59 -42 -68 -32 -10 11 -22 173 -13 173 5 0 24 -30 43 -67z m950 -5 c0
-35 3 -81 6 -103 9 -57 -11 -35 -47 52 -35 81 -35 87 -6 101 42 20 47 16 47
-50z m226 37 c8 -13 13 -32 10 -42 -7 -23 29 -84 55 -90 27 -7 24 -31 -6 -45
-14 -6 -27 -9 -29 -7 -2 2 -25 41 -51 87 -46 80 -47 84 -30 102 23 26 31 25
51 -5z m8964 -155 l0 -170 -45 0 -45 0 0 170 0 170 45 0 45 0 0 -170z m190
161 c0 -14 -44 -39 -76 -43 l-29 -3 -5 -140 c-5 -132 -6 -140 -25 -140 -19 0
-20 8 -23 155 -1 85 0 160 2 167 6 15 156 19 156 4z m121 -26 c13 -19 39 -42
57 -51 l33 -15 -3 -117 -3 -117 -32 -3 -33 -3 0 94 c0 94 0 96 -31 121 -38 32
-50 32 -86 2 -26 -23 -28 -31 -33 -118 l-5 -93 -32 -3 -33 -3 0 130 c0 129 0
131 23 131 12 0 42 18 67 40 56 49 80 50 111 5z m147 -132 c-2 -122 -6 -167
-15 -171 -10 -3 -13 26 -13 121 0 101 -3 129 -16 141 -8 9 -20 16 -27 16 -13
0 -57 40 -57 52 0 4 29 8 65 8 l65 0 -2 -167z m120 0 l-3 -168 -42 -3 -43 -3
0 170 0 171 45 0 45 0 -2 -167z m-9674 61 c25 -48 46 -89 46 -93 0 -3 -21 -15
-46 -25 -39 -16 -47 -17 -55 -5 -12 19 -12 222 0 214 5 -3 30 -44 55 -91z
m2776 11 c0 -7 -5 -17 -11 -20 -12 -8 -1177 -7 -1190 0 -5 4 -9 13 -9 20 0 18
108 21 738 17 400 -2 472 -5 472 -17z m1380 1 c0 -8 -5 -18 -11 -22 -6 -3
-259 -6 -562 -6 -556 1 -566 2 -567 35 0 4 257 7 570 7 490 0 570 -2 570 -14z
m5229 -50 c8 -9 11 -46 9 -103 l-3 -88 -42 -3 -43 -3 0 86 c0 48 5 95 10 106
12 22 52 25 69 5z m-2289 -37 c-7 -13 -37 -49 -66 -80 -64 -68 -75 -108 -46
-166 11 -22 28 -45 36 -52 20 -16 20 -31 2 -56 -13 -18 -15 -15 -40 34 -15 29
-47 72 -71 96 l-43 44 19 37 c24 49 56 82 99 104 19 10 51 32 70 48 38 33 59
28 40 -9z m-4348 -14 c-5 -52 -52 -95 -141 -130 l-67 -25 -469 2 -470 3 -3 84
c-2 46 -1 90 2 98 5 11 107 13 578 11 l573 -3 -3 -40z m1356 37 c9 -6 12 -33
10 -98 l-3 -89 -410 -3 -410 -3 -102 37 c-56 19 -108 43 -116 52 -16 19 -31
95 -20 105 9 10 1036 8 1051 -1z m-5048 -77 c22 -38 39 -76 40 -83 0 -7 -36
15 -80 49 -44 34 -80 65 -80 70 0 11 52 39 68 36 8 -1 31 -33 52 -72z m1202
-7 c9 -18 19 -50 23 -70 5 -35 4 -38 -17 -37 -18 0 -29 13 -51 57 -26 53 -27
57 -11 69 27 20 38 16 56 -19z m-163 -42 c17 -29 31 -56 31 -60 0 -3 -11 -6
-25 -6 -26 0 -141 68 -131 78 7 6 78 40 88 41 3 1 20 -23 37 -53z m2961 -15
c143 -53 171 -62 345 -122 151 -51 651 -226 1055 -369 184 -65 382 -135 440
-155 147 -50 142 -43 95 -112 l-40 -58 -1785 -3 c-982 -2 -1872 0 -1979 4
l-194 6 -40 38 c-22 21 -37 45 -35 52 3 7 32 23 64 35 33 12 212 81 399 153
187 73 477 185 645 250 391 151 481 186 755 294 50 19 101 35 115 36 14 0 86
-22 160 -49z m3840 45 c0 -2 -11 -24 -25 -48 -25 -46 -58 -68 -99 -68 -13 0
-30 -7 -37 -16 -12 -15 -10 -16 16 -11 107 20 101 21 149 -28 25 -25 57 -70
71 -99 29 -58 55 -169 55 -229 0 -51 -39 -124 -104 -194 -55 -60 -66 -87 -119
-299 -20 -82 15 -183 70 -205 16 -6 35 -14 43 -19 14 -6 112 -5 277 3 38 2 69
9 80 19 10 9 28 19 40 22 11 4 53 40 92 81 l70 74 78 -48 c43 -26 109 -62 147
-80 59 -28 67 -35 62 -54 -8 -30 20 -57 60 -57 20 0 50 -11 76 -29 24 -16 90
-57 148 -91 87 -51 113 -72 151 -123 92 -124 199 -349 201 -421 1 -49 -36
-124 -66 -137 -37 -15 -174 -39 -226 -39 -56 0 -55 -1 -65 75 -6 47 -11 54
-93 130 -48 44 -109 102 -135 128 -51 51 -75 56 -40 9 11 -15 64 -67 119 -116
103 -92 127 -127 122 -180 l-3 -31 -317 -3 -316 -2 -22 27 c-12 15 -19 35 -17
45 3 11 0 18 -9 18 -18 0 -18 -41 1 -66 22 -29 18 -37 -17 -30 -85 17 -76 83
17 128 38 19 287 43 354 34 124 -16 120 54 -8 119 -53 27 -121 95 -148 149
-27 53 -40 141 -29 198 12 67 97 104 269 115 96 6 132 21 60 25 -135 7 -264
-23 -320 -75 -50 -45 -51 -168 -2 -272 12 -25 20 -47 18 -49 -7 -7 -190 13
-272 29 -128 26 -300 92 -369 142 -57 42 -60 46 -53 76 9 37 9 36 -1 145 -4
45 -10 85 -15 87 -15 10 -20 -58 -9 -125 l12 -69 -35 -63 c-18 -35 -55 -100
-80 -145 -26 -45 -74 -136 -107 -202 -33 -66 -67 -126 -74 -134 -8 -7 -23 -32
-35 -56 -25 -49 -43 -58 -83 -43 -24 9 -30 8 -39 -9 -9 -17 -19 -19 -72 -17
-67 3 -69 6 -52 68 l7 25 -21 -24 c-12 -13 -21 -29 -21 -37 0 -19 -16 -18 -24
1 -11 29 12 62 53 78 139 56 143 61 196 224 107 327 117 386 82 493 -21 65
-23 85 -16 150 4 45 18 97 33 131 14 30 30 78 35 106 6 28 19 77 29 109 11 33
26 84 33 114 14 61 40 97 73 102 11 2 27 15 34 31 7 15 18 27 23 27 6 0 30 17
55 37 30 26 48 50 56 78 20 71 19 145 -3 145 -5 0 -9 -10 -9 -22 0 -13 -2 -39
-4 -58 -11 -92 -18 -110 -40 -110 -8 0 -21 -11 -30 -25 -10 -16 -26 -25 -41
-25 -17 0 -25 -6 -25 -18 0 -23 -19 -42 -42 -42 -10 0 -23 -9 -30 -20 -7 -11
-18 -20 -25 -20 -15 0 -17 36 -3 45 6 3 10 19 10 36 0 35 -15 37 -62 10 -24
-14 -39 -17 -55 -10 -37 14 -29 45 17 63 22 9 40 18 40 20 0 2 3 11 6 19 7 18
-21 47 -46 47 -10 0 -32 -11 -49 -26 l-30 -25 -31 42 c-16 23 -30 45 -30 49 0
20 145 115 175 115 30 0 33 42 3 47 -18 3 -1 15 72 53 102 53 260 115 260 101z
m-7874 -57 c35 -28 64 -55 64 -60 0 -10 -80 -53 -87 -46 -12 13 -60 157 -51
157 6 0 39 -23 74 -51z m810 17 c8 -11 14 -28 14 -38 0 -17 -15 -18 -225 -18
-173 0 -225 3 -225 13 1 15 31 53 48 58 7 2 94 4 193 4 167 0 182 -1 195 -19z
m6573 -15 c12 -16 21 -34 21 -40 0 -8 -69 -11 -225 -11 -209 0 -225 1 -225 18
0 10 7 28 16 40 15 21 20 22 204 22 l189 0 20 -29z m-6412 -39 c-29 -6 -47 6
-47 28 0 21 0 21 32 -2 27 -19 29 -23 15 -26z m1372 25 c6 -8 8 -17 4 -20 -3
-4 -168 -7 -365 -7 -292 0 -358 2 -358 13 0 8 3 17 7 20 3 4 163 7 353 7 279
0 350 -3 359 -13z m3731 -12 c0 -13 -47 -15 -360 -15 -313 0 -360 2 -360 15 0
13 47 15 360 15 313 0 360 -2 360 -15z m3998 -77 c-3 -43 -3 -43 -43 -43 -40
0 -40 0 -43 43 l-3 42 46 0 46 0 -3 -42z m460 0 l-3 -43 -210 0 -210 0 -3 28
c-7 58 -11 57 218 57 l211 0 -3 -42z m120 0 c-3 -36 -7 -44 -27 -46 -12 -2
-33 -1 -45 2 -19 5 -21 11 -18 46 l4 40 45 0 44 0 -3 -42z m-10496 -50 c54
-105 51 -98 41 -98 -18 0 -183 103 -183 114 0 8 78 60 97 65 2 1 22 -36 45
-81z m1533 37 c0 -37 -2 -40 -30 -43 -16 -2 -36 -8 -42 -14 -15 -12 -18 -108
-3 -108 6 0 10 -4 10 -10 0 -7 -218 -10 -634 -10 l-634 0 -66 99 c-36 55 -69
107 -72 115 -6 15 61 16 732 14 l739 -3 0 -40z m575 -10 c5 -48 6 -50 40 -55
31 -4 35 -9 38 -37 3 -27 -1 -33 -20 -38 -13 -3 -171 -4 -353 -3 l-330 3 0 30
c0 27 4 31 35 35 28 4 36 10 38 30 1 14 5 40 8 58 l5 32 267 -2 267 -3 5 -50z
m1140 46 c0 -22 -88 -26 -582 -23 -460 2 -528 4 -528 17 0 13 70 15 555 15
323 0 555 -4 555 -9z m2090 -4 c0 -36 -14 -37 -504 -37 -413 0 -488 2 -538 16
-32 9 -58 21 -58 25 0 5 246 9 550 9 445 0 550 -2 550 -13z m560 -31 c0 -59
15 -84 52 -88 29 -3 33 -6 33 -33 l0 -30 -350 0 -350 0 0 35 c0 32 3 35 35 40
33 5 35 8 38 45 1 22 5 46 7 53 3 9 66 12 270 12 l265 0 0 -34z m1440 7 c0
-22 -9 -34 -43 -55 -23 -15 -57 -41 -75 -59 -27 -26 -32 -37 -27 -61 l7 -28
-601 0 c-369 0 -601 4 -601 9 0 6 5 13 10 16 14 9 12 91 -2 103 -7 6 -26 12
-43 14 -25 2 -31 8 -33 31 -7 61 -56 57 708 57 l700 0 0 -27z m-4245 -32 c-16
-15 -894 -353 -903 -347 -5 3 -8 45 -7 93 3 108 2 103 20 103 12 0 15 13 15
60 0 63 -13 80 -59 80 -12 0 -21 5 -21 10 0 7 167 10 482 10 298 0 478 -4 473
-9z m2225 -13 c0 -5 -10 -8 -23 -8 -36 0 -47 -19 -47 -82 0 -45 3 -58 15 -58
12 0 15 -15 15 -76 0 -69 -2 -75 -17 -69 -10 4 -184 65 -388 137 -438 153
-426 149 -421 157 6 9 866 8 866 -1z m5222 -53 c-2 -16 -7 -34 -11 -38 -7 -7
-185 -9 -691 -7 -25 0 -60 41 -60 69 0 8 108 10 383 9 l382 -3 -3 -30z
m-10601 -22 c43 -26 79 -52 79 -58 0 -13 -98 -77 -104 -67 -6 10 -66 161 -66
167 0 10 14 4 91 -42z m9984 -73 c0 -11 -12 -15 -50 -15 -40 0 -50 4 -53 18
-3 16 3 18 50 15 39 -2 53 -7 53 -18z m467 -37 c-2 -29 1 -54 7 -58 7 -4 11
-77 11 -211 l0 -204 -30 0 -30 0 -2 188 -3 187 -35 3 c-19 2 -49 9 -67 17 -44
21 -100 19 -132 -5 -20 -14 -38 -18 -62 -14 -24 4 -39 1 -47 -8 -8 -10 -12
-73 -14 -189 l-3 -174 -30 0 -30 0 -3 193 c-2 184 -1 194 17 199 14 3 20 16
23 44 2 22 0 46 -5 54 -18 32 3 35 221 33 l217 -3 -3 -52z m126 35 c3 -15 -4
-18 -37 -18 -40 0 -58 11 -46 31 11 17 79 7 83 -13z m-10402 -33 c6 -24 18
-41 32 -46 27 -10 34 -37 30 -124 l-3 -70 -77 -3 -78 -3 0 35 c0 25 6 39 22
51 20 14 23 25 25 100 1 46 4 89 8 95 12 20 30 4 41 -35z m2038 29 c12 -31 7
-191 -6 -201 -7 -5 -110 -47 -228 -92 -118 -46 -219 -87 -224 -91 -14 -14 94
-130 126 -137 19 -4 28 -12 28 -24 0 -19 -9 -19 -167 -17 l-168 3 -2 275 c-1
151 0 281 2 288 3 9 76 12 319 12 277 0 315 -2 320 -16z m3798 -1 c2 -5 2
-135 0 -290 l-3 -283 -79 0 c-65 0 -80 3 -80 15 0 21 31 80 74 140 20 27 32
52 28 56 -4 4 -27 14 -52 22 -59 20 -490 173 -512 182 -15 6 -18 20 -18 79 0
40 3 76 7 79 9 10 631 9 635 0z m-5915 -73 c-1 -33 -5 -60 -9 -60 -5 0 -24 15
-44 33 l-36 33 38 26 c22 15 42 27 46 27 3 1 5 -26 5 -59z m1443 35 c0 -13
-80 -15 -660 -15 -580 0 -660 2 -660 15 0 13 80 15 660 15 580 0 660 -2 660
-15z m5890 5 c0 -16 -64 -41 -69 -28 -5 14 27 38 51 38 10 0 18 -5 18 -10z
m-130 -10 c0 -7 -217 -10 -631 -10 -417 0 -628 3 -624 10 4 6 225 10 631 10
409 0 624 -3 624 -10z m2700 -15 c0 -12 -14 -15 -65 -15 -51 0 -65 3 -65 15 0
12 14 15 65 15 51 0 65 -3 65 -15z m580 0 c0 -11 -12 -15 -50 -15 -38 0 -50 4
-50 15 0 11 12 15 50 15 38 0 50 -4 50 -15z m-9037 -29 c8 -20 9 -360 1 -379
-6 -16 -52 -17 -564 -17 l-557 0 -7 38 c-3 21 -1 67 5 102 11 67 6 105 -16
130 -7 8 -15 31 -19 52 -9 51 -57 66 -91 28 -29 -32 -37 -16 -26 53 0 4 286 7
635 7 527 0 635 -2 639 -14z m5777 -38 l0 -41 -23 21 c-44 42 -97 21 -97 -38
0 -11 -10 -34 -22 -50 -20 -28 -21 -35 -11 -107 5 -43 8 -95 5 -116 l-4 -37
-562 2 -561 3 -3 190 c-1 104 0 195 2 202 4 10 134 13 641 13 l635 0 0 -42z
m3253 18 c7 -8 13 -25 11 -38 -1 -12 -3 -98 -3 -190 l-1 -168 -40 0 -40 0 0
198 c0 109 3 202 7 205 11 12 51 8 66 -7z m-10503 -61 c0 -6 -4 -15 -9 -20 -5
-6 -11 -26 -13 -45 -3 -33 -5 -30 -26 36 -29 94 -28 100 13 67 19 -15 35 -33
35 -38z m9885 -135 l0 -195 -37 -3 -38 -3 0 194 c0 106 3 197 7 201 4 4 21 6
38 4 l30 -3 0 -195z m343 168 c7 -7 12 -27 12 -45 0 -33 0 -33 -25 -17 -23 15
-29 15 -70 2 -25 -9 -45 -13 -46 -9 0 3 -2 15 -4 26 -6 33 23 55 75 55 25 0
51 -5 58 -12z m-9937 -51 c3 -20 14 -46 24 -57 17 -19 17 -27 7 -98 -7 -43 -9
-92 -6 -110 l7 -32 -52 0 c-51 0 -51 0 -51 31 0 18 5 48 11 68 7 25 8 61 1
116 -8 65 -7 84 5 103 21 34 47 24 54 -21z m7139 34 c0 -5 -7 -14 -15 -21 -20
-16 -19 -50 1 -65 12 -8 15 -20 10 -38 -6 -26 -9 -27 -76 -27 l-70 0 0 76 c0
69 2 75 18 69 35 -16 68 -16 87 -1 22 17 45 21 45 7z m2887 -62 c1 -35 -1
-115 -4 -177 -6 -107 -7 -113 -27 -110 -20 3 -21 8 -21 167 0 127 3 167 13
178 26 25 37 8 39 -58z m-3109 49 c13 -13 15 -121 3 -153 -5 -12 -3 -39 5 -65
8 -25 14 -60 14 -77 0 -33 0 -33 -51 -33 l-51 0 3 38 c2 20 -1 70 -5 109 -7
64 -6 76 13 106 12 19 21 43 21 54 0 33 25 44 48 21z m2846 6 c14 -5 16 -30
16 -176 l0 -169 -32 3 -33 3 -3 173 c-2 165 -2 172 17 172 11 0 26 -3 35 -6z
m-10230 -85 c20 -88 20 -108 0 -134 -14 -19 -16 -19 -28 -3 -11 15 -13 79 -6
201 0 4 4 7 9 7 5 0 16 -32 25 -71z m10394 15 c21 -14 22 -22 22 -145 l0 -130
-67 3 -68 3 -3 105 c-2 58 0 115 3 127 12 51 68 69 113 37z m352 -48 c35 -107
74 -142 139 -124 44 13 68 -10 77 -73 6 -42 3 -49 -26 -82 -32 -37 -33 -37
-111 -37 l-79 0 0 44 c0 30 -5 46 -15 50 -12 4 -15 30 -15 146 0 77 2 140 4
140 2 0 14 -29 26 -64z m-780 -105 c0 -59 -4 -111 -9 -116 -5 -6 -11 -28 -13
-50 l-3 -40 -80 -3 c-102 -4 -120 1 -135 37 -10 25 -9 36 8 73 34 74 42 80 81
66 33 -13 34 -12 72 31 21 24 44 61 50 82 19 62 29 35 29 -80z m-9625 56 c3
-12 5 -52 3 -87 -3 -61 -5 -65 -28 -69 -35 -4 -40 -16 -40 -93 l0 -68 -220 0
c-182 0 -220 2 -213 13 11 19 192 253 227 294 l28 33 119 0 c115 0 119 -1 124
-23z m47 -22 c-12 -22 -27 -2 -18 22 5 12 10 13 17 6 7 -7 8 -17 1 -28z m7038
3 c-1 -26 -3 -30 -10 -16 -6 9 -7 23 -4 32 9 25 14 19 14 -16z m160 6 c0 -4
-12 -42 -26 -86 l-26 -79 -37 3 -36 3 -3 83 -3 82 66 0 c36 0 65 -3 65 -6z
m-7085 -239 l0 -60 -97 -3 -98 -3 0 59 c0 32 3 62 7 66 4 4 48 5 98 4 l90 -3
0 -60z m1145 50 c20 -24 2 -35 -60 -35 -66 0 -82 -12 -51 -41 12 -11 21 -24
21 -29 0 -6 -190 -10 -510 -10 l-510 0 0 58 c0 32 3 62 7 65 3 4 250 7 548 7
463 0 544 -2 555 -15z m4268 -10 c9 -3 12 -19 10 -47 l-3 -43 -1940 0 -1940 0
-1 35 c0 19 3 42 7 50 6 13 229 15 1931 12 1057 -1 1929 -4 1936 -7z m1347
-50 l0 -60 -507 -3 c-539 -2 -538 -2 -488 43 29 26 16 35 -50 35 -60 0 -76 9
-66 36 5 12 81 14 558 12 l553 -3 0 -60z m263 44 c1 -8 -8 -34 -20 -59 l-23
-45 -90 0 -90 0 -3 49 c-5 79 -7 78 115 73 84 -3 109 -7 111 -18z m3192 -19
l0 -30 -370 0 c-320 0 -371 2 -376 15 -4 8 -4 22 0 30 5 13 56 15 376 15 l370
0 0 -30z m-8700 -65 l0 -35 55 0 c59 0 79 -16 55 -44 -9 -12 -54 -15 -224 -16
-117 0 -220 2 -229 6 -16 6 -97 104 -97 117 0 4 99 7 220 7 l220 0 0 -35z
m4210 19 c0 -4 -21 -31 -46 -60 l-46 -54 -159 0 -160 0 3 28 c3 26 6 27 68 32
48 4 65 9 66 20 1 8 2 21 3 28 1 9 35 12 136 12 74 0 135 -3 135 -6z m4785
-34 c0 -13 -81 -15 -670 -15 -631 0 -670 1 -673 18 -3 16 32 17 670 15 590 -3
673 -5 673 -18z m-9390 -67 c28 -37 35 -55 33 -83 l-3 -35 -680 -2 c-374 -2
-685 1 -691 5 -15 10 -94 129 -94 141 0 8 217 12 688 14 378 1 692 3 699 5 7
1 28 -19 48 -45z m4163 15 c3 -22 -2 -28 -20 -33 -13 -3 -826 -4 -1808 -3
-1713 3 -1785 4 -1788 21 -10 50 -126 47 1810 45 l1803 -3 3 -27z m-5615 -24
c17 -25 32 -50 32 -56 0 -7 -51 -10 -139 -11 l-140 -1 -38 50 c-21 27 -38 52
-38 57 0 4 65 7 145 7 l145 0 33 -46z m7289 -36 c-2 -40 -5 -74 -7 -76 -2 -2
-291 -3 -642 -3 -351 1 -644 1 -650 1 -8 0 -13 14 -13 38 0 29 8 48 34 78 l33
39 624 -3 624 -2 -3 -72z m3522 63 c17 -27 -37 -30 -624 -30 -586 -1 -670 3
-670 30 0 12 1287 12 1294 0z m-2206 -37 c44 -26 86 -92 75 -120 -5 -14 -31
-22 -56 -16 -15 3 -17 10 -12 29 7 29 -28 75 -50 67 -17 -7 -85 35 -85 52 0
25 78 17 128 -12z m-6641 -29 c3 -9 3 -18 0 -21 -6 -6 -439 -5 -445 1 -3 2 -2
11 1 20 9 23 435 23 444 0z m7671 -262 l2 -273 -45 0 -45 0 0 276 0 275 43 -3
42 -3 3 -272z m150 8 c1 -152 -2 -268 -7 -275 -5 -6 -31 -10 -60 -8 l-51 4 0
267 c0 147 3 271 7 275 4 4 30 6 58 4 l50 -3 3 -264z m110 34 c2 -126 0 -249
-3 -273 -6 -43 -7 -43 -43 -40 l-37 3 -3 250 c-1 138 0 260 3 273 5 20 11 23
43 20 l37 -3 3 -230z m250 226 c-1 -5 -41 -38 -87 -73 l-84 -64 -1 -199 -1
-200 -25 0 -25 0 -3 250 c-1 138 0 260 3 273 5 21 10 22 116 22 64 0 109 -4
107 -9z m277 -275 c0 -215 -3 -280 -12 -283 -10 -4 -13 42 -13 204 l-1 208
-79 68 c-44 37 -80 72 -80 78 0 6 36 9 93 7 l92 -3 0 -279z m120 4 l0 -275
-42 -3 -43 -3 0 281 0 281 43 -3 42 -3 0 -275z m141 15 c1 -143 0 -268 -3
-277 -3 -14 -15 -18 -54 -18 l-49 0 0 281 0 280 53 -3 52 -3 1 -260z m116 176
c1 -50 1 -176 0 -281 l-4 -191 -41 3 -42 3 -3 245 c-2 135 0 260 3 278 5 30 9
32 44 32 l39 0 4 -89z m-5184 51 c-2 -12 -17 -19 -48 -24 -73 -11 -3493 -8
-3534 3 -31 9 -45 26 -32 40 2 2 817 3 1811 1 1712 -2 1806 -3 1803 -20z m332
8 c0 -19 -7 -20 -150 -20 -118 0 -150 3 -150 13 0 8 3 17 7 20 3 4 71 7 150 7
136 0 143 -1 143 -20z m4314 -47 c36 -31 66 -60 66 -65 0 -4 -66 -8 -146 -8
-98 0 -145 3 -142 11 4 11 138 117 150 118 3 1 36 -25 72 -56z m-10184 -22 c3
-13 4 -41 2 -62 l-4 -39 -159 0 -159 0 0 58 c0 32 3 62 7 66 4 3 74 5 157 4
149 -3 150 -3 156 -27z m2422 4 c3 -3 -10 -44 -30 -90 l-35 -85 -63 0 -63 0
-15 53 c-25 87 -28 105 -21 116 6 11 217 16 227 6z m423 -5 c8 -13 -44 -162
-59 -172 -6 -4 -32 -8 -58 -8 -35 0 -50 5 -56 18 -17 33 -43 144 -38 158 4 11
28 14 105 14 59 0 102 -4 106 -10z m415 -2 c0 -26 -23 -144 -32 -160 -6 -13
-21 -18 -51 -18 -23 0 -47 4 -53 8 -15 9 -66 160 -59 173 9 14 195 12 195 -3z
m410 -8 c0 -11 -5 -51 -12 -90 -14 -79 -20 -84 -98 -78 l-43 3 -23 80 c-13 44
-24 86 -24 93 0 9 27 12 100 12 93 0 100 -1 100 -20z m208 -25 c29 -86 40
-177 44 -350 l3 -180 -115 0 -115 0 -7 85 c-16 196 -9 403 17 478 3 9 26 12
82 10 l78 -3 13 -40z m226 -2 c-4 -27 -12 -68 -18 -93 l-11 -45 -56 -3 c-37
-2 -59 2 -66 10 -11 13 -53 146 -53 167 0 7 33 11 106 11 l105 0 -7 -47z m207
-63 c26 -104 27 -111 38 -690 6 -322 12 -652 13 -735 l2 -150 -82 -3 -82 -3 0
38 c0 21 -5 112 -10 203 -5 91 -21 372 -35 625 -14 253 -29 505 -34 560 -6 75
-5 121 7 183 l14 83 72 -3 71 -3 26 -105z m229 83 c-1 -16 -6 -57 -13 -93
l-12 -65 -69 -3 c-38 -2 -73 1 -78 6 -9 9 -48 143 -48 167 0 12 18 15 110 15
l110 0 0 -27z m184 -87 c45 -143 49 -228 12 -263 -13 -13 -32 -40 -42 -60 -18
-35 -19 -73 -22 -532 -2 -346 1 -498 8 -505 6 -6 28 -11 48 -11 l37 0 3 -102
3 -103 -70 0 -69 0 -6 63 c-6 63 -48 783 -66 1117 -5 102 -12 208 -15 235 -5
45 19 246 31 267 3 4 29 8 59 8 l53 0 36 -114z m201 37 c-10 -111 -13 -115
-88 -111 l-61 3 -27 85 c-15 47 -28 88 -28 93 -1 4 47 7 105 7 l106 0 -7 -77z
m405 70 c-1 -23 -41 -158 -51 -169 -12 -15 -96 -19 -116 -6 -11 7 -43 132 -43
168 0 11 20 14 105 14 58 0 105 -3 105 -7z m-5072 -52 c2 -13 1 -39 -3 -58
l-6 -34 -107 3 -107 3 -3 44 c-5 72 -6 72 115 69 105 -3 108 -4 111 -27z
m1147 9 c0 -13 -69 -15 -560 -15 -526 0 -560 1 -563 18 -3 16 27 17 560 15
493 -3 563 -5 563 -18z m5615 5 c6 -8 9 -19 5 -25 -4 -7 -186 -10 -561 -10
-499 0 -555 2 -561 16 -3 9 0 20 8 25 8 5 258 9 556 8 455 0 543 -2 553 -14z
m207 -30 c33 -90 37 -85 -70 -85 -106 0 -107 0 -107 75 0 25 5 46 13 49 6 2
43 4 80 3 l69 -2 15 -40z m2710 -302 c-1 -54 -3 -10 -3 97 0 107 2 151 3 98 2
-54 2 -142 0 -195z m303 227 c0 -33 -2 -60 -3 -60 -2 0 -21 16 -41 36 -36 35
-40 36 -97 32 -47 -3 -65 -10 -87 -31 -15 -15 -31 -27 -35 -27 -4 0 -7 25 -7
55 l0 55 135 0 135 0 0 -60z m49 -172 l-4 -233 77 -5 c86 -6 110 -22 105 -73
l-2 -28 -359 0 c-197 0 -361 2 -364 6 -9 8 17 48 44 68 13 10 41 21 62 23 78
11 82 13 82 42 l0 28 68 -3 c217 -9 262 -8 263 2 0 5 0 94 -1 198 -1 185 1
207 22 207 7 0 9 -75 7 -232z m-10289 162 c0 -19 -7 -20 -160 -19 -122 0 -160
3 -160 13 0 7 3 16 7 19 3 4 75 7 160 7 146 0 153 -1 153 -20z m5332 -46 l-10
-49 -1 60 c-1 41 2 56 9 49 8 -8 8 -27 2 -60z m5460 38 c13 -16 42 -44 65 -62
39 -30 47 -32 92 -27 52 6 72 -6 100 -60 17 -33 13 -105 -7 -131 -17 -22 -22
-23 -152 -20 l-135 3 -3 163 c-1 98 1 162 7 162 5 0 20 -13 33 -28z m-609 -28
c42 -42 58 -99 55 -189 l-3 -80 -132 -3 -133 -3 0 89 c0 103 14 147 60 186 44
37 116 37 153 0z m-9938 -44 l0 -55 -65 0 -65 0 -3 34 c-2 19 -1 45 3 58 5 23
9 24 68 21 l62 -3 0 -55z m6950 16 c4 -18 5 -44 3 -57 -3 -22 -8 -24 -70 -27
l-68 -3 0 61 0 60 65 0 64 0 6 -34z m55 12 c0 -34 -11 -68 -21 -68 -10 0 -12
73 -2 83 13 14 23 7 23 -15z m-3156 -50 c3 -24 12 -182 21 -353 9 -170 25
-461 35 -645 11 -184 20 -356 20 -382 l0 -48 -105 0 -105 0 0 268 c0 148 -3
479 -7 735 l-6 467 71 0 71 0 5 -42z m423 -13 c3 -57 18 -320 33 -565 15 -228
50 -830 50 -841 0 -6 -43 -8 -102 -7 l-103 3 -11 550 c-7 303 -12 632 -13 733
l-1 183 73 -3 72 -3 2 -50z m4923 -65 c0 -107 -2 -120 -17 -121 -10 0 -67 0
-128 1 -99 0 -112 3 -127 21 -27 33 -22 65 19 110 36 40 39 41 85 35 53 -7 88
6 127 48 14 14 28 26 33 26 4 0 8 -54 8 -120z m-2242 -33 c4 -31 -69 -275 -96
-321 -38 -64 -42 -48 -42 152 0 104 3 192 7 196 4 4 34 6 68 4 57 -3 60 -4 63
-31z m429 -10 c27 -19 56 -37 66 -40 15 -6 17 -25 17 -207 l0 -200 -70 0 -70
0 0 240 c0 132 2 240 5 240 3 0 26 -15 52 -33z m-2590 -20 c62 -58 63 -71 63
-579 l0 -458 -44 0 -45 0 -5 43 c-3 23 -12 173 -21 332 -8 160 -20 376 -26
482 -6 106 -9 200 -5 208 8 22 43 11 83 -28z m2501 -194 l-3 -228 -97 -3 c-54
-1 -98 0 -98 3 0 3 9 18 21 34 13 18 24 54 30 101 6 54 22 102 60 184 54 116
66 136 80 136 6 0 8 -98 7 -227z m-2771 -643 l-2 -215 -30 0 -30 0 -2 479 c-2
403 0 484 13 514 37 89 39 80 46 -249 5 -173 7 -411 5 -529z m3053 767 l25
-12 0 -170 0 -170 -50 0 -50 0 -3 189 -2 188 27 -7 c16 -3 39 -12 53 -18z
m2068 -24 c6 -3 12 -11 12 -18 0 -15 -27 -28 -41 -19 -31 18 -149 -67 -149
-108 0 -10 -3 -18 -7 -18 -5 0 -129 -1 -278 -1 -218 -1 -270 2 -273 13 -3 7
-11 28 -20 46 -11 25 -12 39 -4 55 5 12 13 30 16 40 5 17 27 18 368 16 200 -1
369 -4 376 -6z m-1948 -13 c44 -13 232 -40 277 -40 23 0 36 -6 40 -17 3 -10
17 -33 30 -51 30 -39 31 -39 -115 -51 -93 -8 -120 -14 -157 -35 -46 -27 -75
-68 -75 -106 0 -16 -6 -20 -30 -20 l-30 0 0 165 c0 180 -3 173 60 155z m3203
-65 c21 -41 37 -77 35 -81 -2 -5 -534 -8 -670 -4 -5 0 -8 11 -8 25 0 38 -25
79 -55 93 -14 7 -50 12 -80 12 -51 0 -65 7 -48 23 3 4 182 7 397 7 l391 0 38
-75z m-2797 -20 c26 -20 61 -43 78 -52 37 -18 66 -43 66 -55 0 -4 -51 -8 -112
-8 -183 0 -284 -14 -332 -46 -22 -15 -45 -33 -49 -41 -11 -19 -27 -16 -27 5 0
10 10 28 23 39 44 41 87 54 210 65 151 13 163 21 113 76 -58 64 -43 72 30 17z
m-4418 -557 l2 -538 -89 0 -89 0 -6 83 c-6 85 -18 303 -36 682 -5 121 -12 239
-15 261 -2 23 -1 44 2 48 4 4 57 5 117 4 l111 -3 3 -537z m3437 440 c-8 -37
-44 -106 -74 -142 -14 -17 -41 -22 -41 -7 0 5 15 31 34 59 19 27 42 66 50 86
19 46 40 49 31 4z m3760 16 c8 -3 15 -10 15 -15 0 -5 -414 -9 -985 -9 -542 0
-985 4 -985 8 0 5 3 11 6 15 8 8 1928 9 1949 1z m13 -96 l3 -38 -994 0 c-546
0 -996 3 -1000 6 -3 3 4 21 15 40 l20 34 977 -2 976 -3 3 -37z m-3218 -67 c22
-1 47 -11 67 -29 l32 -27 483 2 c463 2 486 3 558 24 126 36 147 36 228 -6 40
-20 72 -41 72 -46 0 -6 -440 -9 -1215 -7 -802 2 -1215 6 -1215 13 0 6 37 11
88 12 165 4 233 13 273 38 31 20 53 25 126 27 85 3 431 2 503 -1z m1500 -29
c0 -16 -2 -31 -5 -34 -6 -6 -115 50 -115 58 0 2 27 4 60 4 59 0 60 0 60 -28z
m150 -357 l0 -385 -55 0 -55 0 0 318 c0 174 -3 347 -7 385 l-6 67 62 0 61 0 0
-385z m131 255 c-1 -69 -7 -130 -13 -137 -13 -15 0 -36 18 -29 18 7 22 -2 28
-67 3 -30 6 -59 7 -64 1 -4 1 -83 0 -175 l-1 -168 -70 0 -70 0 0 386 0 385 52
-3 52 -3 -3 -125z m127 18 l-3 -111 -39 -13 c-21 -8 -42 -11 -47 -8 -10 6 -12
227 -2 237 3 4 26 7 50 7 l44 0 -3 -112z m512 8 c0 -58 -4 -107 -9 -110 -4 -3
-59 8 -122 25 l-113 30 -103 -25 c-56 -14 -109 -26 -118 -26 -12 0 -15 17 -15
105 l0 105 240 0 240 0 0 -104z m140 -21 c0 -125 0 -125 -24 -125 -12 0 -37 5
-55 11 l-31 11 0 114 0 114 55 0 55 0 0 -125z m124 108 c7 -23 7 -690 0 -725
-5 -26 -9 -28 -54 -28 l-47 0 -6 68 c-4 37 -10 142 -13 233 -6 148 -5 166 10
172 14 6 16 26 16 152 l0 145 44 0 c34 0 46 -4 50 -17z m174 -371 l2 -383 -72
3 -73 3 -3 370 c-1 203 0 376 3 383 3 9 24 12 72 10 l68 -3 3 -383z m180 6
l-3 -383 -70 0 -70 0 -3 383 -2 382 75 0 75 0 -2 -382z m180 -6 l2 -383 -72 3
-73 3 -3 383 -2 383 72 -3 73 -3 3 -383z m-1719 268 c7 -4 11 -18 9 -31 l-3
-24 -1215 -3 c-668 -1 -1229 0 -1247 3 -36 6 -52 34 -29 51 18 13 2464 17
2485 4z m798 -100 c62 -16 116 -30 119 -30 3 0 2 -4 -1 -10 -8 -12 -464 -13
-483 -1 -9 5 27 19 105 39 65 16 124 31 132 31 7 1 65 -12 128 -29z m-2014 10
l1227 0 -2 -292 -3 -293 -1246 -3 c-1181 -2 -1247 -1 -1251 15 -7 28 -9 545
-2 566 4 14 12 17 27 13 12 -3 574 -6 1250 -6z m2240 -90 c5 0 7 -17 5 -37
l-3 -38 -334 -3 c-261 -2 -336 1 -343 10 -11 18 -10 52 1 64 7 6 549 10 674 4z
m-623 -178 c0 -38 3 -158 7 -266 l6 -198 -32 4 -33 3 1 254 c1 140 4 258 7
263 3 4 14 8 25 8 17 0 19 -7 19 -68z m86 -84 c-14 -330 -18 -378 -32 -378
-11 0 -14 20 -14 83 0 46 -3 166 -7 265 l-6 182 33 0 33 0 -7 -152z m67 110
c4 -24 9 -143 13 -265 l7 -223 -38 0 -38 0 7 153 c14 320 18 377 31 377 7 0
15 -18 18 -42z m261 -63 c-1 -55 -2 -171 -3 -257 -1 -201 -19 -213 -23 -15
l-3 142 -77 3 -78 3 0 -145 c0 -86 -4 -147 -10 -151 -6 -3 -12 0 -14 7 -7 19
-24 502 -19 511 3 4 55 6 116 5 l112 -3 -1 -100z m77 -10 c4 -61 8 -177 9
-260 l3 -150 -29 0 -29 0 -3 100 c-2 55 0 173 3 263 6 144 9 163 24 160 13 -3
17 -22 22 -113z m69 -144 c0 -230 -6 -294 -23 -264 -3 5 -8 124 -12 266 -7
257 -7 257 14 257 21 0 21 -2 21 -259z m74 197 c11 -120 26 -450 20 -459 -3
-5 -18 -9 -35 -9 l-29 0 0 265 c0 255 1 265 19 265 16 0 20 -10 25 -62z m-281
-197 c4 -1 6 -61 5 -133 l-3 -133 -44 -3 c-28 -2 -47 1 -52 10 -12 18 -11 242
0 254 8 7 45 9 94 5z m1042 -196 l0 -70 -115 0 -115 0 0 65 0 65 90 6 c152 10
140 15 140 -66z m-1615 -5 l0 -70 -70 0 -70 0 0 70 0 70 70 0 70 0 0 -70z
m138 18 c5 -70 -10 -90 -61 -86 l-42 3 -3 54 c-4 77 -1 83 55 79 l48 -3 3 -47z
m822 -18 c0 -67 -1 -70 -24 -70 -21 0 -24 5 -30 61 -7 70 -4 79 30 79 23 0 24
-2 24 -70z m275 0 l0 -65 -120 0 -120 0 -3 54 c-5 84 -9 82 125 79 l118 -3 0
-65z m123 21 c6 -75 -3 -91 -47 -91 -26 0 -41 5 -45 16 -8 22 -8 109 1 118 4
4 25 6 48 4 40 -3 40 -3 43 -47z m-1535 20 c4 -1 7 -10 7 -21 0 -20 -7 -20
-1249 -20 -858 0 -1252 3 -1256 10 -22 35 -13 36 1252 34 681 -1 1241 -2 1246
-3z m7 -175 c0 -99 -1 -104 -22 -110 -13 -3 -573 -6 -1244 -6 -1050 0 -1223 2
-1233 14 -12 14 -14 163 -3 194 3 9 263 12 1253 12 l1249 0 0 -104z"/>
<path d="M10031 6586 c-8 -9 -11 -47 -9 -107 3 -94 3 -94 30 -97 l27 -3 3 101
c2 55 2 105 0 110 -5 15 -38 12 -51 -4z m29 -102 c0 -54 -4 -83 -10 -79 -11 7
-14 148 -3 158 12 13 13 7 13 -79z"/>
<path d="M9932 6488 c4 -133 22 -132 26 2 2 85 0 100 -13 100 -13 0 -15 -15
-13 -102z"/>
<path d="M10169 6548 c-1 -37 -1 -149 0 -160 1 -5 6 -8 11 -8 6 0 10 40 10
100 0 60 -4 100 -10 100 -5 0 -10 -15 -11 -32z"/>
<path d="M16554 4466 c-6 -26 1 -46 17 -46 12 0 12 57 -1 65 -5 3 -12 -5 -16
-19z"/>
<path d="M16500 4445 c0 -25 4 -35 13 -32 6 2 12 16 12 32 0 16 -6 30 -12 33
-9 2 -13 -8 -13 -33z"/>
<path d="M16432 4004 c2 -27 8 -48 13 -46 15 3 12 85 -3 90 -10 3 -12 -8 -10
-44z"/>
<path d="M16560 4020 c0 -37 4 -50 13 -47 16 5 16 89 -1 95 -8 2 -12 -11 -12
-48z"/>
<path d="M16687 4053 c-3 -5 -4 -26 -2 -48 4 -55 4 -55 15 -55 6 0 10 25 10
55 0 49 -10 69 -23 48z"/>
<path d="M16550 3812 c-46 -14 -67 -75 -36 -101 19 -16 66 -17 94 -2 53 28 0
121 -58 103z m50 -42 c6 -10 7 -26 4 -35 -9 -22 -63 -16 -78 8 -9 15 -7 22 12
37 25 21 47 17 62 -10z"/>
<path d="M9200 2842 c-614 -246 -895 -362 -895 -372 0 -10 15 -17 45 -22 73
-10 3722 -8 3742 3 26 14 22 36 -9 47 -16 5 -199 71 -408 147 -209 75 -434
156 -500 180 -66 23 -328 117 -581 209 -254 91 -470 166 -480 165 -11 0 -422
-161 -914 -357z m1377 168 c247 -89 477 -172 513 -185 36 -13 254 -92 485
-175 231 -83 426 -153 434 -155 8 -3 12 -8 9 -10 -6 -7 -3620 -7 -3626 0 -3 2
4 8 14 11 30 11 1310 519 1509 599 99 40 188 74 197 74 10 1 219 -71 465 -159z"/>
<path d="M2330 4772 c0 -4 95 -75 210 -156 116 -81 210 -149 210 -151 0 -2
-32 -70 -71 -151 -39 -82 -95 -201 -124 -264 -29 -63 -77 -167 -107 -230 -31
-63 -67 -140 -81 -170 -34 -76 -91 -196 -180 -385 -41 -88 -94 -200 -117 -250
-23 -49 -91 -193 -150 -320 -59 -126 -174 -372 -255 -545 -348 -742 -342 -730
-359 -730 -16 0 -21 -12 -10 -22 7 -8 64 21 64 33 0 18 26 8 64 -24 34 -29 38
-36 31 -65 -4 -22 -12 -32 -26 -32 -10 0 -19 -4 -19 -8 0 -20 15 -19 44 3 22
17 44 53 76 129 26 61 51 106 59 106 19 0 164 -89 179 -111 13 -19 42 -15 42
6 0 6 -47 41 -105 76 -58 35 -105 68 -105 73 0 6 32 81 70 168 39 87 75 170
81 185 6 15 13 22 18 17 5 -5 21 -72 35 -149 15 -77 36 -184 46 -238 11 -54
19 -103 17 -109 -3 -14 15 -20 31 -9 10 6 10 14 3 32 -6 13 -29 121 -51 239
-22 118 -43 225 -45 238 -3 12 -1 22 5 22 6 0 71 -48 145 -108 94 -75 134
-113 134 -128 1 -12 -8 -66 -19 -119 -28 -135 -27 -145 10 -145 34 0 41 19 9
27 -12 3 -18 11 -15 19 3 7 17 71 30 141 61 308 124 536 318 1148 33 105 83
246 110 315 27 69 96 264 153 435 116 352 200 576 256 683 40 76 41 102 4 116
-19 7 -11 27 8 21 7 -3 267 -47 580 -99 312 -52 571 -98 576 -101 5 -3 -15
-65 -46 -138 -30 -72 -101 -244 -158 -382 -57 -137 -149 -360 -205 -495 -56
-135 -155 -373 -220 -530 -65 -157 -173 -418 -240 -580 -244 -589 -269 -650
-260 -655 4 -2 12 1 18 8 8 10 75 166 122 284 19 49 33 41 26 -14 -3 -27 -8
-77 -11 -113 -12 -139 -12 -138 -66 -165 -26 -14 -55 -25 -63 -25 -8 0 -32
-20 -53 -44 -28 -33 -61 -54 -128 -84 -49 -22 -216 -98 -370 -170 -275 -127
-363 -178 -762 -434 -32 -21 -65 -42 -73 -47 -8 -5 -76 -34 -150 -65 -155 -65
-317 -155 -419 -232 -39 -30 -80 -54 -91 -54 -22 0 -26 -10 -9 -27 8 -8 5 -19
-10 -40 -25 -33 -63 -132 -55 -144 7 -12 5691 -12 5698 0 3 4 -24 62 -59 128
-60 111 -72 126 -152 196 -49 42 -110 99 -138 128 -27 28 -104 92 -170 142
-207 157 -419 324 -436 343 -15 18 -119 264 -119 281 0 5 34 47 76 93 42 47
87 102 100 123 13 20 31 37 39 37 18 0 19 5 4 28 -9 14 6 64 71 247 46 127 85
245 87 263 l5 32 -775 0 c-534 0 -778 3 -782 11 -14 22 8 62 80 141 93 103
124 171 99 219 -8 17 -14 33 -11 35 2 2 44 16 92 30 139 40 269 115 299 171
15 29 85 58 100 43 18 -18 56 -10 136 30 44 22 84 40 89 40 6 0 11 -33 13 -72
3 -65 0 -75 -19 -93 -12 -11 -28 -41 -35 -67 -18 -69 -5 -77 68 -41 52 25 63
35 92 90 l33 62 -22 71 c-12 39 -18 74 -15 78 14 14 101 -49 138 -101 18 -25
19 -32 8 -53 -17 -31 -3 -97 22 -102 9 -2 33 7 52 20 l36 23 0 86 0 86 -42 19
c-24 10 -74 47 -112 82 -63 58 -71 62 -103 56 -27 -5 -39 -2 -59 17 -18 17
-39 24 -87 27 -66 5 -77 12 -77 51 0 14 -16 55 -35 92 -19 38 -35 74 -35 81 0
7 -12 36 -25 63 -14 28 -25 55 -25 60 0 16 82 55 118 55 20 0 35 6 38 15 4 8
14 15 24 15 31 0 53 35 46 73 -8 40 -27 60 -81 82 -75 30 -130 60 -143 77 -7
9 -27 18 -45 20 -28 3 -32 7 -35 36 -4 45 -26 50 -56 15 -18 -22 -39 -32 -87
-42 -75 -15 -144 -53 -164 -90 -7 -14 -32 -44 -54 -66 -23 -21 -41 -45 -41
-52 0 -21 -12 -15 -59 28 -40 36 -43 41 -28 57 29 33 -9 146 -59 172 -18 10
-29 9 -62 -10 -56 -31 -66 -55 -60 -139 5 -62 2 -78 -22 -128 -14 -32 -37 -91
-50 -130 -22 -65 -23 -76 -11 -105 25 -62 24 -75 -19 -172 -39 -88 -47 -100
-95 -131 -70 -47 -145 -121 -145 -144 0 -32 -68 -133 -119 -178 -58 -51 -146
-182 -183 -273 -15 -36 -45 -122 -68 -192 -22 -69 -49 -137 -60 -150 l-20 -23
6 55 c3 30 10 71 14 90 53 223 153 538 240 755 29 72 78 200 110 285 32 85 85
218 118 295 33 77 63 151 67 165 9 31 80 210 105 265 9 22 43 97 74 168 32 70
56 135 54 145 -3 16 -113 78 -488 274 -85 44 -159 84 -165 89 -13 13 -47 11
-43 -2 2 -6 127 -76 278 -156 151 -80 280 -150 285 -155 12 -13 73 -22 -628
96 -312 53 -577 96 -590 96 -12 1 -133 79 -276 180 -233 165 -281 194 -281
172z m478 -355 c6 -29 -6 -53 -20 -39 -18 18 -25 15 -42 -19 -17 -34 -12 -54
10 -45 8 3 14 1 14 -5 0 -9 -27 -68 -35 -77 -6 -6 -45 19 -45 28 0 5 18 48 41
95 30 63 45 85 57 83 9 -2 18 -11 20 -21z m87 -49 c19 -13 35 -28 35 -34 0
-12 -169 -149 -176 -142 -7 8 85 198 96 198 6 0 26 -10 45 -22z m-113 -30 c-7
-7 -12 -8 -12 -2 0 6 3 14 7 17 3 4 9 5 12 2 2 -3 -1 -11 -7 -17z m138 -72 c0
-5 -80 -179 -85 -184 -7 -8 -85 44 -83 55 2 6 37 38 78 72 68 55 90 69 90 57z
m-211 -60 c10 -12 4 -34 -30 -108 -24 -51 -44 -95 -46 -97 -6 -9 -43 33 -43
49 0 19 29 61 30 43 0 -7 6 -13 14 -13 15 0 46 52 46 77 0 23 -19 14 -35 -18
-25 -48 -28 -28 -4 29 22 54 45 66 68 38z m1481 -38 c0 -18 -83 -123 -87 -111
-2 6 5 30 16 52 12 22 21 47 21 56 0 9 9 15 25 15 14 0 25 -5 25 -12z m-1379
-114 c6 -8 -1 -42 -20 -99 -42 -124 -51 -128 -52 -20 -1 50 -3 101 -5 115 -5
46 3 53 37 33 17 -10 35 -23 40 -29z m1338 -45 c-15 -32 -29 -49 -41 -49 -26
0 -22 15 19 71 44 58 55 48 22 -22z m-1437 -80 c2 -72 1 -132 -1 -134 -5 -5
-98 42 -105 54 -3 5 10 44 30 87 20 44 40 89 45 102 19 49 28 18 31 -109z
m-109 56 c18 -13 17 -18 -22 -107 -56 -126 -52 -121 -84 -107 -15 7 -27 16
-27 21 0 20 94 208 104 208 6 0 19 -7 29 -15z m1499 -57 c3 -7 -4 -33 -16 -58
-17 -38 -21 -41 -24 -22 -4 26 16 92 28 92 4 0 10 -6 12 -12z m-86 -142 c-16
-77 -20 -84 -40 -67 -13 11 -12 18 6 59 11 26 25 58 30 72 17 42 19 8 4 -64z
m-1326 -28 c0 -9 -210 -202 -214 -197 -4 4 91 222 107 247 6 9 20 6 58 -15 27
-16 49 -31 49 -35z m-185 -50 c-4 -10 -24 -57 -46 -104 -34 -74 -41 -83 -57
-75 -35 19 -44 36 -31 65 9 19 17 24 33 20 17 -4 25 2 39 31 30 62 14 79 -22
23 -11 -18 -21 -30 -21 -26 0 14 42 103 52 109 19 12 59 -21 53 -43z m202 0
c-3 -7 -26 -77 -52 -155 -25 -79 -49 -144 -53 -147 -4 -2 -34 21 -67 52 l-59
55 109 103 c104 98 133 120 122 92z m1653 -38 c0 -33 -7 -47 -34 -75 -19 -18
-36 -39 -38 -46 -10 -29 -28 6 -28 52 0 42 5 55 29 80 16 16 39 29 50 29 18 0
21 -6 21 -40z m530 10 c0 -27 3 -30 34 -30 18 0 39 -7 46 -15 7 -9 43 -29 79
-46 146 -68 136 -61 139 -101 2 -29 -1 -38 -12 -38 -8 0 -19 8 -24 17 -14 24
-87 21 -141 -5 -27 -13 -49 -18 -55 -13 -6 5 -26 12 -43 16 -34 7 -83 56 -83
83 0 12 -3 13 -12 4 -18 -18 5 -57 51 -89 22 -16 40 -33 41 -39 0 -13 -2 -14
-105 -51 -38 -14 -99 -39 -134 -55 -35 -16 -70 -27 -77 -24 -8 3 -14 19 -14
35 0 16 -9 50 -20 76 -30 71 -38 56 101 202 26 27 100 53 151 53 32 0 40 4 48
25 13 34 30 31 30 -5z m-915 0 c3 -6 -11 -35 -32 -65 -45 -65 -54 -56 -19 20
24 53 38 66 51 45z m430 -61 c5 -22 2 -36 -10 -49 -21 -24 -13 -53 22 -71 29
-15 83 -84 83 -106 0 -18 -27 -16 -96 8 -32 11 -83 21 -111 22 -29 1 -53 7
-53 12 0 6 9 25 20 43 21 34 55 43 78 20 15 -15 24 -6 16 16 -3 9 -18 19 -32
23 l-26 6 38 33 c33 28 42 44 45 77 2 18 20 -5 26 -34z m-440 -66 c-31 -82
-58 -112 -71 -79 -5 13 76 140 84 131 3 -2 -3 -26 -13 -52z m-1586 -43 c28
-24 26 -35 -24 -143 -20 -42 -41 -77 -49 -77 -7 0 -22 10 -33 23 l-21 22 45
98 c26 53 49 97 52 97 3 -1 17 -10 30 -20z m209 -146 c3 -12 -76 -224 -88
-238 -5 -4 -11 16 -14 45 -10 100 -16 286 -9 292 7 7 106 -81 111 -99z m-144
44 c13 -127 16 -318 6 -318 -18 0 -140 81 -140 93 0 18 114 277 122 277 3 0 9
-24 12 -52z m2672 38 c15 -11 16 -17 7 -27 -15 -15 -73 6 -73 27 0 18 41 18
66 0z m-1216 -23 c0 -20 -36 -103 -44 -103 -6 0 2 83 10 108 5 19 34 14 34 -5z
m1134 -12 c3 -5 -9 -20 -28 -34 -33 -26 -34 -26 -52 -6 -20 22 -12 35 26 42
43 7 49 7 54 -2z m-719 -11 c8 0 28 -13 45 -30 20 -19 41 -30 60 -30 16 0 39
-4 52 -9 13 -5 35 -12 51 -15 15 -4 27 -13 27 -21 0 -13 -21 -15 -147 -13
l-148 3 -6 50 c-7 53 9 82 39 70 8 -3 20 -5 27 -5z m-496 -95 c-13 -95 -14
-98 -39 -85 -24 13 -22 21 16 109 14 30 26 52 29 50 2 -3 0 -36 -6 -74z m1134
29 c19 -26 42 -70 52 -98 10 -28 30 -76 46 -108 15 -31 31 -73 35 -93 l7 -38
-62 5 c-92 6 -71 -14 30 -29 46 -7 108 -12 136 -13 45 0 55 -4 70 -26 9 -15
22 -52 29 -83 7 -31 20 -81 29 -113 l17 -56 -28 -54 c-20 -36 -41 -59 -66 -73
-45 -24 -54 -17 -39 28 9 27 19 36 41 41 32 6 39 26 16 45 -9 8 -12 25 -9 56
3 24 2 60 -1 80 -8 40 -60 105 -85 105 -9 0 -50 -12 -91 -25 -45 -15 -97 -25
-133 -25 l-58 0 -20 45 c-11 25 -22 45 -24 45 -14 0 -2 -52 20 -84 27 -40 26
-42 -14 -21 -33 17 -42 36 -76 170 -14 55 -31 105 -38 112 -7 6 -43 20 -82 30
-69 19 -70 20 -73 56 l-3 37 78 36 c78 37 227 92 250 93 7 1 28 -20 46 -45z
m-723 -19 c0 -60 16 -67 164 -65 72 1 137 2 144 1 7 -1 12 -14 12 -32 l0 -31
-58 7 -59 7 -50 -64 c-27 -35 -57 -76 -65 -93 -9 -16 -30 -55 -47 -86 -32 -58
-121 -283 -121 -306 0 -19 -14 -16 -35 7 -10 11 -24 20 -32 20 -8 0 -25 11
-37 25 -21 23 -25 24 -39 10 -9 -8 -21 -32 -27 -52 -16 -50 -37 -72 -61 -66
-23 6 -24 16 -2 50 11 17 17 47 18 86 0 58 1 60 49 104 27 24 66 53 86 63 31
16 45 35 81 107 45 92 53 146 34 231 -5 22 -2 47 10 77 19 51 35 51 35 0z
m-1930 -67 c0 -4 -18 -46 -40 -93 -42 -92 -41 -92 -93 -53 -18 13 -17 18 18
93 49 107 50 109 86 83 16 -12 29 -25 29 -30z m1474 -69 c-1 -17 -74 -122 -81
-116 -2 3 8 35 23 71 19 49 31 66 43 64 9 -2 16 -11 15 -19z m830 -32 c54 -14
104 -31 111 -39 17 -17 46 -121 37 -129 -4 -3 -35 -14 -69 -24 -52 -15 -86
-17 -213 -13 -83 3 -154 8 -157 12 -16 16 28 36 135 61 121 29 172 49 172 65
0 13 -27 13 -35 1 -3 -5 -31 -15 -63 -21 -31 -6 -79 -18 -106 -26 -81 -23 -82
-3 -8 99 40 56 32 56 196 14z m-2238 -44 l65 -38 -33 -30 c-57 -50 -231 -185
-235 -181 -6 6 121 286 130 286 4 0 37 -17 73 -37z m1384 -78 c-33 -84 -46
-98 -70 -70 -9 11 -2 28 41 89 29 42 55 74 57 71 3 -3 -10 -43 -28 -90z
m-1570 35 l29 -20 -41 -93 c-22 -50 -44 -96 -48 -100 -8 -9 -64 16 -74 32 -8
12 83 201 96 201 6 0 23 -9 38 -20z m286 -32 c-2 -7 -30 -91 -61 -185 -31 -95
-58 -173 -61 -173 -10 0 -184 125 -184 133 0 4 28 28 62 55 34 26 98 77 142
114 77 63 114 83 102 56z m2309 -114 c18 -54 46 -85 98 -110 29 -13 60 -24 70
-24 33 0 12 -25 -29 -34 -21 -5 -57 -15 -79 -22 -36 -11 -40 -10 -43 4 -9 52
-17 67 -67 123 -30 34 -52 65 -49 70 6 10 64 28 79 25 6 -1 15 -16 20 -32z
m-1075 -13 c0 -5 -14 -41 -30 -82 -32 -78 -57 -114 -47 -69 3 14 11 54 17 90
15 92 16 93 40 80 11 -6 20 -14 20 -19z m813 13 c75 -4 137 -10 137 -15 0 -4
15 -23 33 -42 17 -19 41 -44 51 -56 11 -12 22 -41 26 -64 l5 -42 48 2 c26 1
47 -2 47 -7 0 -29 -155 -117 -256 -145 -87 -24 -297 -65 -303 -60 -2 3 -5 35
-5 70 0 36 -3 65 -6 65 -17 0 -29 -55 -24 -112 4 -57 2 -68 -28 -123 -27 -48
-46 -69 -103 -107 -38 -25 -77 -56 -87 -68 -35 -43 -14 -158 36 -199 23 -19
20 -36 -9 -49 -38 -17 -39 -17 -65 40 -13 29 -41 83 -62 119 -21 36 -38 72
-38 79 0 7 24 39 54 71 30 32 57 68 61 79 7 23 -10 50 -32 50 -34 0 -94 42
-113 80 -24 47 -28 119 -6 101 8 -7 32 -11 53 -9 34 3 40 8 60 47 12 24 24 49
26 55 3 8 8 7 18 -1 7 -7 20 -13 29 -13 9 0 27 -11 40 -25 40 -42 55 -33 84
53 47 134 87 231 99 236 7 3 30 3 52 1 22 -3 102 -8 178 -11z m919 -53 c35
-32 80 -66 100 -76 l38 -17 -2 -69 c-2 -60 -6 -72 -25 -84 -30 -20 -40 -19
-46 7 -5 16 1 31 19 50 l26 27 -58 59 c-33 32 -82 71 -110 85 -69 35 -85 77
-29 77 16 0 47 -21 87 -59z m-225 -8 c14 -20 11 -23 -82 -67 -98 -46 -120 -49
-130 -15 -4 11 -23 26 -42 34 -44 19 -39 25 23 30 27 3 74 13 104 24 69 24
108 22 127 -6z m-1607 -87 c-7 -48 -15 -88 -20 -91 -4 -2 -15 2 -25 9 -17 12
-17 15 3 67 28 75 44 110 50 105 2 -3 -1 -43 -8 -90z m-1500 38 c0 -15 -74
-182 -87 -195 -7 -7 -23 -3 -47 11 -20 12 -36 24 -36 26 0 9 81 179 91 191 8
9 18 8 45 -4 19 -9 34 -22 34 -29z m149 -104 c54 -37 80 -61 81 -75 0 -33 -84
-285 -95 -281 -8 2 -83 362 -85 404 0 18 5 16 99 -48z m-119 10 c0 -18 52
-301 69 -372 5 -20 6 -39 4 -42 -7 -7 -204 145 -210 162 -5 11 58 165 104 255
15 29 33 28 33 -3z m1756 -67 c-21 -40 -25 -44 -25 -23 -1 28 40 101 46 83 2
-6 -7 -33 -21 -60z m-330 2 c6 -14 -95 -169 -104 -160 -5 4 10 44 48 128 21
46 45 61 56 32z m-1592 -56 c39 -23 41 -11 -18 -144 -20 -45 -41 -79 -48 -77
-22 6 -68 43 -68 56 0 22 79 186 89 186 6 0 26 -9 45 -21z m1590 -91 c-48
-131 -48 -131 -85 -112 -19 10 -27 19 -22 27 47 75 136 197 140 193 3 -3 -12
-52 -33 -108z m276 70 c1 -13 7 -40 15 -61 14 -42 13 -46 -52 -187 -50 -108
-101 -256 -121 -352 -29 -134 -60 -191 -125 -225 -48 -25 -153 3 -177 46 -20
38 -12 60 29 80 75 39 103 86 165 274 61 182 73 212 124 292 43 68 118 155
134 155 4 0 8 -10 8 -22z m655 -114 c11 -16 14 -35 10 -54 -9 -40 -58 -114
-119 -179 -64 -67 -80 -95 -72 -127 10 -37 -22 -48 -73 -23 -22 11 -41 21 -41
23 0 2 18 31 40 64 48 72 53 117 15 132 -25 9 -33 25 -16 32 5 2 23 31 40 65
27 54 36 63 68 72 108 28 127 27 148 -5z m-584 -40 c10 -9 35 -22 55 -29 21
-7 40 -17 41 -22 2 -5 -24 -40 -57 -78 -33 -37 -60 -75 -60 -85 0 -9 16 -43
35 -75 47 -77 98 -185 91 -192 -9 -9 -366 -173 -377 -173 -6 0 -2 12 9 28 26
37 49 104 62 180 13 73 65 221 120 342 21 47 41 93 44 103 7 21 14 21 37 1z
m-1826 -65 c50 -38 91 -74 93 -78 4 -11 -21 -29 -207 -145 -85 -53 -156 -94
-159 -92 -7 8 162 386 173 386 6 0 51 -32 100 -71z m-221 10 c20 -12 36 -25
36 -29 0 -20 -83 -200 -93 -200 -15 0 -77 49 -77 61 0 18 82 189 91 189 4 0
24 -9 43 -21z m1629 -12 c17 -12 17 -17 -4 -102 -11 -50 -24 -96 -28 -103 -7
-13 -21 109 -21 186 0 35 21 43 53 19z m-80 -74 c9 -91 9 -163 0 -163 -17 1
-87 46 -85 55 2 21 67 175 73 175 3 0 9 -30 12 -67z m821 -3 c14 -5 26 -16 26
-23 0 -7 -21 -46 -47 -87 l-47 -73 23 -18 c13 -11 29 -19 37 -19 28 0 13 -17
-37 -40 -30 -15 -53 -20 -57 -14 -93 131 -91 189 11 250 61 37 59 37 91 24z
m-2014 -35 c0 -2 -20 -87 -45 -188 -25 -101 -45 -189 -45 -195 0 -6 -4 -22
-10 -37 l-10 -26 -129 103 c-71 57 -130 108 -130 114 -1 6 70 55 157 109 86
54 164 104 172 112 14 12 40 18 40 8z m-458 -115 l37 -30 -47 -105 c-25 -58
-51 -105 -56 -104 -6 0 -26 18 -45 40 l-34 39 44 95 c24 52 49 95 54 95 6 0
27 -14 47 -30z m1609 -21 c22 -11 39 -24 37 -29 -6 -16 -212 -260 -220 -260
-11 0 -13 -4 38 116 25 60 50 123 56 139 13 35 27 55 40 55 5 0 27 -9 49 -21z
m62 -129 c-7 -49 -12 -57 -51 -83 -32 -22 -42 -35 -42 -55 0 -30 34 -92 50
-92 5 0 10 -13 10 -30 0 -29 -17 -40 -34 -22 -4 4 -42 21 -84 38 -42 17 -77
36 -77 42 0 19 230 286 233 271 1 -8 -1 -39 -5 -69z m2302 70 c-11 -5 -308
-66 -660 -135 -352 -70 -829 -164 -1060 -211 -231 -46 -430 -84 -441 -84 -20
0 -31 23 -35 74 0 6 39 24 88 41 48 18 162 67 253 109 91 43 201 94 245 114
44 20 109 51 145 69 l65 32 710 0 c428 0 702 -4 690 -9z m125 -20 c0 -5 -4
-19 -10 -32 -5 -13 -48 -133 -95 -267 -91 -259 -84 -247 -207 -379 -27 -28
-53 -50 -57 -47 -5 2 -90 23 -190 45 l-183 40 -111 -34 c-62 -19 -186 -58
-277 -86 -90 -28 -169 -55 -175 -59 -5 -4 -44 -35 -85 -68 l-75 -60 -150 -33
-150 -32 -215 -144 -215 -144 -370 -121 c-203 -67 -374 -124 -379 -127 -28
-16 19 37 184 206 305 312 275 271 288 387 l11 100 100 97 c113 109 110 101
87 228 -8 41 -11 78 -7 82 3 4 461 98 1016 208 556 111 1060 212 1120 224 127
28 145 30 145 16z m-4207 -139 l35 -39 -41 -96 c-23 -53 -46 -96 -50 -96 -5 0
-28 14 -52 31 l-43 31 34 74 c48 106 63 134 73 134 5 0 25 -18 44 -39z m1613
-180 c61 -26 93 -51 65 -51 -6 0 -38 -42 -72 -92 -59 -90 -83 -116 -92 -101
-2 5 2 64 9 133 7 69 13 128 13 133 1 10 2 10 77 -22z m186 4 c0 -5 -5 -11
-11 -13 -6 -2 -11 4 -11 13 0 9 5 15 11 13 6 -2 11 -8 11 -13z m-1894 -66 c12
-8 22 -21 22 -31 0 -9 -20 -60 -45 -114 l-45 -97 -43 35 c-23 20 -43 42 -45
50 -3 13 69 176 84 191 4 4 17 1 28 -6 12 -8 31 -20 44 -28z m1967 -21 c10
-35 26 -103 35 -152 l17 -89 -102 -99 -102 -98 -13 -105 -12 -105 -268 -272
-268 -273 -194 -104 -193 -104 -330 -1 -330 -1 -60 92 c-99 152 -139 218 -140
227 0 5 17 15 37 22 21 7 53 24 70 37 18 14 143 93 277 177 253 158 269 167
721 375 205 94 283 134 305 159 17 19 76 56 137 86 l107 53 62 93 61 93 71 25
c40 13 77 25 83 25 6 1 19 -27 29 -61z m1768 -306 c98 -22 182 -43 187 -48 4
-5 36 -78 70 -162 l61 -152 -102 -258 c-56 -141 -104 -260 -108 -264 -3 -4
-48 -10 -98 -14 l-93 -7 -107 -173 -108 -173 -1302 -1 c-1036 0 -1303 3 -1302
13 0 6 8 35 18 62 17 48 22 52 107 99 49 26 150 82 224 122 124 69 168 85 535
207 l400 131 205 136 c113 75 210 139 217 143 6 4 79 22 161 40 l149 33 86 69
85 69 264 82 c144 45 265 82 268 83 3 1 85 -16 183 -37z m442 -453 c50 -39
169 -131 266 -205 97 -73 209 -166 250 -206 41 -40 101 -97 135 -125 46 -40
73 -75 112 -147 29 -53 52 -100 52 -106 0 -7 -239 -10 -760 -10 -418 0 -760 2
-760 5 0 7 165 266 187 293 15 19 31 23 103 29 47 3 90 10 97 15 6 5 58 126
114 269 56 142 105 259 108 259 3 0 47 -32 96 -71z m-4091 -509 l103 -165 319
0 c206 0 319 -4 319 -10 0 -5 -7 -34 -15 -63 l-14 -52 -713 0 c-392 0 -713 2
-713 4 0 2 7 23 15 46 20 56 87 138 153 186 118 87 385 226 425 221 11 -1 56
-62 121 -167z"/>
<path d="M2532 3895 c-14 -28 -18 -47 -11 -51 13 -7 12 -8 38 43 25 49 25 53
8 53 -7 0 -23 -20 -35 -45z"/>
<path d="M2320 3424 c-15 -23 -19 -39 -13 -45 11 -11 23 1 41 43 17 41 -3 43
-28 2z"/>
<path d="M2216 3195 c-14 -26 -16 -39 -9 -46 8 -8 17 0 32 29 18 36 19 52 2
52 -4 0 -15 -16 -25 -35z"/>
<path d="M2110 2989 c-18 -39 -19 -59 -1 -59 9 0 41 66 41 85 0 28 -20 15 -40
-26z"/>
<path d="M2000 2740 c-37 -73 -16 -86 24 -14 30 54 30 54 11 54 -8 0 -24 -18
-35 -40z"/>
<path d="M1905 2518 c-9 -24 -19 -49 -22 -55 -3 -7 2 -13 11 -13 14 0 32 32
50 88 14 42 -21 23 -39 -20z"/>
<path d="M1807 2299 c-9 -13 -19 -36 -22 -51 -11 -45 17 -34 38 14 20 48 8 74
-16 37z"/>
<path d="M1706 2072 c-12 -20 -18 -82 -7 -82 13 0 31 41 31 71 0 19 -14 26
-24 11z"/>
<path d="M1574 1795 c-16 -40 -18 -55 -4 -55 11 0 40 53 40 75 0 27 -21 16
-36 -20z"/>
<path d="M1466 1545 c-20 -30 -20 -45 -3 -45 13 0 37 40 37 60 0 18 -18 10
-34 -15z"/>
<path d="M7301 1786 c-6 -7 -32 -16 -57 -19 -24 -2 -53 -12 -64 -22 -14 -13
-28 -15 -59 -10 -39 6 -41 5 -55 -29 -13 -30 -20 -36 -45 -36 -39 0 -39 -8 0
-65 24 -36 33 -61 36 -108 7 -91 -15 -567 -27 -581 -5 -7 -9 -50 -7 -97 l2
-84 63 -3 c38 -2 69 2 78 9 19 16 20 152 0 168 -11 9 -13 67 -12 304 l1 292
180 0 180 0 -4 -290 c-3 -229 -6 -293 -17 -306 -9 -10 -14 -41 -14 -92 0 -68
2 -76 21 -82 33 -11 56 36 23 49 -11 4 -14 18 -12 53 3 46 4 48 36 51 21 2 43
-4 62 -18 17 -12 38 -20 47 -18 22 4 13 24 -9 21 -10 -2 -18 2 -18 9 0 6 -6
19 -14 27 -12 13 -15 72 -17 321 l-1 305 31 55 c38 69 39 80 2 80 -24 0 -31 5
-36 29 -9 43 -25 53 -63 39 -27 -11 -37 -10 -62 5 -16 10 -45 19 -63 20 -19 1
-42 10 -51 20 -21 21 -40 22 -55 3z m49 -31 c7 -8 23 -15 37 -15 13 0 42 -9
64 -21 25 -13 55 -19 77 -17 28 2 37 -1 37 -12 0 -13 -34 -15 -238 -18 -224
-2 -238 -1 -235 15 2 14 11 17 36 15 20 -2 45 4 66 17 18 12 49 21 68 21 20 0
41 7 48 15 7 8 16 15 20 15 4 0 13 -7 20 -15z m258 -137 l-3 -23 -267 -3
c-232 -2 -268 0 -282 14 -9 8 -16 20 -16 25 0 5 117 9 286 9 l285 0 -3 -22z
m-40 -65 c3 -10 -50 -13 -242 -13 -225 0 -259 3 -239 24 4 3 112 5 242 4 177
-2 235 -6 239 -15z m-444 -59 c8 -20 -1 -34 -20 -34 -8 0 -14 8 -14 18 0 33
23 44 34 16z m438 -26 c-9 -9 -12 -7 -12 12 0 19 3 21 12 12 9 -9 9 -15 0 -24z
m-439 -180 c4 -79 7 -196 7 -260 l0 -118 -30 0 c-28 0 -30 2 -30 38 0 70 21
457 25 470 13 38 23 -4 28 -130z m447 -124 c0 -200 -3 -255 -12 -252 -9 3 -14
38 -16 114 -4 144 8 394 19 394 5 0 9 -112 9 -256z m-425 -344 l0 -55 -47 -3
-48 -3 0 54 c0 29 3 57 7 61 4 4 25 6 48 4 l40 -3 0 -55z"/>
<path d="M12910 1775 c-7 -8 -21 -15 -32 -15 -11 0 -42 -10 -69 -21 -42 -19
-53 -20 -74 -9 -29 15 -43 7 -61 -36 -11 -26 -20 -34 -39 -34 -32 0 -31 -12 6
-78 l30 -54 -1 -226 c-1 -125 -3 -240 -4 -257 -1 -21 4 -30 17 -33 16 -3 17
11 17 197 0 111 4 201 8 201 5 0 12 -87 16 -192 4 -106 9 -194 11 -196 18 -19
22 34 17 243 l-5 235 183 -2 183 -3 -2 -246 c-2 -248 2 -299 23 -299 8 0 10
61 8 226 -3 220 2 265 27 239 5 -6 13 -105 19 -222 5 -116 12 -215 15 -220 9
-14 67 -3 67 12 0 8 -10 15 -22 17 -22 3 -23 7 -29 158 -15 369 -15 378 36
452 14 20 25 39 25 42 0 4 -14 6 -31 6 -25 0 -32 6 -45 36 -14 34 -16 35 -54
29 -31 -5 -46 -2 -69 14 -16 12 -45 21 -64 21 -19 0 -40 7 -47 15 -7 8 -20 15
-30 15 -10 0 -23 -7 -30 -15z m50 -30 c7 -8 28 -15 48 -15 19 0 50 -9 68 -21
21 -13 46 -19 66 -17 24 2 33 -1 33 -12 0 -13 -33 -15 -235 -15 -202 0 -235 2
-235 15 0 11 9 14 31 12 16 -1 50 6 75 17 24 11 56 21 70 21 15 0 32 7 39 15
7 8 16 15 20 15 4 0 13 -7 20 -15z m270 -122 c0 -3 -7 -15 -17 -25 -15 -17
-37 -18 -279 -18 -250 0 -264 1 -274 19 -5 11 -10 22 -10 25 0 3 131 6 290 6
160 0 290 -3 290 -7z m-45 -78 c0 -6 -89 -11 -242 -13 -222 -2 -257 1 -236 22
11 11 478 2 478 -9z m-7 -73 c2 -14 -2 -22 -12 -22 -19 0 -29 17 -22 36 8 22
30 12 34 -14z m-458 -2 c0 -11 -4 -20 -10 -20 -5 0 -10 9 -10 20 0 11 5 20 10
20 6 0 10 -9 10 -20z"/>
<path d="M6015 1569 c-10 -15 3 -25 16 -12 7 7 7 13 1 17 -6 3 -14 1 -17 -5z"/>
<path d="M5910 1560 c0 -5 7 -10 15 -10 8 0 15 5 15 10 0 6 -7 10 -15 10 -8 0
-15 -4 -15 -10z"/>
<path d="M5810 1546 c0 -9 7 -16 16 -16 17 0 14 22 -4 28 -7 2 -12 -3 -12 -12z"/>
<path d="M6090 1545 c0 -9 5 -15 11 -13 6 2 11 8 11 13 0 5 -5 11 -11 13 -6 2
-11 -4 -11 -13z"/>
<path d="M1046 1543 c-12 -12 -5 -23 14 -23 11 0 20 4 20 9 0 11 -26 22 -34
14z"/>
<path d="M940 1514 c0 -9 7 -14 17 -12 25 5 28 28 4 28 -12 0 -21 -6 -21 -16z"/>
<path d="M1140 1521 c0 -11 26 -22 34 -14 12 12 5 23 -14 23 -11 0 -20 -4 -20
-9z"/>
<path d="M853 1495 c-3 -9 -3 -19 1 -22 8 -9 37 18 30 28 -8 14 -24 11 -31 -6z"/>
<path d="M6226 1503 c-11 -11 -6 -23 9 -23 8 0 15 4 15 9 0 13 -16 22 -24 14z"/>
<path d="M1235 1490 c-7 -12 2 -30 16 -30 12 0 12 27 0 35 -5 3 -12 1 -16 -5z"/>
<path d="M1975 1490 c-3 -5 -4 -14 0 -20 8 -13 35 -1 35 16 0 16 -26 19 -35 4z"/>
<path d="M2170 1490 c0 -5 7 -10 15 -10 8 0 15 5 15 10 0 6 -7 10 -15 10 -8 0
-15 -4 -15 -10z"/>
<path d="M2252 1468 c6 -18 28 -21 28 -4 0 9 -7 16 -16 16 -9 0 -14 -5 -12
-12z"/>
<path d="M761 1447 c-6 -8 -8 -17 -5 -20 9 -8 44 11 44 23 0 15 -26 12 -39 -3z"/>
<path d="M7284 1453 c-12 -2 -32 -15 -45 -29 -24 -26 -24 -26 -29 -342 -3
-174 -2 -321 2 -327 4 -6 54 -9 127 -7 l120 3 1 307 c0 292 -1 309 -20 340
-30 49 -86 69 -156 55z m113 -47 l28 -24 3 -301 3 -301 -95 0 -96 0 0 298 c0
224 3 302 13 314 35 44 102 50 144 14z"/>
<path d="M12880 1438 c-13 -7 -35 -29 -47 -47 -22 -33 -23 -40 -23 -291 0
-204 3 -260 13 -269 11 -8 18 -6 33 10 18 20 18 21 1 34 -17 12 -18 32 -15
255 l3 242 29 25 c25 21 37 24 75 20 78 -9 81 -17 81 -252 0 -199 0 -203 -22
-218 -30 -19 -22 -25 26 -19 36 4 38 6 32 34 -3 17 -6 118 -6 224 l0 194 -27
30 c-22 24 -39 32 -78 36 -31 3 -59 0 -75 -8z"/>
<path d="M2332 1428 c6 -18 28 -21 28 -4 0 9 -7 16 -16 16 -9 0 -14 -5 -12
-12z"/>
<path d="M6240 1415 c0 -8 5 -15 10 -15 6 0 10 7 10 15 0 8 -4 15 -10 15 -5 0
-10 -7 -10 -15z"/>
<path d="M2825 1409 c-4 -6 -4 -13 -1 -16 8 -8 36 5 36 17 0 13 -27 13 -35 -1z"/>
<path d="M676 1391 c-21 -23 -6 -36 20 -16 14 10 16 17 8 25 -7 7 -15 5 -28
-9z"/>
<path d="M1680 1394 c0 -9 5 -14 12 -12 18 6 21 28 4 28 -9 0 -16 -7 -16 -16z"/>
<path d="M2737 1403 c-12 -11 -8 -23 8 -23 8 0 15 7 15 15 0 16 -12 20 -23 8z"/>
<path d="M2915 1400 c-3 -5 -2 -10 4 -10 5 0 13 5 16 10 3 6 2 10 -4 10 -5 0
-13 -4 -16 -10z"/>
<path d="M6662 1388 c3 -7 13 -15 22 -16 12 -3 17 1 14 10 -3 7 -13 15 -22 16
-12 3 -17 -1 -14 -10z"/>
<path d="M2391 1366 c-11 -13 -11 -20 -3 -28 8 -8 13 -7 18 5 10 27 0 41 -15
23z"/>
<path d="M2645 1369 c-10 -15 1 -23 20 -15 9 3 13 10 10 16 -8 13 -22 13 -30
-1z"/>
<path d="M1591 1361 c-7 -5 -10 -14 -7 -20 8 -13 46 3 46 19 0 12 -20 13 -39
1z"/>
<path d="M1340 1341 c0 -6 5 -13 10 -16 6 -3 10 1 10 9 0 9 -4 16 -10 16 -5 0
-10 -4 -10 -9z"/>
<path d="M6225 1340 c3 -5 10 -10 16 -10 5 0 9 5 9 10 0 6 -7 10 -16 10 -8 0
-12 -4 -9 -10z"/>
<path d="M602 1328 c-14 -14 -16 -38 -3 -38 5 0 14 7 21 15 17 20 0 41 -18 23z"/>
<path d="M2555 1320 c-3 -5 3 -10 14 -10 12 0 21 5 21 10 0 6 -6 10 -14 10 -8
0 -18 -4 -21 -10z"/>
<path d="M6830 1316 c0 -9 7 -16 16 -16 17 0 14 22 -4 28 -7 2 -12 -3 -12 -12z"/>
<path d="M1500 1304 c0 -9 5 -14 12 -12 18 6 21 28 4 28 -9 0 -16 -7 -16 -16z"/>
<path d="M2342 1268 c-14 -14 -16 -38 -4 -38 10 0 42 33 42 43 0 11 -25 8 -38
-5z"/>
<path d="M2490 1270 c0 -5 5 -10 10 -10 6 0 10 5 10 10 0 6 -4 10 -10 10 -5 0
-10 -4 -10 -10z"/>
<path d="M540 1235 c0 -9 5 -15 11 -13 6 2 11 8 11 13 0 5 -5 11 -11 13 -6 2
-11 -4 -11 -13z"/>
<path d="M6857 1243 c-12 -11 -8 -23 8 -23 8 0 15 7 15 15 0 16 -12 20 -23 8z"/>
<path d="M8570 1236 c0 -9 7 -16 16 -16 9 0 14 5 12 12 -6 18 -28 21 -28 4z"/>
<path d="M2415 1229 c-4 -6 -5 -12 -2 -15 7 -7 37 7 37 17 0 13 -27 11 -35 -2z"/>
<path d="M8412 1229 c2 -6 8 -10 13 -10 5 0 11 4 13 10 2 6 -4 11 -13 11 -9 0
-15 -5 -13 -11z"/>
<path d="M8490 1230 c0 -5 7 -10 15 -10 8 0 15 5 15 10 0 6 -7 10 -15 10 -8 0
-15 -4 -15 -10z"/>
<path d="M8323 1218 c2 -7 10 -13 17 -13 7 0 15 6 18 13 2 7 -5 12 -18 12 -13
0 -20 -5 -17 -12z"/>
<path d="M8240 1204 c0 -17 22 -14 28 4 2 7 -3 12 -12 12 -9 0 -16 -7 -16 -16z"/>
<path d="M8160 1185 c0 -9 5 -15 11 -13 6 2 11 8 11 13 0 5 -5 11 -11 13 -6 2
-11 -4 -11 -13z"/>
<path d="M8747 1183 c-12 -11 -8 -23 8 -23 8 0 15 7 15 15 0 16 -12 20 -23 8z"/>
<path d="M6800 1164 c0 -17 22 -14 28 4 2 7 -3 12 -12 12 -9 0 -16 -7 -16 -16z"/>
<path d="M500 1150 c0 -13 5 -20 13 -17 6 2 12 10 12 17 0 7 -6 15 -12 18 -8
2 -13 -5 -13 -18z"/>
<path d="M8075 1159 c-10 -15 1 -23 20 -15 9 3 13 10 10 16 -8 13 -22 13 -30
-1z"/>
<path d="M7993 1105 c-3 -9 -3 -19 1 -22 8 -9 37 18 30 28 -8 14 -24 11 -31
-6z"/>
<path d="M8790 1104 c0 -17 22 -14 28 4 2 7 -3 12 -12 12 -9 0 -16 -7 -16 -16z"/>
<path d="M466 1064 c-8 -21 -1 -28 18 -21 9 4 13 13 10 22 -8 20 -20 19 -28
-1z"/>
<path d="M6865 1060 c-8 -13 4 -32 16 -25 12 8 12 35 0 35 -6 0 -13 -4 -16
-10z"/>
<path d="M12482 1061 c-13 -3 -23 -10 -22 -16 1 -10 48 -10 58 0 11 11 -13 22
-36 16z"/>
<path d="M12572 1058 c6 -18 28 -21 28 -4 0 9 -7 16 -16 16 -9 0 -14 -5 -12
-12z"/>
<path d="M8023 1033 c-18 -7 -16 -23 2 -23 8 0 15 7 15 15 0 8 -1 15 -2 14 -2
0 -9 -3 -15 -6z"/>
<path d="M8770 1024 c0 -17 22 -14 28 4 2 7 -3 12 -12 12 -9 0 -16 -7 -16 -16z"/>
<path d="M6935 1009 c-10 -15 3 -25 16 -12 7 7 7 13 1 17 -6 3 -14 1 -17 -5z"/>
<path d="M12310 1010 c0 -5 5 -10 11 -10 5 0 7 5 4 10 -3 6 -8 10 -11 10 -2 0
-4 -4 -4 -10z"/>
<path d="M460 960 c0 -13 5 -20 13 -17 6 2 12 10 12 17 0 7 -6 15 -12 18 -8 2
-13 -5 -13 -18z"/>
<path d="M8720 970 c0 -5 5 -10 10 -10 6 0 10 5 10 10 0 6 -4 10 -10 10 -5 0
-10 -4 -10 -10z"/>
<path d="M12257 964 c-8 -8 1 -24 14 -24 5 0 9 7 9 15 0 15 -12 20 -23 9z"/>
<path d="M12720 960 c-13 -9 -13 -11 0 -20 19 -12 35 -8 35 10 0 18 -16 22
-35 10z"/>
<path d="M7980 950 c0 -5 4 -10 9 -10 6 0 13 5 16 10 3 6 -1 10 -9 10 -9 0
-16 -4 -16 -10z"/>
<path d="M6966 943 c-11 -11 -6 -23 9 -23 8 0 15 4 15 9 0 13 -16 22 -24 14z"/>
<path d="M8643 935 c-3 -9 -3 -18 -1 -21 9 -9 38 8 38 22 0 19 -29 18 -37 -1z"/>
<path d="M9250 926 c0 -9 5 -16 10 -16 6 0 10 4 10 9 0 6 -4 13 -10 16 -5 3
-10 -1 -10 -9z"/>
<path d="M9086 923 c-11 -11 -6 -23 9 -23 8 0 15 4 15 9 0 13 -16 22 -24 14z"/>
<path d="M7810 905 c0 -8 5 -15 10 -15 6 0 10 7 10 15 0 8 -4 15 -10 15 -5 0
-10 -7 -10 -15z"/>
<path d="M8696 913 c-12 -13 -6 -53 9 -53 9 0 15 9 15 24 0 26 -12 40 -24 29z"/>
<path d="M12910 905 c0 -8 7 -15 15 -15 8 0 15 7 15 15 0 8 -7 15 -15 15 -8 0
-15 -7 -15 -15z"/>
<path d="M7725 891 c-3 -5 -1 -12 5 -16 12 -7 30 2 30 16 0 12 -27 12 -35 0z"/>
<path d="M12746 891 c-4 -5 -2 -12 4 -16 5 -3 10 -31 10 -61 0 -54 8 -66 28
-41 17 20 1 121 -20 125 -9 2 -19 -1 -22 -7z"/>
<path d="M476 881 c-8 -12 3 -41 15 -41 12 0 12 37 0 45 -5 3 -12 1 -15 -4z"/>
<path d="M12212 879 c2 -6 8 -10 13 -10 5 0 11 4 13 10 2 6 -4 11 -13 11 -9 0
-15 -5 -13 -11z"/>
<path d="M12644 882 c-7 -4 -9 -30 -6 -69 4 -60 5 -63 43 -82 29 -15 39 -17
39 -8 0 8 -11 20 -25 27 -21 11 -25 20 -25 62 0 34 5 50 15 54 8 4 15 10 15
15 0 11 -40 12 -56 1z"/>
<path d="M8902 868 c7 -19 38 -22 38 -4 0 10 -9 16 -21 16 -12 0 -19 -5 -17
-12z"/>
<path d="M6980 849 c0 -18 2 -19 15 -9 15 12 12 30 -6 30 -5 0 -9 -10 -9 -21z"/>
<path d="M12125 860 c-3 -5 1 -13 10 -16 22 -9 29 1 11 15 -10 8 -16 9 -21 1z"/>
<path d="M8640 851 c0 -11 26 -22 34 -14 3 3 3 10 0 14 -7 12 -34 11 -34 0z"/>
<path d="M7575 840 c-8 -13 4 -32 16 -25 12 8 12 35 0 35 -6 0 -13 -4 -16 -10z"/>
<path d="M8722 838 c3 -7 13 -15 22 -16 12 -3 17 1 14 10 -3 7 -13 15 -22 16
-12 3 -17 -1 -14 -10z"/>
<path d="M8822 839 c2 -6 8 -10 13 -10 5 0 11 4 13 10 2 6 -4 11 -13 11 -9 0
-15 -5 -13 -11z"/>
<path d="M12040 835 c0 -8 7 -15 15 -15 8 0 15 7 15 15 0 8 -7 15 -15 15 -8 0
-15 -7 -15 -15z"/>
<path d="M12545 841 c-3 -5 -1 -12 5 -16 12 -7 30 2 30 16 0 12 -27 12 -35 0z"/>
<path d="M11947 834 c-9 -10 2 -24 19 -24 8 0 14 7 14 15 0 15 -21 21 -33 9z"/>
<path d="M9380 810 c0 -13 5 -20 13 -17 6 2 12 10 12 17 0 7 -6 15 -12 18 -8
2 -13 -5 -13 -18z"/>
<path d="M12455 810 c-8 -12 20 -24 35 -15 6 3 8 11 5 16 -8 12 -32 12 -40 -1z"/>
<path d="M515 790 c-8 -13 3 -30 21 -30 18 0 18 14 0 29 -10 8 -16 9 -21 1z"/>
<path d="M9685 791 c-7 -12 12 -24 25 -16 11 7 4 25 -10 25 -5 0 -11 -4 -15
-9z"/>
<path d="M6980 770 c0 -5 7 -10 16 -10 8 0 12 5 9 10 -3 6 -10 10 -16 10 -5 0
-9 -4 -9 -10z"/>
<path d="M9530 770 c0 -5 5 -10 10 -10 6 0 10 5 10 10 0 6 -4 10 -10 10 -5 0
-10 -4 -10 -10z"/>
<path d="M11770 764 c0 -9 7 -14 17 -12 25 5 28 28 4 28 -12 0 -21 -6 -21 -16z"/>
<path d="M9850 756 c0 -9 7 -16 16 -16 9 0 14 5 12 12 -6 18 -28 21 -28 4z"/>
<path d="M12387 756 c-6 -16 2 -28 14 -20 12 7 11 34 0 34 -5 0 -11 -6 -14
-14z"/>
<path d="M11695 719 c-10 -15 1 -23 20 -15 9 3 13 10 10 16 -8 13 -22 13 -30
-1z"/>
<path d="M12610 705 c0 -9 9 -15 21 -15 18 0 19 2 9 15 -7 8 -16 15 -21 15 -5
0 -9 -7 -9 -15z"/>
<path d="M545 699 c-4 -6 -5 -13 -2 -16 7 -7 27 6 27 18 0 12 -17 12 -25 -2z"/>
<path d="M7022 703 c-41 -16 24 -23 223 -23 189 0 224 -2 229 -15 3 -8 10 -15
16 -15 18 0 11 28 -12 44 -19 13 -58 16 -233 15 -115 0 -216 -3 -223 -6z"/>
<path d="M6972 689 c2 -6 8 -10 13 -10 5 0 11 4 13 10 2 6 -4 11 -13 11 -9 0
-15 -5 -13 -11z"/>
<path d="M12455 689 c-4 -6 -5 -13 -2 -16 7 -7 27 6 27 18 0 12 -17 12 -25 -2z"/>
<path d="M12530 690 c0 -5 7 -10 15 -10 8 0 15 5 15 10 0 6 -7 10 -15 10 -8 0
-15 -4 -15 -10z"/>
<path d="M11652 646 c1 -10 8 -17 13 -17 15 1 12 24 -3 29 -9 3 -13 -2 -10
-12z"/>
<path d="M475 639 c-10 -15 1 -23 20 -15 9 3 13 10 10 16 -8 13 -22 13 -30 -1z"/>
<path d="M9967 643 c-4 -3 -7 -15 -7 -25 0 -26 24 -17 28 10 3 21 -8 29 -21
15z"/>
<path d="M6931 616 c-9 -10 -9 -16 -1 -21 17 -10 37 12 24 25 -8 8 -15 6 -23
-4z"/>
<path d="M403 575 c-3 -9 -3 -19 1 -22 8 -9 37 18 30 28 -8 14 -24 11 -31 -6z"/>
<path d="M7480 580 c0 -5 7 -10 15 -10 8 0 15 5 15 10 0 6 -7 10 -15 10 -8 0
-15 -4 -15 -10z"/>
<path d="M11652 544 c4 -21 22 -23 26 -1 2 10 -3 17 -13 17 -10 0 -15 -6 -13
-16z"/>
<path d="M6880 541 c0 -26 62 -31 350 -31 188 0 301 -4 305 -10 11 -17 37 -11
33 8 -5 26 -61 31 -368 31 -151 0 -285 3 -297 7 -14 4 -23 2 -23 -5z"/>
<path d="M9964 539 c-3 -6 1 -18 10 -27 15 -15 16 -14 16 11 0 27 -13 36 -26
16z"/>
<path d="M370 481 c0 -12 6 -21 16 -21 9 0 14 7 12 17 -5 25 -28 28 -28 4z"/>
<path d="M6916 491 c-4 -7 -5 -15 -2 -18 9 -9 19 4 14 18 -4 11 -6 11 -12 0z"/>
<path d="M11570 492 c0 -14 11 -21 26 -15 21 8 17 23 -6 23 -11 0 -20 -4 -20
-8z"/>
<path d="M7000 450 c0 -5 5 -10 10 -10 6 0 10 5 10 10 0 6 -4 10 -10 10 -5 0
-10 -4 -10 -10z"/>
<path d="M9954 446 c-6 -16 11 -46 27 -46 15 0 10 37 -6 50 -12 10 -16 9 -21
-4z"/>
<path d="M11406 453 c-11 -11 -6 -23 9 -23 8 0 15 4 15 9 0 13 -16 22 -24 14z"/>
<path d="M7530 430 c0 -5 5 -10 10 -10 6 0 10 5 10 10 0 6 -4 10 -10 10 -5 0
-10 -4 -10 -10z"/>
<path d="M11319 404 c-11 -14 -10 -15 11 -12 13 1 25 9 28 16 5 17 -23 15 -39
-4z"/>
<path d="M422 398 c6 -18 28 -21 28 -4 0 9 -7 16 -16 16 -9 0 -14 -5 -12 -12z"/>
<path d="M7040 380 c0 -25 34 -30 207 -30 175 0 183 -1 183 -20 0 -13 5 -18
15 -14 22 9 18 31 -7 48 -18 11 -68 15 -211 18 -103 2 -187 1 -187 -2z"/>
<path d="M505 370 c-8 -13 20 -24 42 -16 15 6 15 8 3 16 -20 13 -37 12 -45 0z"/>
<path d="M9915 370 c-9 -15 4 -30 20 -23 8 3 15 9 15 13 0 12 -29 20 -35 10z"/>
<path d="M594 336 c-8 -22 3 -33 18 -18 9 9 9 15 0 24 -9 9 -13 7 -18 -6z"/>
<path d="M6995 309 c-10 -15 1 -23 20 -15 9 3 13 10 10 16 -8 13 -22 13 -30
-1z"/>
<path d="M9860 290 c0 -11 4 -20 9 -20 11 0 22 26 14 34 -12 12 -23 5 -23 -14z"/>
<path d="M6525 289 c-10 -15 1 -23 20 -15 9 3 13 10 10 16 -8 13 -22 13 -30
-1z"/>
<path d="M6617 294 c-14 -14 -6 -24 19 -24 16 0 24 5 22 13 -5 14 -31 21 -41
11z"/>
<path d="M6727 293 c-12 -11 -8 -23 8 -23 8 0 15 7 15 15 0 16 -12 20 -23 8z"/>
<path d="M6816 293 c-11 -11 -6 -23 9 -23 8 0 15 4 15 9 0 13 -16 22 -24 14z"/>
<path d="M6902 293 c-18 -7 -4 -23 19 -23 12 0 19 5 17 12 -5 14 -18 18 -36
11z"/>
<path d="M7463 272 c-28 -4 -31 -32 -4 -32 20 0 47 26 34 32 -4 2 -18 2 -30 0z"/>
<path d="M7555 270 c-4 -7 -3 -16 2 -21 12 -12 45 0 40 15 -5 15 -34 19 -42 6z"/>
<path d="M7655 270 c-8 -13 4 -32 16 -25 12 8 12 35 0 35 -6 0 -13 -4 -16 -10z"/>
<path d="M7815 270 c-4 -6 -3 -16 3 -22 6 -6 12 -6 17 2 4 6 3 16 -3 22 -6 6
-12 6 -17 -2z"/>
<path d="M7897 273 c-3 -5 -2 -15 2 -22 7 -10 10 -10 16 -1 4 6 3 16 -3 22 -5
5 -12 6 -15 1z"/>
<path d="M7975 270 c-4 -6 -3 -16 3 -22 6 -6 12 -6 17 2 4 6 3 16 -3 22 -6 6
-12 6 -17 -2z"/>
<path d="M8054 269 c-10 -17 13 -36 27 -22 12 12 4 33 -11 33 -5 0 -12 -5 -16
-11z"/>
<path d="M8145 270 c-4 -6 -3 -16 3 -22 6 -6 12 -6 17 2 4 6 3 16 -3 22 -6 6
-12 6 -17 -2z"/>
<path d="M8224 269 c-8 -14 11 -33 25 -25 6 4 11 11 11 16 0 13 -29 20 -36 9z"/>
<path d="M8315 270 c-4 -6 -3 -16 3 -22 6 -6 12 -6 17 2 4 6 3 16 -3 22 -6 6
-12 6 -17 -2z"/>
<path d="M8396 271 c-3 -5 1 -14 8 -20 16 -13 32 2 21 19 -8 12 -22 13 -29 1z"/>
<path d="M8485 270 c-4 -6 -3 -16 3 -22 6 -6 12 -6 17 2 4 6 3 16 -3 22 -6 6
-12 6 -17 -2z"/>
<path d="M8572 263 c2 -10 10 -18 18 -18 22 0 18 29 -3 33 -14 3 -18 -1 -15
-15z"/>
<path d="M8664 269 c-10 -17 13 -36 27 -22 12 12 4 33 -11 33 -5 0 -12 -5 -16
-11z"/>
<path d="M8765 270 c-4 -6 -3 -16 3 -22 6 -6 12 -6 17 2 4 6 3 16 -3 22 -6 6
-12 6 -17 -2z"/>
<path d="M8844 269 c-10 -17 13 -36 27 -22 12 12 4 33 -11 33 -5 0 -12 -5 -16
-11z"/>
<path d="M8935 270 c-4 -6 -3 -16 3 -22 6 -6 12 -6 17 2 4 6 3 16 -3 22 -6 6
-12 6 -17 -2z"/>
<path d="M9012 266 c1 -10 8 -17 13 -17 15 1 12 24 -3 29 -9 3 -13 -2 -10 -12z"/>
<path d="M9096 271 c-9 -15 23 -36 36 -23 5 5 7 15 4 21 -9 13 -33 14 -40 2z"/>
<path d="M9194 269 c-8 -14 18 -31 30 -19 9 9 0 30 -14 30 -5 0 -12 -5 -16
-11z"/>
<path d="M9350 265 c0 -9 5 -15 11 -13 6 2 11 8 11 13 0 5 -5 11 -11 13 -6 2
-11 -4 -11 -13z"/>
<path d="M9432 271 c-10 -6 -10 -10 3 -21 18 -15 42 0 31 19 -8 13 -16 14 -34
2z"/>
<path d="M9524 269 c-10 -17 13 -36 27 -22 12 12 4 33 -11 33 -5 0 -12 -5 -16
-11z"/>
<path d="M9622 266 c1 -10 8 -17 13 -17 15 1 12 24 -3 29 -9 3 -13 -2 -10 -12z"/>
<path d="M9705 270 c-4 -6 -3 -16 3 -22 6 -6 12 -6 17 2 4 6 3 16 -3 22 -6 6
-12 6 -17 -2z"/>
<path d="M11312 269 c2 -6 8 -10 13 -10 5 0 11 4 13 10 2 6 -4 11 -13 11 -9 0
-15 -5 -13 -11z"/>
<path d="M7740 260 c0 -5 5 -10 10 -10 6 0 10 5 10 10 0 6 -4 10 -10 10 -5 0
-10 -4 -10 -10z"/>
<path d="M9280 260 c0 -5 5 -10 10 -10 6 0 10 5 10 10 0 6 -4 10 -10 10 -5 0
-10 -4 -10 -10z"/>
<path d="M9782 258 c6 -18 28 -21 28 -4 0 9 -7 16 -16 16 -9 0 -14 -5 -12 -12z"/>
<path d="M11397 254 c-8 -8 1 -24 14 -24 5 0 9 7 9 15 0 15 -12 20 -23 9z"/>
<path d="M600 240 c0 -5 7 -10 15 -10 8 0 15 5 15 10 0 6 -7 10 -15 10 -8 0
-15 -4 -15 -10z"/>
<path d="M690 242 c0 -14 11 -21 26 -15 8 3 11 9 8 14 -7 11 -34 12 -34 1z"/>
<path d="M790 240 c0 -5 5 -10 10 -10 6 0 10 5 10 10 0 6 -4 10 -10 10 -5 0
-10 -4 -10 -10z"/>
<path d="M870 240 c0 -5 5 -10 10 -10 6 0 10 5 10 10 0 6 -4 10 -10 10 -5 0
-10 -4 -10 -10z"/>
<path d="M11480 235 c0 -8 7 -15 15 -15 8 0 15 7 15 15 0 8 -7 15 -15 15 -8 0
-15 -7 -15 -15z"/>
<path d="M11570 235 c0 -8 7 -15 15 -15 8 0 15 7 15 15 0 8 -7 15 -15 15 -8 0
-15 -7 -15 -15z"/>
<path d="M11652 238 c5 -15 28 -18 29 -3 0 6 -7 12 -17 13 -10 3 -15 -1 -12
-10z"/>
<path d="M11740 235 c0 -8 9 -15 20 -15 11 0 20 7 20 15 0 8 -9 15 -20 15 -11
0 -20 -7 -20 -15z"/>
<path d="M11840 236 c0 -9 7 -16 16 -16 9 0 14 5 12 12 -6 18 -28 21 -28 4z"/>
<path d="M11920 235 c0 -8 5 -15 10 -15 6 0 10 7 10 15 0 8 -4 15 -10 15 -5 0
-10 -7 -10 -15z"/>
<path d="M12000 235 c0 -8 5 -15 10 -15 6 0 10 7 10 15 0 8 -4 15 -10 15 -5 0
-10 -7 -10 -15z"/>
<path d="M12080 235 c0 -11 7 -15 23 -13 12 2 22 8 22 13 0 6 -10 11 -22 13
-16 2 -23 -2 -23 -13z"/>
<path d="M12180 235 c0 -9 5 -15 11 -13 6 2 11 8 11 13 0 5 -5 11 -11 13 -6 2
-11 -4 -11 -13z"/>
<path d="M12260 236 c0 -10 9 -16 21 -16 24 0 21 23 -4 28 -10 2 -17 -3 -17
-12z"/>
<path d="M12352 238 c5 -15 28 -18 29 -3 0 6 -7 12 -17 13 -10 3 -15 -1 -12
-10z"/>
<path d="M12442 238 c7 -19 38 -22 38 -4 0 10 -9 16 -21 16 -12 0 -19 -5 -17
-12z"/>
<path d="M12540 235 c0 -8 7 -15 15 -15 8 0 15 7 15 15 0 8 -7 15 -15 15 -8 0
-15 -7 -15 -15z"/>
<path d="M12630 235 c0 -8 9 -15 20 -15 11 0 20 7 20 15 0 8 -9 15 -20 15 -11
0 -20 -7 -20 -15z"/>
<path d="M12730 235 c0 -10 10 -15 30 -15 20 0 30 5 30 15 0 10 -10 15 -30 15
-20 0 -30 -5 -30 -15z"/>
<path d="M12850 235 c0 -8 9 -15 20 -15 11 0 20 7 20 15 0 8 -9 15 -20 15 -11
0 -20 -7 -20 -15z"/>
<path d="M12945 241 c-7 -12 12 -24 25 -16 11 7 4 25 -10 25 -5 0 -11 -4 -15
-9z"/>
<path d="M13030 235 c0 -8 9 -15 20 -15 11 0 20 7 20 15 0 8 -9 15 -20 15 -11
0 -20 -7 -20 -15z"/>
<path d="M13130 235 c0 -8 7 -15 15 -15 8 0 15 7 15 15 0 8 -7 15 -15 15 -8 0
-15 -7 -15 -15z"/>
<path d="M13217 244 c-8 -8 1 -24 14 -24 5 0 9 7 9 15 0 15 -12 20 -23 9z"/>
<path d="M13296 241 c-4 -5 -2 -12 3 -15 5 -4 12 -2 15 3 4 5 2 12 -3 15 -5 4
-12 2 -15 -3z"/>
</g>
</svg>
